SplineFontDB: 3.2
FontName: OcodoMono-Thin
FullName: OcodoMono Thin
FamilyName: OcodoMono-Thin
Weight: Thin
Copyright: Ocodo/Jason Milkins ocodo.github.io
Version: 1.40
ItalicAngle: 0
UnderlinePosition: -124
UnderlineWidth: 25
Ascent: 783
Descent: 217
InvalidEm: 0
sfntRevision: 0x00010000
LayerCount: 2
Layer: 0 1 "Back" 1
Layer: 1 1 "Fore" 0
XUID: [1021 515 1217653088 999156]
StyleMap: 0x0040
FSType: 0
OS2Version: 4
OS2_WeightWidthSlopeOnly: 0
OS2_UseTypoMetrics: 0
CreationTime: 1364125971
ModificationTime: 1749518067
PfmFamily: 17
TTFWeight: 100
TTFWidth: 5
LineGap: 200
VLineGap: 0
Panose: 2 0 4 9 2 2 2 2 2 4
OS2TypoAscent: 783
OS2TypoAOffset: 0
OS2TypoDescent: -217
OS2TypoDOffset: 0
OS2TypoLinegap: 200
OS2WinAscent: 963
OS2WinAOffset: 0
OS2WinDescent: 237
OS2WinDOffset: 0
HheadAscent: 783
HheadAOffset: 0
HheadDescent: -217
HheadDOffset: 0
OS2SubXSize: 700
OS2SubYSize: 650
OS2SubXOff: 0
OS2SubYOff: 140
OS2SupXSize: 700
OS2SupYSize: 650
OS2SupXOff: 0
OS2SupYOff: 477
OS2StrikeYSize: 25
OS2StrikeYPos: 250
OS2CapHeight: 696
OS2XHeight: 495
OS2Vendor: 'ocdo'
OS2CodePages: 00000093.00000000
OS2UnicodeRanges: 800000bf.5000204a.00000000.00000000
MarkAttachClasses: 1
DEI: 91125
ShortTable: maxp 16
  1
  0
  385
  88
  7
  0
  0
  2
  0
  1
  1
  0
  64
  0
  0
  0
EndShort

StartChar: .notdef
Encoding: 65536 -1 0
Width: 550
GlyphClass: 1
Flags: W
LayerCount: 2
Fore
SplineSet
61 0 m 1,0,-1
 61 700 l 1,1,-1
 489 700 l 1,2,-1
 489 0 l 1,3,-1
 61 0 l 1,0,-1
290 350 m 1,4,-1
 469 27 l 1,5,-1
 469 677 l 1,6,-1
 290 350 l 1,4,-1
81 672 m 1,7,-1
 81 29 l 1,8,-1
 260 350 l 1,9,-1
 81 672 l 1,7,-1
275 369 m 1,10,-1
 445 679 l 1,11,-1
 105 679 l 1,12,-1
 275 369 l 1,10,-1
105 21 m 1,13,-1
 445 21 l 1,14,-1
 275 331 l 1,15,-1
 105 21 l 1,13,-1
EndSplineSet
Validated: 1
EndChar

StartChar: exclam
Encoding: 33 33 4
Width: 550
GlyphClass: 2
Flags: W
LayerCount: 2
Fore
SplineSet
284 194 m 1,0,-1
 268 194 l 1,1,-1
 262 696 l 1,2,-1
 291 696 l 1,3,-1
 284 194 l 1,0,-1
293 0 m 1,4,-1
 257 0 l 1,5,-1
 257 41 l 1,6,-1
 293 41 l 1,7,-1
 293 0 l 1,4,-1
EndSplineSet
Validated: 1
EndChar

StartChar: quotedbl
Encoding: 34 34 5
Width: 550
GlyphClass: 2
Flags: W
LayerCount: 2
Fore
SplineSet
221 696 m 1,0,-1
 251 696 l 1,1,-1
 243 495 l 1,2,-1
 229 495 l 1,3,-1
 221 696 l 1,0,-1
296 696 m 1,4,-1
 326 696 l 1,5,-1
 318 495 l 1,6,-1
 304 495 l 1,7,-1
 296 696 l 1,4,-1
EndSplineSet
Validated: 1
EndChar

StartChar: numbersign
Encoding: 35 35 6
Width: 550
GlyphClass: 2
Flags: W
LayerCount: 2
Fore
SplineSet
388 453 m 1,0,-1
 359 246 l 1,1,-1
 464 246 l 1,2,-1
 464 228 l 1,3,-1
 357 228 l 1,4,-1
 329 0 l 1,5,-1
 306 0 l 1,6,-1
 337 228 l 1,7,-1
 176 228 l 1,8,-1
 144 0 l 1,9,-1
 122 0 l 1,10,-1
 155 228 l 1,11,-1
 55 228 l 1,12,-1
 55 246 l 1,13,-1
 157 246 l 1,14,-1
 187 453 l 1,15,-1
 85 453 l 1,16,-1
 85 472 l 1,17,-1
 189 472 l 1,18,-1
 219 695 l 1,19,-1
 238 695 l 1,20,-1
 208 472 l 1,21,-1
 370 472 l 1,22,-1
 402 695 l 1,23,-1
 420 695 l 1,24,-1
 390 472 l 1,25,-1
 494 472 l 1,26,-1
 494 453 l 1,27,-1
 388 453 l 1,0,-1
206 453 m 1,28,-1
 178 246 l 1,29,-1
 339 246 l 1,30,-1
 368 453 l 1,31,-1
 206 453 l 1,28,-1
EndSplineSet
Validated: 1
EndChar

StartChar: dollar
Encoding: 36 36 7
Width: 550
GlyphClass: 2
Flags: W
LayerCount: 2
Fore
SplineSet
247 764 m 1,0,-1
 247 -88 l 1,1,-1
 226 -88 l 1,2,-1
 226 -2 l 1,3,4
 140 6 140 6 63 61 c 1,5,-1
 78 81 l 1,6,7
 150 31 150 31 226 22 c 1,8,-1
 226 365 l 1,9,10
 160 385 160 385 123 420.5 c 128,-1,11
 86 456 86 456 86 526 c 0,12,13
 86 592 86 592 123.5 638 c 128,-1,14
 161 684 161 684 226 694 c 1,15,-1
 226 764 l 1,16,-1
 247 764 l 1,0,-1
296 -88 m 1,17,-1
 296 764 l 1,18,-1
 317 764 l 1,19,-1
 317 696 l 1,20,21
 391 687 391 687 450 652 c 1,22,-1
 438 629 l 1,23,24
 379 662 379 662 317 671 c 1,25,-1
 317 364 l 1,26,27
 355 353 355 353 380.5 341 c 128,-1,28
 406 329 406 329 431 308.5 c 128,-1,29
 456 288 456 288 468.5 256 c 128,-1,30
 481 224 481 224 481 180 c 0,31,32
 481 108 481 108 437.5 57.5 c 128,-1,33
 394 7 394 7 317 -1 c 1,34,-1
 317 -88 l 1,35,-1
 296 -88 l 1,17,-1
455 178 m 0,36,37
 455 250 455 250 418.5 285 c 128,-1,38
 382 320 382 320 317 339 c 1,39,-1
 317 23 l 1,40,41
 382 31 382 31 418.5 72 c 128,-1,42
 455 113 455 113 455 178 c 0,36,37
112 524 m 0,43,44
 112 468 112 468 141 438 c 128,-1,45
 170 408 170 408 226 392 c 1,46,-1
 226 669 l 1,47,48
 177 660 177 660 144.5 623.5 c 128,-1,49
 112 587 112 587 112 524 c 0,43,44
EndSplineSet
Validated: 1
EndChar

StartChar: percent
Encoding: 37 37 8
Width: 550
GlyphClass: 2
Flags: W
LayerCount: 2
Fore
SplineSet
149 391 m 0,0,1
 102 391 102 391 70 417.5 c 128,-1,2
 38 444 38 444 38 492 c 2,3,-1
 38 606 l 2,4,5
 38 653 38 653 70 679.5 c 128,-1,6
 102 706 102 706 149 706 c 0,7,8
 195 706 195 706 226 679.5 c 128,-1,9
 257 653 257 653 257 606 c 2,10,-1
 257 492 l 2,11,12
 257 445 257 445 226 418 c 128,-1,13
 195 391 195 391 149 391 c 0,0,1
233 499 m 2,14,-1
 233 601 l 2,15,16
 233 637 233 637 210 660 c 128,-1,17
 187 683 187 683 149 683 c 0,18,19
 110 683 110 683 86 660 c 128,-1,20
 62 637 62 637 62 601 c 2,21,-1
 62 499 l 2,22,23
 62 463 62 463 86 439 c 128,-1,24
 110 415 110 415 149 415 c 0,25,26
 190 415 190 415 211.5 438.5 c 128,-1,27
 233 462 233 462 233 499 c 2,14,-1
52 -17 m 1,28,-1
 27 -17 l 1,29,-1
 505 714 l 1,30,-1
 532 714 l 1,31,-1
 52 -17 l 1,28,-1
407 -11 m 0,32,33
 360 -11 360 -11 328 15.5 c 128,-1,34
 296 42 296 42 296 90 c 2,35,-1
 296 204 l 2,36,37
 296 251 296 251 328 277.5 c 128,-1,38
 360 304 360 304 407 304 c 0,39,40
 453 304 453 304 484 277.5 c 128,-1,41
 515 251 515 251 515 204 c 2,42,-1
 515 90 l 2,43,44
 515 43 515 43 484 16 c 128,-1,45
 453 -11 453 -11 407 -11 c 0,32,33
491 97 m 2,46,-1
 491 199 l 2,47,48
 491 235 491 235 468 258 c 128,-1,49
 445 281 445 281 407 281 c 0,50,51
 368 281 368 281 344 258 c 128,-1,52
 320 235 320 235 320 199 c 2,53,-1
 320 97 l 2,54,55
 320 61 320 61 344 37 c 128,-1,56
 368 13 368 13 407 13 c 0,57,58
 448 13 448 13 469.5 36.5 c 128,-1,59
 491 60 491 60 491 97 c 2,46,-1
EndSplineSet
Validated: 1
EndChar

StartChar: ampersand
Encoding: 38 38 9
Width: 550
GlyphClass: 2
Flags: W
LayerCount: 2
Fore
SplineSet
194 397 m 1,0,-1
 172 425 l 2,1,2
 105 513 105 513 105 572 c 0,3,4
 105 626 105 626 141.5 666 c 128,-1,5
 178 706 178 706 251 706 c 0,6,7
 344 706 344 706 397 657 c 1,8,-1
 377 635 l 1,9,10
 325 680 325 680 252 680 c 0,11,12
 189 680 189 680 161 645.5 c 128,-1,13
 133 611 133 611 133 572 c 0,14,15
 133 519 133 519 210 419 c 2,16,-1
 425 138 l 1,17,18
 459 194 459 194 463 288 c 1,19,-1
 489 288 l 1,20,21
 481 188 481 188 444 117 c 1,22,-1
 537 0 l 1,23,-1
 501 0 l 1,24,-1
 428 95 l 1,25,26
 341 -6 341 -6 217 -6 c 0,27,28
 138 -6 138 -6 87 38 c 128,-1,29
 36 82 36 82 36 160 c 0,30,31
 36 288 36 288 194 397 c 1,0,-1
210 375 m 1,32,33
 62 278 62 278 62 164 c 0,34,35
 62 93 62 93 109 55 c 128,-1,36
 156 17 156 17 218 17 c 0,37,38
 330 17 330 17 408 115 c 1,39,-1
 210 375 l 1,32,33
EndSplineSet
Validated: 1
EndChar

StartChar: quotesingle
Encoding: 39 39 10
Width: 550
GlyphClass: 2
Flags: W
LayerCount: 2
Fore
SplineSet
261 696 m 1,0,-1
 291 696 l 1,1,-1
 283 495 l 1,2,-1
 269 495 l 1,3,-1
 261 696 l 1,0,-1
EndSplineSet
Validated: 1
EndChar

StartChar: parenleft
Encoding: 40 40 11
Width: 550
GlyphClass: 2
Flags: W
LayerCount: 2
Fore
SplineSet
354 -112 m 1,0,-1
 346 -118 l 1,1,2
 279 -39 279 -39 237 73 c 128,-1,3
 195 185 195 185 195 297 c 0,4,5
 195 407 195 407 235 520 c 128,-1,6
 275 633 275 633 344 715 c 1,7,-1
 353 709 l 1,8,9
 293 619 293 619 259.5 512.5 c 128,-1,10
 226 406 226 406 226 303 c 0,11,12
 226 193 226 193 260 85 c 128,-1,13
 294 -23 294 -23 354 -112 c 1,0,-1
EndSplineSet
Validated: 1
EndChar

StartChar: parenright
Encoding: 41 41 12
Width: 550
GlyphClass: 2
Flags: W
LayerCount: 2
Fore
SplineSet
354 294 m 0,0,1
 354 183 354 183 312 70.5 c 128,-1,2
 270 -42 270 -42 204 -121 c 1,3,-1
 195 -115 l 1,4,5
 255 -26 255 -26 289 82 c 128,-1,6
 323 190 323 190 323 300 c 0,7,8
 323 404 323 404 289.5 509.5 c 128,-1,9
 256 615 256 615 196 706 c 1,10,-1
 205 712 l 1,11,12
 274 630 274 630 314 517 c 128,-1,13
 354 404 354 404 354 294 c 0,0,1
EndSplineSet
Validated: 1
EndChar

StartChar: asterisk
Encoding: 42 42 13
Width: 550
GlyphClass: 2
Flags: W
LayerCount: 2
Fore
SplineSet
290 549 m 1,0,-1
 372 450 l 1,1,-1
 347 430 l 1,2,-1
 274 541 l 1,3,-1
 204 430 l 1,4,-1
 179 450 l 1,5,-1
 258 549 l 1,6,-1
 135 587 l 1,7,-1
 145 617 l 1,8,-1
 266 567 l 1,9,-1
 260 694 l 1,10,-1
 288 694 l 1,11,-1
 281 567 l 1,12,-1
 404 617 l 1,13,-1
 414 587 l 1,14,-1
 290 549 l 1,0,-1
EndSplineSet
Validated: 1
EndChar

StartChar: plus
Encoding: 43 43 14
Width: 550
GlyphClass: 2
Flags: W
LayerCount: 2
Fore
SplineSet
286 261 m 1,0,-1
 286 65 l 1,1,-1
 263 65 l 1,2,-1
 263 261 l 1,3,-1
 75 261 l 1,4,-1
 75 285 l 1,5,-1
 263 285 l 1,6,-1
 263 478 l 1,7,-1
 286 478 l 1,8,-1
 286 285 l 1,9,-1
 474 285 l 1,10,-1
 474 261 l 1,11,-1
 286 261 l 1,0,-1
EndSplineSet
Validated: 1
EndChar

StartChar: comma
Encoding: 44 44 15
Width: 550
GlyphClass: 2
Flags: W
LayerCount: 2
Fore
SplineSet
223 -102 m 1,0,-1
 204 -102 l 1,1,-1
 229 0 l 1,2,-1
 218 0 l 1,3,-1
 218 48 l 1,4,-1
 261 48 l 1,5,-1
 261 -3 l 1,6,-1
 223 -102 l 1,0,-1
EndSplineSet
Validated: 1
EndChar

StartChar: hyphen
Encoding: 45 45 16
Width: 550
GlyphClass: 2
Flags: W
LayerCount: 2
Fore
SplineSet
149 253 m 1,0,-1
 149 279 l 1,1,-1
 400 279 l 1,2,-1
 400 253 l 1,3,-1
 149 253 l 1,0,-1
EndSplineSet
Validated: 1
EndChar

StartChar: period
Encoding: 46 46 17
Width: 550
GlyphClass: 2
Flags: W
LayerCount: 2
Fore
SplineSet
253 0 m 1,0,-1
 212 0 l 1,1,-1
 212 47 l 1,2,-1
 253 47 l 1,3,-1
 253 0 l 1,0,-1
EndSplineSet
Validated: 1
EndChar

StartChar: slash
Encoding: 47 47 18
Width: 550
GlyphClass: 2
Flags: W
LayerCount: 2
Fore
SplineSet
75 -17 m 1,0,-1
 50 -17 l 1,1,-1
 473 714 l 1,2,-1
 500 714 l 1,3,-1
 75 -17 l 1,0,-1
EndSplineSet
Validated: 1
EndChar

StartChar: zero
Encoding: 48 48 19
Width: 550
GlyphClass: 2
Flags: W
LayerCount: 2
Fore
SplineSet
275 -6 m 128,-1,1
 200 -6 200 -6 148 42 c 128,-1,2
 96 90 96 90 96 173 c 2,3,-1
 96 521 l 2,4,5
 96 605 96 605 148 653 c 128,-1,6
 200 701 200 701 275 701 c 128,-1,7
 350 701 350 701 402 653 c 128,-1,8
 454 605 454 605 454 521 c 2,9,-1
 454 173 l 2,10,11
 454 90 454 90 402 42 c 128,-1,0
 350 -6 350 -6 275 -6 c 128,-1,1
431 515 m 2,12,13
 431 547 431 547 421 579 c 1,14,-1
 139 92 l 1,15,16
 179 15 179 15 275 15 c 0,17,18
 345 15 345 15 388 60.5 c 128,-1,19
 431 106 431 106 431 180 c 2,20,-1
 431 515 l 2,12,13
119 180 m 2,21,22
 119 143 119 143 129 116 c 1,23,-1
 410 602 l 1,24,25
 370 679 370 679 275 679 c 0,26,27
 205 679 205 679 162 634 c 128,-1,28
 119 589 119 589 119 515 c 2,29,-1
 119 180 l 2,21,22
EndSplineSet
Validated: 1
EndChar

StartChar: one
Encoding: 49 49 20
Width: 550
GlyphClass: 2
Flags: W
LayerCount: 2
Fore
SplineSet
276 0 m 1,0,-1
 276 24 l 1,1,-1
 276 34 l 1,2,-1
 276 666 l 1,3,-1
 120 583 l 1,4,-1
 120 613 l 1,5,-1
 275 696 l 1,6,-1
 301 696 l 1,7,-1
 301 29 l 1,8,-1
 301 24 l 1,9,-1
 301 0 l 1,10,-1
 276 0 l 1,0,-1
EndSplineSet
Validated: 1
EndChar

StartChar: two
Encoding: 50 50 21
Width: 550
GlyphClass: 2
Flags: W
LayerCount: 2
Fore
SplineSet
126 567 m 1,0,-1
 101 573 l 1,1,2
 118 629 118 629 167.5 664 c 128,-1,3
 217 699 217 699 276 699 c 0,4,5
 361 699 361 699 409 652 c 128,-1,6
 457 605 457 605 457 537 c 0,7,8
 457 464 457 464 412 405 c 2,9,-1
 122 24 l 1,10,-1
 460 24 l 1,11,-1
 460 0 l 1,12,-1
 92 0 l 1,13,-1
 92 25 l 1,14,-1
 391 417 l 2,15,16
 430 469 430 469 430 534 c 0,17,18
 430 595 430 595 389 635 c 128,-1,19
 348 675 348 675 276 675 c 0,20,21
 225 675 225 675 183.5 645.5 c 128,-1,22
 142 616 142 616 126 567 c 1,0,-1
EndSplineSet
Validated: 1
EndChar

StartChar: three
Encoding: 51 51 22
Width: 550
GlyphClass: 2
Flags: W
LayerCount: 2
Fore
SplineSet
335 364 m 1,0,-1
 335 361 l 1,1,2
 403 346 403 346 431 294 c 128,-1,3
 459 242 459 242 459 189 c 0,4,5
 459 100 459 100 404 47 c 128,-1,6
 349 -6 349 -6 256 -6 c 0,7,8
 123 -6 123 -6 90 101 c 1,9,-1
 115 105 l 1,10,11
 130 64 130 64 166.5 39.5 c 128,-1,12
 203 15 203 15 258 15 c 0,13,14
 334 15 334 15 384 61 c 128,-1,15
 434 107 434 107 434 185 c 0,16,17
 434 262 434 262 391.5 305.5 c 128,-1,18
 349 349 349 349 283 349 c 2,19,-1
 241 349 l 1,20,-1
 241 373 l 1,21,-1
 275 373 l 2,22,23
 338 373 338 373 380 413.5 c 128,-1,24
 422 454 422 454 422 521 c 0,25,26
 422 590 422 590 378.5 635.5 c 128,-1,27
 335 681 335 681 262 681 c 0,28,29
 216 681 216 681 175 655 c 128,-1,30
 134 629 134 629 120 586 c 1,31,-1
 96 591 l 1,32,33
 114 643 114 643 159 672.5 c 128,-1,34
 204 702 204 702 264 702 c 0,35,36
 353 702 353 702 400.5 650 c 128,-1,37
 448 598 448 598 448 523 c 0,38,39
 448 502 448 502 443.5 481 c 128,-1,40
 439 460 439 460 428 435.5 c 128,-1,41
 417 411 417 411 393 391.5 c 128,-1,42
 369 372 369 372 335 364 c 1,0,-1
EndSplineSet
Validated: 1
EndChar

StartChar: four
Encoding: 52 52 23
Width: 550
GlyphClass: 2
Flags: W
LayerCount: 2
Fore
SplineSet
415 115 m 1,0,-1
 415 0 l 1,1,-1
 390 0 l 1,2,-1
 390 115 l 1,3,-1
 72 115 l 1,4,-1
 72 138 l 1,5,-1
 324 696 l 1,6,-1
 353 696 l 1,7,-1
 96 139 l 1,8,-1
 390 139 l 1,9,-1
 390 359 l 1,10,-1
 415 359 l 1,11,-1
 415 139 l 1,12,-1
 478 139 l 1,13,-1
 478 115 l 1,14,-1
 415 115 l 1,0,-1
EndSplineSet
Validated: 1
EndChar

StartChar: five
Encoding: 53 53 24
Width: 550
GlyphClass: 2
Flags: W
LayerCount: 2
Fore
SplineSet
99 101 m 1,0,-1
 120 108 l 1,1,2
 136 65 136 65 174.5 40 c 128,-1,3
 213 15 213 15 269 15 c 0,4,5
 342 15 342 15 385 59 c 128,-1,6
 428 103 428 103 428 172 c 2,7,-1
 428 280 l 2,8,9
 428 350 428 350 388 393.5 c 128,-1,10
 348 437 348 437 269 437 c 0,11,12
 234 437 234 437 190.5 414.5 c 128,-1,13
 147 392 147 392 127 363 c 1,14,-1
 105 363 l 1,15,-1
 105 696 l 1,16,-1
 429 696 l 1,17,-1
 429 672 l 1,18,-1
 128 672 l 1,19,-1
 128 396 l 1,20,21
 190 458 190 458 277 458 c 0,22,23
 367 458 367 458 409 408 c 128,-1,24
 451 358 451 358 451 275 c 2,25,-1
 451 182 l 2,26,27
 451 97 451 97 404 45.5 c 128,-1,28
 357 -6 357 -6 266 -6 c 0,29,30
 139 -6 139 -6 99 101 c 1,0,-1
EndSplineSet
Validated: 1
EndChar

StartChar: six
Encoding: 54 54 25
Width: 550
GlyphClass: 2
Flags: W
LayerCount: 2
Fore
SplineSet
277 384 m 0,0,1
 349 384 349 384 402.5 335 c 128,-1,2
 456 286 456 286 456 200 c 0,3,4
 456 97 456 97 401.5 45.5 c 128,-1,5
 347 -6 347 -6 278 -6 c 0,6,7
 200 -6 200 -6 147 44 c 128,-1,8
 94 94 94 94 94 188 c 0,9,10
 94 250 94 250 119 299 c 2,11,-1
 318 696 l 1,12,-1
 344 696 l 1,13,-1
 168 347 l 1,14,-1
 169 345 l 1,15,16
 211 384 211 384 277 384 c 0,0,1
275 363 m 0,17,18
 206 363 206 363 161.5 316 c 128,-1,19
 117 269 117 269 117 190 c 128,-1,20
 117 111 117 111 159.5 62.5 c 128,-1,21
 202 14 202 14 275 14 c 0,22,23
 341 14 341 14 387 61.5 c 128,-1,24
 433 109 433 109 433 199 c 0,25,26
 433 272 433 272 388 317.5 c 128,-1,27
 343 363 343 363 275 363 c 0,17,18
EndSplineSet
Validated: 1
EndChar

StartChar: seven
Encoding: 55 55 26
Width: 550
GlyphClass: 2
Flags: W
LayerCount: 2
Fore
SplineSet
93 672 m 1,0,1
 93 672 93 672 93 696 c 1,2,-1
 456 696 l 1,3,-1
 456 672 l 1,4,-1
 197 0 l 1,5,-1
 170 0 l 1,6,-1
 431 672 l 1,7,-1
 93 672 l 1,0,1
EndSplineSet
Validated: 1
EndChar

StartChar: eight
Encoding: 56 56 27
Width: 550
GlyphClass: 2
Flags: W
LayerCount: 2
Fore
SplineSet
470 184 m 0,0,1
 470 101 470 101 413.5 47.5 c 128,-1,2
 357 -6 357 -6 275 -6 c 128,-1,3
 193 -6 193 -6 136.5 47.5 c 128,-1,4
 80 101 80 101 80 184 c 0,5,6
 80 236 80 236 111 287 c 128,-1,7
 142 338 142 338 205 359 c 1,8,9
 144 381 144 381 119 426 c 128,-1,10
 94 471 94 471 94 520 c 0,11,12
 94 596 94 596 146 648 c 128,-1,13
 198 700 198 700 275 700 c 0,14,15
 354 700 354 700 405 648.5 c 128,-1,16
 456 597 456 597 456 520 c 0,17,18
 456 403 456 403 341 359 c 1,19,20
 407 340 407 340 438.5 288.5 c 128,-1,21
 470 237 470 237 470 184 c 0,0,1
275 681 m 128,-1,23
 212 681 212 681 164.5 638 c 128,-1,24
 117 595 117 595 117 522 c 128,-1,25
 117 449 117 449 164 409.5 c 128,-1,26
 211 370 211 370 275 370 c 128,-1,27
 339 370 339 370 386 409 c 128,-1,28
 433 448 433 448 433 522 c 0,29,30
 433 595 433 595 385.5 638 c 128,-1,22
 338 681 338 681 275 681 c 128,-1,23
275 350 m 128,-1,32
 205 350 205 350 154 303.5 c 128,-1,33
 103 257 103 257 103 185 c 128,-1,34
 103 113 103 113 154.5 63 c 128,-1,35
 206 13 206 13 275 13 c 128,-1,36
 344 13 344 13 395.5 63 c 128,-1,37
 447 113 447 113 447 185 c 128,-1,38
 447 257 447 257 396 303.5 c 128,-1,31
 345 350 345 350 275 350 c 128,-1,32
EndSplineSet
Validated: 1
EndChar

StartChar: nine
Encoding: 57 57 28
Width: 550
GlyphClass: 2
Flags: W
LayerCount: 2
Fore
SplineSet
273 312 m 0,0,1
 201 312 201 312 147.5 362.5 c 128,-1,2
 94 413 94 413 94 502 c 0,3,4
 94 602 94 602 149 652 c 128,-1,5
 204 702 204 702 274 702 c 0,6,7
 355 702 355 702 405.5 650 c 128,-1,8
 456 598 456 598 456 508 c 0,9,10
 456 446 456 446 431 397 c 2,11,-1
 232 0 l 1,12,-1
 206 0 l 1,13,-1
 378 341 l 1,14,-1
 377 342 l 1,15,16
 329 312 329 312 273 312 c 0,0,1
275 333 m 0,17,18
 344 333 344 333 388.5 380 c 128,-1,19
 433 427 433 427 433 506 c 128,-1,20
 433 585 433 585 389.5 634 c 128,-1,21
 346 683 346 683 275 683 c 0,22,23
 210 683 210 683 163.5 635.5 c 128,-1,24
 117 588 117 588 117 506 c 0,25,26
 117 427 117 427 162 380 c 128,-1,27
 207 333 207 333 275 333 c 0,17,18
EndSplineSet
Validated: 1
EndChar

StartChar: colon
Encoding: 58 58 29
Width: 550
GlyphClass: 2
Flags: W
LayerCount: 2
Fore
SplineSet
259 325 m 1,0,-1
 218 325 l 1,1,-1
 218 372 l 1,2,-1
 259 372 l 1,3,-1
 259 325 l 1,0,-1
259 0 m 1,4,-1
 218 0 l 1,5,-1
 218 47 l 1,6,-1
 259 47 l 1,7,-1
 259 0 l 1,4,-1
EndSplineSet
Validated: 1
EndChar

StartChar: semicolon
Encoding: 59 59 30
Width: 550
GlyphClass: 2
Flags: W
LayerCount: 2
Fore
SplineSet
223 -102 m 1,0,-1
 204 -102 l 1,1,-1
 229 0 l 1,2,-1
 218 0 l 1,3,-1
 218 48 l 1,4,-1
 261 48 l 1,5,-1
 261 -3 l 1,6,-1
 223 -102 l 1,0,-1
259 325 m 1,7,-1
 218 325 l 1,8,-1
 218 372 l 1,9,-1
 259 372 l 1,10,-1
 259 325 l 1,7,-1
EndSplineSet
Validated: 1
EndChar

StartChar: less
Encoding: 60 60 31
Width: 550
GlyphClass: 2
Flags: W
LayerCount: 2
Fore
SplineSet
472 456 m 1,0,-1
 472 430 l 1,1,-1
 103 272 l 1,2,-1
 474 116 l 1,3,-1
 474 88 l 1,4,-1
 75 261 l 1,5,-1
 75 285 l 1,6,-1
 472 456 l 1,0,-1
EndSplineSet
Validated: 1
EndChar

StartChar: equal
Encoding: 61 61 32
Width: 550
GlyphClass: 2
Flags: W
LayerCount: 2
Fore
SplineSet
75 331 m 1,0,-1
 75 354 l 1,1,-1
 474 354 l 1,2,-1
 474 331 l 1,3,-1
 75 331 l 1,0,-1
75 162 m 1,4,-1
 75 186 l 1,5,-1
 474 186 l 1,6,-1
 474 162 l 1,7,-1
 75 162 l 1,4,-1
EndSplineSet
Validated: 1
EndChar

StartChar: greater
Encoding: 62 62 33
Width: 550
GlyphClass: 2
Flags: W
LayerCount: 2
Fore
SplineSet
77 430 m 1,0,-1
 77 456 l 1,1,-1
 474 285 l 1,2,-1
 474 261 l 1,3,-1
 75 88 l 1,4,-1
 75 116 l 1,5,-1
 446 272 l 1,6,-1
 77 430 l 1,0,-1
EndSplineSet
Validated: 1
EndChar

StartChar: question
Encoding: 63 63 34
Width: 550
GlyphClass: 2
Flags: W
LayerCount: 2
Fore
SplineSet
119 540 m 1,0,-1
 94 545 l 1,1,2
 112 618 112 618 163.5 660 c 128,-1,3
 215 702 215 702 281 702 c 0,4,5
 358 702 358 702 406.5 654.5 c 128,-1,6
 455 607 455 607 455 534 c 0,7,8
 455 500 455 500 440.5 467 c 128,-1,9
 426 434 426 434 413 417.5 c 128,-1,10
 400 401 400 401 371 369 c 0,11,12
 346 341 346 341 333 325 c 128,-1,13
 320 309 320 309 306 280.5 c 128,-1,14
 292 252 292 252 290 223 c 2,15,-1
 290 149 l 1,16,-1
 265 149 l 1,17,-1
 265 225 l 2,18,19
 265 266 265 266 288 303.5 c 128,-1,20
 311 341 311 341 352 384 c 0,21,22
 431 468 431 468 431 529 c 0,23,24
 431 586 431 586 393.5 633 c 128,-1,25
 356 680 356 680 277 680 c 0,26,27
 215 680 215 680 170.5 634.5 c 128,-1,28
 126 589 126 589 119 540 c 1,0,-1
299 0 m 1,29,-1
 261 0 l 1,30,-1
 261 43 l 1,31,-1
 299 43 l 1,32,-1
 299 0 l 1,29,-1
EndSplineSet
Validated: 1
EndChar

StartChar: at
Encoding: 64 64 35
Width: 550
GlyphClass: 2
Flags: W
LayerCount: 2
Fore
SplineSet
273 500 m 0,0,1
 344 500 344 500 360 427 c 1,2,-1
 364 427 l 1,3,-1
 372 495 l 1,4,-1
 392 495 l 1,5,-1
 369 267 l 2,6,7
 367 249 367 249 367 241 c 0,8,9
 367 167 367 167 419 167 c 0,10,11
 454 167 454 167 485.5 228.5 c 128,-1,12
 517 290 517 290 517 404 c 0,13,14
 517 683 517 683 310 683 c 0,15,16
 181 683 181 683 110.5 564.5 c 128,-1,17
 40 446 40 446 40 230 c 0,18,19
 40 -24 40 -24 258 -24 c 0,20,21
 325 -24 325 -24 404 6 c 1,22,-1
 411 -14 l 1,23,24
 329 -45 329 -45 262 -45 c 0,25,26
 135 -45 135 -45 76.5 26.5 c 128,-1,27
 18 98 18 98 18 236 c 0,28,29
 18 457 18 457 96.5 580 c 128,-1,30
 175 703 175 703 312 703 c 0,31,32
 423 703 423 703 480 625.5 c 128,-1,33
 537 548 537 548 537 406 c 0,34,35
 537 270 537 270 500.5 207 c 128,-1,36
 464 144 464 144 415 144 c 0,37,38
 391 144 391 144 372.5 160 c 128,-1,39
 354 176 354 176 353 205 c 1,40,-1
 350 206 l 1,41,42
 314 126 314 126 239 126 c 0,43,44
 193 126 193 126 164 161.5 c 128,-1,45
 135 197 135 197 135 276 c 0,46,47
 135 363 135 363 170 431.5 c 128,-1,48
 205 500 205 500 273 500 c 0,0,1
159 275 m 0,49,50
 159 147 159 147 243 147 c 0,51,52
 300 147 300 147 326 205 c 128,-1,53
 352 263 352 263 352 345 c 0,54,55
 352 480 352 480 273 480 c 0,56,57
 241 480 241 480 217.5 460.5 c 128,-1,58
 194 441 194 441 182 409 c 128,-1,59
 170 377 170 377 164.5 344 c 128,-1,60
 159 311 159 311 159 275 c 0,49,50
EndSplineSet
Validated: 1
EndChar

StartChar: A
Encoding: 65 65 36
Width: 550
GlyphClass: 2
Flags: W
LayerCount: 2
Fore
SplineSet
506 0 m 1,0,-1
 446 175 l 1,1,-1
 103 175 l 1,2,-1
 42 0 l 1,3,-1
 14 0 l 1,4,-1
 257 696 l 1,5,-1
 293 696 l 1,6,-1
 536 0 l 1,7,-1
 506 0 l 1,0,-1
274 670 m 1,8,-1
 211 489 l 1,9,-1
 111 200 l 1,10,-1
 437 200 l 1,11,-1
 276 670 l 1,12,-1
 274 670 l 1,8,-1
EndSplineSet
Validated: 1
EndChar

StartChar: B
Encoding: 66 66 37
Width: 550
GlyphClass: 2
Flags: W
LayerCount: 2
Fore
SplineSet
325 0 m 2,0,-1
 55 0 l 1,1,-1
 55 696 l 1,2,-1
 299 696 l 2,3,4
 389 696 389 696 441 647.5 c 128,-1,5
 493 599 493 599 493 524 c 0,6,7
 493 476 493 476 463 428.5 c 128,-1,8
 433 381 433 381 370 365 c 1,9,-1
 370 364 l 1,10,11
 440 352 440 352 474.5 297.5 c 128,-1,12
 509 243 509 243 509 183 c 0,13,14
 509 101 509 101 456.5 50.5 c 128,-1,15
 404 0 404 0 325 0 c 2,0,-1
292 672 m 2,16,-1
 81 672 l 1,17,-1
 81 375 l 1,18,-1
 292 375 l 2,19,20
 370 375 370 375 418.5 415 c 128,-1,21
 467 455 467 455 467 524 c 0,22,23
 467 591 467 591 420 631.5 c 128,-1,24
 373 672 373 672 292 672 c 2,16,-1
305 351 m 2,25,-1
 81 351 l 1,26,-1
 81 24 l 1,27,-1
 307 24 l 2,28,29
 391 24 391 24 435.5 67.5 c 128,-1,30
 480 111 480 111 480 185 c 0,31,32
 480 255 480 255 434.5 303 c 128,-1,33
 389 351 389 351 305 351 c 2,25,-1
EndSplineSet
Validated: 1
EndChar

StartChar: C
Encoding: 67 67 38
Width: 550
GlyphClass: 2
Flags: W
LayerCount: 2
Fore
SplineSet
496 141 m 1,0,-1
 518 132 l 1,1,2
 492 69 492 69 434 31 c 128,-1,3
 376 -7 376 -7 301 -7 c 0,4,5
 179 -7 179 -7 119.5 53 c 128,-1,6
 60 113 60 113 60 223 c 2,7,-1
 60 478 l 2,8,9
 60 582 60 582 121.5 641.5 c 128,-1,10
 183 701 183 701 297 701 c 0,11,12
 370 701 370 701 424 668 c 128,-1,13
 478 635 478 635 505 579 c 1,14,-1
 484 566 l 1,15,16
 461 616 461 616 412 647 c 128,-1,17
 363 678 363 678 298 678 c 0,18,19
 195 678 195 678 140.5 625.5 c 128,-1,20
 86 573 86 573 86 476 c 2,21,-1
 86 218 l 2,22,23
 86 121 86 121 140 68.5 c 128,-1,24
 194 16 194 16 301 16 c 0,25,26
 367 16 367 16 417.5 49.5 c 128,-1,27
 468 83 468 83 496 141 c 1,0,-1
EndSplineSet
Validated: 1
EndChar

StartChar: D
Encoding: 68 68 39
Width: 550
GlyphClass: 2
Flags: W
LayerCount: 2
Fore
SplineSet
57 696 m 1,0,-1
 269 696 l 2,1,2
 429 696 429 696 487 572 c 0,3,4
 511 521 511 521 511 361 c 0,5,6
 511 187 511 187 488 132 c 0,7,8
 458 61 458 61 401.5 30.5 c 128,-1,9
 345 0 345 0 257 0 c 2,10,-1
 57 0 l 1,11,-1
 57 696 l 1,0,-1
485 271 m 2,12,-1
 485 419 l 2,13,14
 485 556 485 556 428 614 c 128,-1,15
 371 672 371 672 261 672 c 2,16,-1
 84 672 l 1,17,-1
 84 24 l 1,18,-1
 261 24 l 2,19,20
 485 24 485 24 485 271 c 2,12,-1
EndSplineSet
Validated: 1
EndChar

StartChar: E
Encoding: 69 69 40
Width: 550
GlyphClass: 2
Flags: W
LayerCount: 2
Fore
SplineSet
84 0 m 1,0,-1
 84 696 l 1,1,-1
 481 696 l 1,2,-1
 481 672 l 1,3,-1
 111 672 l 1,4,-1
 111 378 l 1,5,-1
 445 378 l 1,6,-1
 445 354 l 1,7,-1
 111 354 l 1,8,-1
 111 24 l 1,9,-1
 509 24 l 1,10,-1
 509 0 l 1,11,-1
 84 0 l 1,0,-1
EndSplineSet
Validated: 1
EndChar

StartChar: F
Encoding: 70 70 41
Width: 550
GlyphClass: 2
Flags: W
LayerCount: 2
Fore
SplineSet
115 672 m 1,0,-1
 115 365 l 1,1,-1
 447 365 l 1,2,-1
 447 342 l 1,3,-1
 115 342 l 1,4,-1
 115 0 l 1,5,-1
 88 0 l 1,6,-1
 88 696 l 1,7,-1
 493 696 l 1,8,-1
 493 672 l 1,9,-1
 115 672 l 1,0,-1
EndSplineSet
Validated: 1
EndChar

StartChar: G
Encoding: 71 71 42
Width: 550
GlyphClass: 2
Flags: W
LayerCount: 2
Fore
SplineSet
275 701 m 0,0,1
 348 701 348 701 402 668 c 128,-1,2
 456 635 456 635 483 579 c 1,3,4
 479 576 479 576 471.5 572 c 128,-1,5
 464 568 464 568 461 566 c 1,6,7
 438 616 438 616 389 647 c 128,-1,8
 340 678 340 678 276 678 c 0,9,10
 173 678 173 678 118.5 625.5 c 128,-1,11
 64 573 64 573 64 476 c 2,12,-1
 64 218 l 2,13,14
 64 122 64 122 119 68.5 c 128,-1,15
 174 15 174 15 276 15 c 0,16,17
 371 15 371 15 428.5 68 c 128,-1,18
 486 121 486 121 486 209 c 2,19,-1
 486 318 l 1,20,-1
 323 318 l 1,21,-1
 323 342 l 1,22,-1
 512 342 l 1,23,-1
 512 222 l 2,24,25
 512 115 512 115 448.5 54 c 128,-1,26
 385 -7 385 -7 275 -7 c 0,27,28
 158 -7 158 -7 98 53.5 c 128,-1,29
 38 114 38 114 38 223 c 2,30,-1
 38 478 l 2,31,32
 38 582 38 582 99.5 641.5 c 128,-1,33
 161 701 161 701 275 701 c 0,0,1
EndSplineSet
Validated: 1
EndChar

StartChar: H
Encoding: 72 72 43
Width: 550
GlyphClass: 2
Flags: W
LayerCount: 2
Fore
SplineSet
479 0 m 1,0,-1
 479 354 l 1,1,-1
 72 354 l 1,2,-1
 72 0 l 1,3,-1
 46 0 l 1,4,-1
 46 696 l 1,5,-1
 72 696 l 1,6,-1
 72 378 l 1,7,-1
 479 378 l 1,8,-1
 479 696 l 1,9,-1
 505 696 l 1,10,-1
 505 0 l 1,11,-1
 479 0 l 1,0,-1
EndSplineSet
Validated: 1
EndChar

StartChar: I
Encoding: 73 73 44
Width: 550
GlyphClass: 2
Flags: W
LayerCount: 2
Fore
SplineSet
222 673 m 5,0,-1
 222 696 l 5,1,-1
 328 696 l 5,2,-1
 328 673 l 5,3,-1
 288 673 l 5,4,-1
 288 23 l 5,5,-1
 328 23 l 5,6,-1
 328 0 l 5,7,-1
 222 0 l 5,8,-1
 222 23 l 5,9,-1
 262 23 l 5,10,-1
 262 673 l 5,11,-1
 222 673 l 5,0,-1
EndSplineSet
Validated: 1
EndChar

StartChar: J
Encoding: 74 74 45
Width: 550
GlyphClass: 2
Flags: W
LayerCount: 2
Fore
SplineSet
105 671 m 1,0,-1
 105 695 l 1,1,-1
 408 695 l 1,2,-1
 408 170 l 6,3,4
 408 73 408 73 354 33.5 c 128,-1,5
 300 -6 300 -6 210 -6 c 0,6,7
 174 -6 174 -6 132.5 8.5 c 128,-1,8
 91 23 91 23 64 45 c 1,9,-1
 80 65 l 1,10,11
 139 19 139 19 211 19 c 0,12,13
 382 19 382 19 382 189 c 6,14,-1
 382 671 l 1,15,-1
 105 671 l 1,0,-1
EndSplineSet
Validated: 1
EndChar

StartChar: K
Encoding: 75 75 46
Width: 550
GlyphClass: 2
Flags: W
LayerCount: 2
Fore
SplineSet
508 696 m 1,0,-1
 302 430 l 1,1,-1
 543 0 l 1,2,-1
 514 0 l 1,3,-1
 285 408 l 1,4,-1
 108 180 l 1,5,-1
 108 0 l 1,6,-1
 82 0 l 1,7,-1
 82 696 l 1,8,-1
 108 696 l 1,9,-1
 108 219 l 1,10,-1
 478 696 l 1,11,-1
 508 696 l 1,0,-1
EndSplineSet
Validated: 1
EndChar

StartChar: L
Encoding: 76 76 47
Width: 550
GlyphClass: 2
Flags: W
LayerCount: 2
Fore
SplineSet
138 0 m 1,0,-1
 138 696 l 1,1,-1
 164 696 l 1,2,-1
 164 24 l 1,3,-1
 521 24 l 1,4,-1
 521 0 l 1,5,-1
 138 0 l 1,0,-1
EndSplineSet
Validated: 1
EndChar

StartChar: M
Encoding: 77 77 48
Width: 550
GlyphClass: 2
Flags: W
LayerCount: 2
Fore
SplineSet
276 261 m 1,0,-1
 278 261 l 1,1,-1
 464 696 l 1,2,-1
 490 696 l 1,3,-1
 490 0 l 1,4,-1
 465 0 l 1,5,-1
 465 636 l 1,6,-1
 463 636 l 1,7,-1
 287 226 l 1,8,-1
 266 226 l 1,9,-1
 89 637 l 1,10,-1
 87 636 l 1,11,-1
 87 0 l 1,12,-1
 62 0 l 1,13,-1
 62 696 l 1,14,-1
 90 696 l 1,15,-1
 276 261 l 1,0,-1
EndSplineSet
Validated: 1
EndChar

StartChar: N
Encoding: 78 78 49
Width: 550
GlyphClass: 2
Flags: W
LayerCount: 2
Fore
SplineSet
454 0 m 1,0,-1
 94 653 l 1,1,-1
 94 0 l 1,2,-1
 68 0 l 1,3,-1
 68 696 l 1,4,-1
 97 696 l 1,5,-1
 457 42 l 1,6,-1
 457 696 l 1,7,-1
 483 696 l 1,8,-1
 483 0 l 1,9,-1
 454 0 l 1,0,-1
EndSplineSet
Validated: 1
EndChar

StartChar: O
Encoding: 79 79 50
Width: 550
GlyphClass: 2
Flags: W
LayerCount: 2
Fore
SplineSet
277 701 m 0,0,1
 385 701 385 701 447.5 644 c 128,-1,2
 510 587 510 587 510 478 c 2,3,-1
 510 223 l 2,4,5
 510 108 510 108 447.5 50.5 c 128,-1,6
 385 -7 385 -7 277 -7 c 0,7,8
 160 -7 160 -7 100 53.5 c 128,-1,9
 40 114 40 114 40 223 c 2,10,-1
 40 478 l 2,11,12
 40 582 40 582 101.5 641.5 c 128,-1,13
 163 701 163 701 277 701 c 0,0,1
278 676 m 0,14,15
 177 676 177 676 122 624 c 128,-1,16
 67 572 67 572 67 476 c 2,17,-1
 67 218 l 2,18,19
 67 124 67 124 122 70.5 c 128,-1,20
 177 17 177 17 278 17 c 0,21,22
 373 17 373 17 428 70 c 128,-1,23
 483 123 483 123 483 224 c 2,24,-1
 483 476 l 2,25,26
 483 572 483 572 428 624 c 128,-1,27
 373 676 373 676 278 676 c 0,14,15
EndSplineSet
Validated: 1
EndChar

StartChar: P
Encoding: 80 80 51
Width: 550
GlyphClass: 2
Flags: W
LayerCount: 2
Fore
SplineSet
80 696 m 1,0,-1
 295 696 l 2,1,2
 386 696 386 696 445 648 c 128,-1,3
 504 600 504 600 504 498 c 0,4,5
 504 423 504 423 452.5 365 c 128,-1,6
 401 307 401 307 303 307 c 2,7,-1
 107 307 l 1,8,-1
 107 0 l 1,9,-1
 80 0 l 1,10,-1
 80 696 l 1,0,-1
107 672 m 1,11,-1
 107 332 l 1,12,-1
 298 332 l 2,13,14
 387 332 387 332 431 381.5 c 128,-1,15
 475 431 475 431 475 501 c 0,16,17
 475 584 475 584 424 628 c 128,-1,18
 373 672 373 672 294 672 c 2,19,-1
 107 672 l 1,11,-1
EndSplineSet
Validated: 1
EndChar

StartChar: Q
Encoding: 81 81 52
Width: 550
GlyphClass: 2
Flags: W
LayerCount: 2
Fore
SplineSet
277 701 m 0,0,1
 385 701 385 701 447.5 644 c 128,-1,2
 510 587 510 587 510 478 c 2,3,-1
 510 223 l 2,4,5
 510 119 510 119 438 50 c 1,6,-1
 489 -7 l 1,7,-1
 471 -24 l 1,8,-1
 418 35 l 1,9,10
 360 -7 360 -7 277 -7 c 0,11,12
 160 -7 160 -7 100 53.5 c 128,-1,13
 40 114 40 114 40 223 c 2,14,-1
 40 478 l 2,15,16
 40 582 40 582 101.5 641.5 c 128,-1,17
 163 701 163 701 277 701 c 0,0,1
278 676 m 0,18,19
 177 676 177 676 122 624 c 128,-1,20
 67 572 67 572 67 476 c 2,21,-1
 67 218 l 2,22,23
 67 124 67 124 122 70.5 c 128,-1,24
 177 17 177 17 278 17 c 0,25,26
 351 17 351 17 400 55 c 1,27,-1
 300 167 l 1,28,-1
 318 184 l 1,29,-1
 419 71 l 1,30,31
 483 133 483 133 483 224 c 2,32,-1
 483 476 l 2,33,34
 483 572 483 572 428 624 c 128,-1,35
 373 676 373 676 278 676 c 0,18,19
EndSplineSet
Validated: 1
EndChar

StartChar: R
Encoding: 82 82 53
Width: 550
GlyphClass: 2
Flags: W
LayerCount: 2
Fore
SplineSet
465 0 m 1,0,-1
 297 331 l 1,1,-1
 102 331 l 1,2,-1
 102 0 l 1,3,-1
 76 0 l 1,4,-1
 76 696 l 1,5,-1
 306 696 l 2,6,7
 395 696 395 696 449 650 c 128,-1,8
 503 604 503 604 503 521 c 0,9,10
 503 444 503 444 455 392 c 128,-1,11
 407 340 407 340 325 332 c 1,12,-1
 494 0 l 1,13,-1
 465 0 l 1,0,-1
297 672 m 2,14,-1
 102 672 l 1,15,-1
 102 356 l 1,16,-1
 294 356 l 2,17,18
 374 356 374 356 424.5 399 c 128,-1,19
 475 442 475 442 475 521 c 0,20,21
 475 597 475 597 423 634.5 c 128,-1,22
 371 672 371 672 297 672 c 2,14,-1
EndSplineSet
Validated: 1
EndChar

StartChar: S
Encoding: 83 83 54
Width: 550
GlyphClass: 2
Flags: W
LayerCount: 2
Fore
SplineSet
263 -6 m 0,0,1
 134 -6 134 -6 34 59 c 1,2,-1
 49 81 l 1,3,4
 148 18 148 18 265 18 c 0,5,6
 356 18 356 18 414 59 c 128,-1,7
 472 100 472 100 472 176 c 0,8,9
 472 213 472 213 458.5 242 c 128,-1,10
 445 271 445 271 427 288 c 128,-1,11
 409 305 409 305 378 319 c 128,-1,12
 347 333 347 333 326 339 c 128,-1,13
 305 345 305 345 272 352 c 0,14,15
 234 360 234 360 211.5 366.5 c 128,-1,16
 189 373 189 373 158.5 386.5 c 128,-1,17
 128 400 128 400 111 416.5 c 128,-1,18
 94 433 94 433 82 460 c 128,-1,19
 70 487 70 487 70 523 c 0,20,21
 70 604 70 604 125.5 653 c 128,-1,22
 181 702 181 702 280 702 c 0,23,24
 383 702 383 702 467 656 c 1,25,-1
 455 633 l 1,26,27
 370 678 370 678 279 678 c 0,28,29
 204 678 204 678 150.5 640 c 128,-1,30
 97 602 97 602 97 521 c 0,31,32
 97 492 97 492 108.5 469 c 128,-1,33
 120 446 120 446 133.5 433 c 128,-1,34
 147 420 147 420 177.5 407.5 c 128,-1,35
 208 395 208 395 224 390.5 c 128,-1,36
 240 386 240 386 279 377 c 0,37,38
 321 367 321 367 346 359 c 128,-1,39
 371 351 371 351 404 335 c 128,-1,40
 437 319 437 319 455 300 c 128,-1,41
 473 281 473 281 486 249 c 128,-1,42
 499 217 499 217 499 176 c 0,43,44
 499 93 499 93 436.5 43.5 c 128,-1,45
 374 -6 374 -6 263 -6 c 0,0,1
EndSplineSet
Validated: 1
EndChar

StartChar: T
Encoding: 84 84 55
Width: 550
GlyphClass: 2
Flags: W
LayerCount: 2
Fore
SplineSet
289 672 m 1,0,-1
 289 0 l 1,1,-1
 264 0 l 1,2,-1
 264 672 l 1,3,-1
 49 672 l 1,4,-1
 49 696 l 1,5,-1
 501 696 l 1,6,-1
 501 672 l 1,7,-1
 289 672 l 1,0,-1
EndSplineSet
Validated: 1
EndChar

StartChar: U
Encoding: 85 85 56
Width: 550
GlyphClass: 2
Flags: W
LayerCount: 2
Fore
SplineSet
275 -7 m 0,0,1
 173 -7 173 -7 112 53.5 c 128,-1,2
 51 114 51 114 51 224 c 2,3,-1
 51 696 l 1,4,-1
 77 696 l 1,5,-1
 77 236 l 2,6,7
 77 133 77 133 128.5 75 c 128,-1,8
 180 17 180 17 275 17 c 0,9,10
 368 17 368 17 420 71 c 128,-1,11
 472 125 472 125 472 225 c 2,12,-1
 472 696 l 1,13,-1
 499 696 l 1,14,-1
 499 214 l 2,15,16
 499 112 499 112 438.5 52.5 c 128,-1,17
 378 -7 378 -7 275 -7 c 0,0,1
EndSplineSet
Validated: 1
EndChar

StartChar: V
Encoding: 86 86 57
Width: 550
GlyphClass: 2
Flags: W
LayerCount: 2
Fore
SplineSet
289 0 m 1,0,-1
 261 0 l 1,1,-1
 43 696 l 1,2,-1
 68 696 l 1,3,-1
 275 34 l 1,4,-1
 276 34 l 1,5,-1
 482 696 l 1,6,-1
 507 696 l 1,7,-1
 289 0 l 1,0,-1
EndSplineSet
Validated: 1
EndChar

StartChar: W
Encoding: 87 87 58
Width: 550
GlyphClass: 2
Flags: W
LayerCount: 2
Fore
SplineSet
278 437 m 1,0,-1
 275 437 l 1,1,-1
 132 0 l 1,2,-1
 107 0 l 1,3,-1
 26 696 l 1,4,-1
 51 696 l 1,5,-1
 124 59 l 1,6,-1
 125 59 l 1,7,-1
 264 481 l 1,8,-1
 290 481 l 1,9,-1
 428 59 l 1,10,-1
 429 59 l 1,11,-1
 502 696 l 1,12,-1
 527 696 l 1,13,-1
 446 0 l 1,14,-1
 421 0 l 1,15,-1
 278 437 l 1,0,-1
EndSplineSet
Validated: 1
EndChar

StartChar: X
Encoding: 88 88 59
Width: 550
GlyphClass: 2
Flags: W
LayerCount: 2
Fore
SplineSet
473 0 m 1,0,-1
 275 333 l 1,1,-1
 77 0 l 1,2,-1
 48 0 l 1,3,-1
 261 357 l 1,4,-1
 63 696 l 1,5,-1
 92 696 l 1,6,-1
 275 382 l 1,7,-1
 458 696 l 1,8,-1
 487 696 l 1,9,-1
 289 357 l 1,10,-1
 502 0 l 1,11,-1
 473 0 l 1,0,-1
EndSplineSet
Validated: 1
EndChar

StartChar: Y
Encoding: 89 89 60
Width: 550
GlyphClass: 2
Flags: W
LayerCount: 2
Fore
SplineSet
288 289 m 1,0,-1
 288 0 l 1,1,-1
 263 0 l 1,2,-1
 263 289 l 1,3,-1
 55 696 l 1,4,-1
 82 696 l 1,5,-1
 276 315 l 1,6,-1
 469 696 l 1,7,-1
 495 696 l 1,8,-1
 288 289 l 1,0,-1
EndSplineSet
Validated: 1
EndChar

StartChar: Z
Encoding: 90 90 61
Width: 550
GlyphClass: 2
Flags: W
LayerCount: 2
Fore
SplineSet
66 0 m 1,0,-1
 66 25 l 1,1,-1
 453 672 l 1,2,-1
 88 672 l 1,3,-1
 88 696 l 1,4,-1
 481 696 l 1,5,-1
 481 671 l 1,6,-1
 95 24 l 1,7,-1
 482 24 l 1,8,-1
 482 0 l 1,9,-1
 66 0 l 1,0,-1
EndSplineSet
Validated: 1
EndChar

StartChar: bracketleft
Encoding: 91 91 62
Width: 550
GlyphClass: 2
Flags: W
LayerCount: 2
Fore
SplineSet
211 -111 m 1,0,-1
 211 696 l 1,1,-1
 339 696 l 1,2,-1
 339 672 l 1,3,-1
 238 672 l 1,4,-1
 238 -88 l 1,5,-1
 339 -88 l 1,6,-1
 339 -111 l 1,7,-1
 211 -111 l 1,0,-1
EndSplineSet
Validated: 1
EndChar

StartChar: backslash
Encoding: 92 92 63
Width: 550
GlyphClass: 2
Flags: W
LayerCount: 2
Fore
SplineSet
500 -17 m 1,0,-1
 475 -17 l 1,1,-1
 50 714 l 1,2,-1
 77 714 l 1,3,-1
 500 -17 l 1,0,-1
EndSplineSet
Validated: 1
EndChar

StartChar: bracketright
Encoding: 93 93 64
Width: 550
GlyphClass: 2
Flags: W
LayerCount: 2
Fore
SplineSet
211 -111 m 1,0,-1
 211 -88 l 1,1,-1
 312 -88 l 1,2,-1
 312 672 l 1,3,-1
 211 672 l 1,4,-1
 211 696 l 1,5,-1
 338 696 l 1,6,-1
 338 -111 l 1,7,-1
 211 -111 l 1,0,-1
EndSplineSet
Validated: 1
EndChar

StartChar: asciicircum
Encoding: 94 94 65
Width: 550
GlyphClass: 2
Flags: W
LayerCount: 2
Fore
SplineSet
441 337 m 1,0,-1
 415 337 l 1,1,-1
 275 664 l 1,2,-1
 137 335 l 1,3,-1
 109 335 l 1,4,-1
 264 692 l 1,5,-1
 288 692 l 1,6,-1
 441 337 l 1,0,-1
EndSplineSet
Validated: 1
EndChar

StartChar: underscore
Encoding: 95 95 66
Width: 550
GlyphClass: 2
Flags: W
LayerCount: 2
Fore
SplineSet
30 -96 m 1,0,-1
 30 -70 l 1,1,-1
 520 -70 l 1,2,-1
 520 -96 l 1,3,-1
 30 -96 l 1,0,-1
EndSplineSet
Validated: 1
EndChar

StartChar: grave
Encoding: 96 96 67
Width: 550
GlyphClass: 2
Flags: W
LayerCount: 2
Fore
SplineSet
332 587 m 1,0,-1
 317 579 l 1,1,-1
 218 713 l 1,2,-1
 250 729 l 1,3,-1
 332 587 l 1,0,-1
EndSplineSet
Validated: 1
EndChar

StartChar: a
Encoding: 97 97 68
Width: 550
GlyphClass: 2
Flags: W
LayerCount: 2
Fore
SplineSet
415 60 m 1,0,-1
 413 60 l 1,1,2
 371 -7 371 -7 234 -7 c 0,3,4
 162 -7 162 -7 111 28 c 128,-1,5
 60 63 60 63 60 133 c 0,6,7
 60 196 60 196 101.5 232 c 128,-1,8
 143 268 143 268 220 268 c 2,9,-1
 415 268 l 1,10,-1
 415 346 l 2,11,12
 415 412 415 412 379 445.5 c 128,-1,13
 343 479 343 479 257 479 c 0,14,15
 167 479 167 479 109 428 c 1,16,-1
 93 445 l 1,17,18
 155 501 155 501 260 501 c 0,19,20
 344 501 344 501 392 468.5 c 128,-1,21
 440 436 440 436 440 351 c 2,22,-1
 440 0 l 1,23,-1
 415 0 l 1,24,-1
 415 60 l 1,0,-1
415 246 m 1,25,-1
 225 246 l 2,26,27
 85 246 85 246 85 133 c 0,28,29
 85 76 85 76 126.5 45.5 c 128,-1,30
 168 15 168 15 238 15 c 0,31,32
 277 15 277 15 313.5 22.5 c 128,-1,33
 350 30 350 30 382.5 57 c 128,-1,34
 415 84 415 84 415 127 c 2,35,-1
 415 246 l 1,25,-1
EndSplineSet
Validated: 1
EndChar

StartChar: b
Encoding: 98 98 69
Width: 550
GlyphClass: 2
Flags: W
LayerCount: 2
Fore
SplineSet
281 -7 m 0,0,1
 166 -7 166 -7 118 101 c 1,2,-1
 117 101 l 1,3,-1
 117 0 l 1,4,-1
 92 0 l 1,5,-1
 92 721 l 1,6,-1
 117 721 l 1,7,-1
 117 390 l 1,8,-1
 118 390 l 1,9,10
 168 500 168 500 279 500 c 0,11,12
 469 500 469 500 469 251 c 0,13,14
 469 134 469 134 424 63.5 c 128,-1,15
 379 -7 379 -7 281 -7 c 0,0,1
278 480 m 0,16,17
 196 480 196 480 156.5 415 c 128,-1,18
 117 350 117 350 117 244 c 0,19,20
 117 213 117 213 120.5 185 c 128,-1,21
 124 157 124 157 134.5 124.5 c 128,-1,22
 145 92 145 92 161.5 68.5 c 128,-1,23
 178 45 178 45 208 29.5 c 128,-1,24
 238 14 238 14 278 14 c 0,25,26
 442 14 442 14 442 247 c 128,-1,27
 442 480 442 480 278 480 c 0,16,17
EndSplineSet
Validated: 1
EndChar

StartChar: c
Encoding: 99 99 70
Width: 550
GlyphClass: 2
Flags: W
LayerCount: 2
Fore
SplineSet
324 -7 m 0,0,1
 226 -7 226 -7 167 53.5 c 128,-1,2
 108 114 108 114 108 247 c 0,3,4
 108 378 108 378 169.5 439.5 c 128,-1,5
 231 501 231 501 323 501 c 0,6,7
 402 501 402 501 462 454 c 1,8,-1
 447 435 l 1,9,10
 392 480 392 480 326 480 c 0,11,12
 230 480 230 480 181.5 419.5 c 128,-1,13
 133 359 133 359 133 247 c 0,14,15
 133 14 133 14 327 14 c 0,16,17
 359 14 359 14 395.5 27.5 c 128,-1,18
 432 41 432 41 454 58 c 1,19,-1
 467 40 l 1,20,21
 407 -7 407 -7 324 -7 c 0,0,1
EndSplineSet
Validated: 1
EndChar

StartChar: d
Encoding: 100 100 71
Width: 550
GlyphClass: 2
Flags: W
LayerCount: 2
Fore
SplineSet
453 0 m 1,0,-1
 429 0 l 1,1,-1
 429 102 l 1,2,-1
 428 102 l 1,3,4
 411 66 411 66 389.5 43 c 128,-1,5
 368 20 368 20 344 10 c 128,-1,6
 320 0 320 0 301 -3.5 c 128,-1,7
 282 -7 282 -7 258 -7 c 0,8,9
 77 -7 77 -7 77 251 c 0,10,11
 77 290 77 290 82 323.5 c 128,-1,12
 87 357 87 357 100 390.5 c 128,-1,13
 113 424 113 424 134 447.5 c 128,-1,14
 155 471 155 471 189 485.5 c 128,-1,15
 223 500 223 500 267 500 c 0,16,17
 331 500 331 500 367.5 471 c 128,-1,18
 404 442 404 442 428 395 c 1,19,-1
 429 395 l 1,20,-1
 429 721 l 1,21,-1
 453 721 l 1,22,-1
 453 0 l 1,0,-1
429 244 m 0,23,24
 429 349 429 349 389 414 c 128,-1,25
 349 479 349 479 268 479 c 0,26,27
 103 479 103 479 103 247 c 0,28,29
 103 213 103 213 105.5 185.5 c 128,-1,30
 108 158 108 158 117.5 124 c 128,-1,31
 127 90 127 90 143.5 67.5 c 128,-1,32
 160 45 160 45 191 29.5 c 128,-1,33
 222 14 222 14 264 14 c 0,34,35
 313 14 313 14 347.5 36.5 c 128,-1,36
 382 59 382 59 398.5 96 c 128,-1,37
 415 133 415 133 422 169 c 128,-1,38
 429 205 429 205 429 244 c 0,23,24
EndSplineSet
Validated: 1
EndChar

StartChar: e
Encoding: 101 101 72
Width: 550
GlyphClass: 2
Flags: W
LayerCount: 2
Fore
SplineSet
103 251 m 1,0,1
 103 247 103 247 103 243 c 0,2,3
 103 180 103 180 118 132 c 0,4,5
 134 82 134 82 177 47.5 c 128,-1,6
 220 13 220 13 289 13 c 0,7,8
 354 13 354 13 411 52 c 1,9,-1
 426 34 l 1,10,11
 367 -7 367 -7 291 -7 c 0,12,13
 80 -7 80 -7 80 245 c 0,14,15
 80 318 80 318 97.5 370.5 c 128,-1,16
 115 423 115 423 145 450 c 128,-1,17
 175 477 175 477 207.5 489 c 128,-1,18
 240 501 240 501 277 501 c 0,19,20
 376 501 376 501 422.5 436.5 c 128,-1,21
 469 372 469 372 469 271 c 2,22,-1
 469 251 l 1,23,-1
 103 251 l 1,0,1
278 480 m 0,24,25
 199 480 199 480 154.5 426 c 128,-1,26
 110 372 110 372 105 272 c 1,27,-1
 443 272 l 1,28,29
 439 376 439 376 396.5 428 c 128,-1,30
 354 480 354 480 278 480 c 0,24,25
EndSplineSet
Validated: 1
EndChar

StartChar: f
Encoding: 102 102 73
Width: 550
GlyphClass: 2
Flags: W
LayerCount: 2
Fore
SplineSet
65 472 m 1,0,-1
 65 496 l 1,1,-1
 243 496 l 1,2,-1
 243 575 l 2,3,4
 243 663 243 663 284.5 699.5 c 128,-1,5
 326 736 326 736 402 736 c 0,6,7
 453 736 453 736 506 716 c 1,8,-1
 497 692 l 1,9,10
 447 710 447 710 396 710 c 0,11,12
 268 710 268 710 268 580 c 2,13,-1
 268 496 l 1,14,-1
 491 496 l 1,15,-1
 491 472 l 1,16,-1
 268 472 l 1,17,-1
 268 0 l 1,18,-1
 243 0 l 1,19,-1
 243 472 l 1,20,-1
 65 472 l 1,0,-1
EndSplineSet
Validated: 1
EndChar

StartChar: g
Encoding: 103 103 74
Width: 550
GlyphClass: 2
Flags: W
LayerCount: 2
Fore
SplineSet
453 495 m 1,0,-1
 453 3 l 2,1,2
 453 -104 453 -104 396 -154 c 128,-1,3
 339 -204 339 -204 249 -204 c 0,4,5
 177 -204 177 -204 123 -163 c 1,6,-1
 138 -144 l 1,7,8
 192 -182 192 -182 249 -182 c 0,9,10
 332 -182 332 -182 380.5 -137 c 128,-1,11
 429 -92 429 -92 429 -10 c 2,12,-1
 429 107 l 1,13,-1
 428 107 l 1,14,15
 377 -5 377 -5 264 -5 c 0,16,17
 76 -5 76 -5 76 247 c 0,18,19
 76 360 76 360 122 430.5 c 128,-1,20
 168 501 168 501 265 501 c 0,21,22
 318 501 318 501 358.5 479 c 128,-1,23
 399 457 399 457 428 396 c 1,24,-1
 429 396 l 1,25,-1
 429 495 l 1,26,-1
 453 495 l 1,0,-1
429 252 m 0,27,28
 429 290 429 290 422 326.5 c 128,-1,29
 415 363 415 363 398.5 399 c 128,-1,30
 382 435 382 435 348 457 c 128,-1,31
 314 479 314 479 268 479 c 0,32,33
 102 479 102 479 102 247 c 0,34,35
 102 16 102 16 268 16 c 0,36,37
 348 16 348 16 388.5 82 c 128,-1,38
 429 148 429 148 429 252 c 0,27,28
EndSplineSet
Validated: 1
EndChar

StartChar: h
Encoding: 104 104 75
Width: 550
GlyphClass: 2
Flags: W
LayerCount: 2
Fore
SplineSet
438 0 m 1,0,-1
 438 327 l 2,1,2
 438 401 438 401 397.5 439.5 c 128,-1,3
 357 478 357 478 284 478 c 0,4,5
 212 478 212 478 162.5 428 c 128,-1,6
 113 378 113 378 113 302 c 2,7,-1
 113 0 l 1,8,-1
 89 0 l 1,9,-1
 89 721 l 1,10,-1
 113 721 l 1,11,-1
 113 398 l 1,12,-1
 115 398 l 1,13,14
 138 449 138 449 186.5 474.5 c 128,-1,15
 235 500 235 500 286 500 c 0,16,17
 373 500 373 500 417.5 456.5 c 128,-1,18
 462 413 462 413 462 334 c 2,19,-1
 462 0 l 1,20,-1
 438 0 l 1,0,-1
EndSplineSet
Validated: 1
EndChar

StartChar: i
Encoding: 105 105 76
Width: 550
GlyphClass: 2
Flags: W
LayerCount: 2
Fore
SplineSet
198 0 m 5,0,-1
 198 24 l 5,1,-1
 260 24 l 5,2,-1
 260 471 l 5,3,-1
 197 471 l 5,4,-1
 197 495 l 5,5,-1
 285 495 l 5,6,-1
 285 24 l 5,7,-1
 344 24 l 5,8,-1
 344 0 l 5,9,-1
 198 0 l 5,0,-1
253 665 m 5,10,-1
 253 697 l 5,11,-1
 286 697 l 5,12,-1
 286 665 l 5,13,-1
 253 665 l 5,10,-1
EndSplineSet
Validated: 1
EndChar

StartChar: j
Encoding: 106 106 77
Width: 550
GlyphClass: 2
Flags: W
LayerCount: 2
Fore
SplineSet
305 495 m 5,0,-1
 305 -61 l 6,1,2
 305 -122 305 -122 271.5 -163 c 132,-1,3
 238 -204 238 -204 163 -204 c 6,4,-1
 130 -204 l 5,5,-1
 130 -181 l 5,6,-1
 163 -181 l 6,7,8
 280 -181 280 -181 280 -56 c 6,9,-1
 280 472 l 5,10,-1
 200 472 l 5,11,-1
 200 495 l 5,12,-1
 305 495 l 5,0,-1
275 666 m 5,13,-1
 275 697 l 5,14,-1
 309 697 l 5,15,-1
 309 666 l 5,16,-1
 275 666 l 5,13,-1
EndSplineSet
Validated: 1
EndChar

StartChar: k
Encoding: 107 107 78
Width: 550
GlyphClass: 2
Flags: W
LayerCount: 2
Fore
SplineSet
465 495 m 1,0,-1
 295 309 l 1,1,-1
 499 0 l 1,2,-1
 472 0 l 1,3,-1
 278 291 l 1,4,-1
 148 149 l 1,5,-1
 148 0 l 1,6,-1
 123 0 l 1,7,-1
 123 721 l 1,8,-1
 148 721 l 1,9,-1
 148 183 l 1,10,-1
 435 495 l 1,11,-1
 465 495 l 1,0,-1
EndSplineSet
Validated: 1
EndChar

StartChar: l
Encoding: 108 108 79
Width: 550
GlyphClass: 2
Flags: W
LayerCount: 2
Fore
SplineSet
240 122 m 5,0,-1
 240 146 l 5,1,-1
 240 146 l 5,2,-1
 240 698 l 5,3,-1
 233 698 l 5,4,-1
 233 722 l 5,5,-1
 265 722 l 5,6,-1
 265 124 l 5,7,-1
 265 124.495117188 l 4,8,9
 264 25 264 25 374 24 c 5,10,-1
 374 0 l 5,11,-1
 365 1.1943359375 l 4,12,13
 240 0 240 0 240 122 c 5,0,-1
EndSplineSet
Validated: 37
EndChar

StartChar: m
Encoding: 109 109 80
Width: 550
GlyphClass: 2
Flags: W
LayerCount: 2
Fore
SplineSet
392 500 m 0,0,1
 451 500 451 500 476.5 461.5 c 128,-1,2
 502 423 502 423 502 364 c 2,3,-1
 502 0 l 1,4,-1
 477 0 l 1,5,-1
 477 367 l 2,6,7
 477 423 477 423 454 450.5 c 128,-1,8
 431 478 431 478 393 478 c 0,9,10
 346 478 346 478 316.5 439 c 128,-1,11
 287 400 287 400 287 326 c 2,12,-1
 287 0 l 1,13,-1
 263 0 l 1,14,-1
 263 347 l 2,15,16
 263 478 263 478 174 478 c 0,17,18
 132 478 132 478 103 438.5 c 128,-1,19
 74 399 74 399 74 326 c 2,20,-1
 74 0 l 1,21,-1
 50 0 l 1,22,-1
 50 495 l 1,23,-1
 74 495 l 1,24,-1
 74 430 l 1,25,-1
 76 430 l 1,26,27
 90 462 90 462 116.5 481 c 128,-1,28
 143 500 143 500 175 500 c 0,29,30
 263 500 263 500 277 411 c 1,31,-1
 280 411 l 1,32,33
 291 455 291 455 323.5 477.5 c 128,-1,34
 356 500 356 500 392 500 c 0,0,1
EndSplineSet
Validated: 1
EndChar

StartChar: n
Encoding: 110 110 81
Width: 550
GlyphClass: 2
Flags: W
LayerCount: 2
Fore
SplineSet
437 0 m 1,0,-1
 437 327 l 2,1,2
 437 401 437 401 396.5 439.5 c 128,-1,3
 356 478 356 478 283 478 c 0,4,5
 211 478 211 478 161.5 428 c 128,-1,6
 112 378 112 378 112 302 c 2,7,-1
 112 0 l 1,8,-1
 88 0 l 1,9,-1
 88 495 l 1,10,-1
 112 495 l 1,11,-1
 112 398 l 1,12,-1
 114 398 l 1,13,14
 137 449 137 449 185.5 474.5 c 128,-1,15
 234 500 234 500 285 500 c 0,16,17
 372 500 372 500 416.5 456.5 c 128,-1,18
 461 413 461 413 461 334 c 2,19,-1
 461 0 l 1,20,-1
 437 0 l 1,0,-1
EndSplineSet
Validated: 1
EndChar

StartChar: o
Encoding: 111 111 82
Width: 550
GlyphClass: 2
Flags: W
LayerCount: 2
Fore
SplineSet
277 501 m 0,0,1
 385 501 385 501 436 422 c 0,2,3
 472 365 472 365 472 244 c 0,4,5
 472 111 472 111 415 49 c 0,6,7
 365 -6 365 -6 272 -6 c 0,8,9
 187 -6 187 -6 140 41 c 0,10,11
 77 104 77 104 77 251 c 0,12,13
 77 394 77 394 147 455 c 0,14,15
 200 501 200 501 277 501 c 0,0,1
276 479 m 0,16,17
 203 479 203 479 157 431 c 0,18,19
 102 374 102 374 102 248 c 0,20,21
 102 115 102 115 158 59 c 0,22,23
 202 15 202 15 275 15 c 0,24,25
 350 15 350 15 396 63 c 0,26,27
 447 117 447 117 447 245 c 0,28,29
 447 363 447 363 413 411 c 0,30,31
 366 479 366 479 276 479 c 0,16,17
EndSplineSet
Validated: 1
EndChar

StartChar: p
Encoding: 112 112 83
Width: 550
GlyphClass: 2
Flags: W
LayerCount: 2
Fore
SplineSet
89 495 m 1,0,-1
 114 495 l 1,1,-1
 114 398 l 1,2,-1
 115 398 l 1,3,4
 166 503 166 503 281 503 c 0,5,6
 382 503 382 503 423.5 434 c 128,-1,7
 465 365 465 365 465 245 c 0,8,9
 465 196 465 196 455.5 154.5 c 128,-1,10
 446 113 446 113 425.5 76 c 128,-1,11
 405 39 405 39 366.5 17.5 c 128,-1,12
 328 -4 328 -4 275 -4 c 0,13,14
 166 -4 166 -4 115 101 c 1,15,-1
 114 101 l 1,16,-1
 114 -200 l 1,17,-1
 89 -200 l 1,18,-1
 89 495 l 1,0,-1
114 252 m 0,19,20
 114 147 114 147 153.5 82 c 128,-1,21
 193 17 193 17 275 17 c 0,22,23
 440 17 440 17 440 249 c 0,24,25
 440 283 440 283 437.5 310.5 c 128,-1,26
 435 338 435 338 425.5 372 c 128,-1,27
 416 406 416 406 399.5 428.5 c 128,-1,28
 383 451 383 451 353 466.5 c 128,-1,29
 323 482 323 482 281 482 c 0,30,31
 232 482 232 482 197 459.5 c 128,-1,32
 162 437 162 437 145 400 c 128,-1,33
 128 363 128 363 121 327 c 128,-1,34
 114 291 114 291 114 252 c 0,19,20
EndSplineSet
Validated: 1
EndChar

StartChar: q
Encoding: 113 113 84
Width: 550
GlyphClass: 2
Flags: W
LayerCount: 2
Fore
SplineSet
456 -200 m 1,0,-1
 431 -200 l 1,1,-1
 431 110 l 1,2,-1
 430 110 l 1,3,4
 386 -4 386 -4 266 -4 c 0,5,6
 212 -4 212 -4 173.5 18 c 128,-1,7
 135 40 135 40 116 78 c 128,-1,8
 97 116 97 116 88.5 156.5 c 128,-1,9
 80 197 80 197 80 245 c 0,10,11
 80 360 80 360 124.5 431.5 c 128,-1,12
 169 503 169 503 271 503 c 0,13,14
 388 503 388 503 430 393 c 1,15,-1
 431 393 l 1,16,-1
 431 495 l 1,17,-1
 456 495 l 1,18,-1
 456 -200 l 1,0,-1
431 252 m 0,19,20
 431 291 431 291 424 327.5 c 128,-1,21
 417 364 417 364 400.5 400.5 c 128,-1,22
 384 437 384 437 350 459.5 c 128,-1,23
 316 482 316 482 270 482 c 0,24,25
 220 482 220 482 185.5 460 c 128,-1,26
 151 438 151 438 134.5 400.5 c 128,-1,27
 118 363 118 363 111.5 326.5 c 128,-1,28
 105 290 105 290 105 249 c 0,29,30
 105 206 105 206 112 169 c 128,-1,31
 119 132 119 132 135.5 96 c 128,-1,32
 152 60 152 60 186 39 c 128,-1,33
 220 18 220 18 269 18 c 0,34,35
 348 18 348 18 389.5 83 c 128,-1,36
 431 148 431 148 431 252 c 0,19,20
EndSplineSet
Validated: 1
EndChar

StartChar: r
Encoding: 114 114 85
Width: 550
GlyphClass: 2
Flags: W
LayerCount: 2
Fore
SplineSet
479 466 m 1,0,-1
 468 444 l 1,1,2
 417 476 417 476 360 476 c 0,3,4
 290 476 290 476 246 430 c 128,-1,5
 202 384 202 384 202 303 c 2,6,-1
 202 0 l 1,7,-1
 178 0 l 1,8,-1
 178 495 l 1,9,-1
 202 495 l 1,10,-1
 202 402 l 1,11,-1
 204 402 l 1,12,13
 248 500 248 500 362 500 c 0,14,15
 423 500 423 500 479 466 c 1,0,-1
EndSplineSet
Validated: 1
EndChar

StartChar: s
Encoding: 115 115 86
Width: 550
GlyphClass: 2
Flags: W
LayerCount: 2
Fore
SplineSet
454 128 m 0,0,1
 454 69 454 69 405.5 31 c 128,-1,2
 357 -7 357 -7 264 -7 c 0,3,4
 152 -7 152 -7 76 48 c 1,5,-1
 90 68 l 1,6,7
 160 15 160 15 273 15 c 0,8,9
 300 15 300 15 325 20.5 c 128,-1,10
 350 26 350 26 374 38 c 128,-1,11
 398 50 398 50 413 74 c 128,-1,12
 428 98 428 98 428 131 c 0,13,14
 428 221 428 221 279 245 c 0,15,16
 237 252 237 252 210 259.5 c 128,-1,17
 183 267 183 267 156.5 280.5 c 128,-1,18
 130 294 130 294 117 316 c 128,-1,19
 104 338 104 338 104 369 c 0,20,21
 104 431 104 431 150 466 c 128,-1,22
 196 501 196 501 281 501 c 0,23,24
 373 501 373 501 437 461 c 1,25,-1
 423 440 l 1,26,27
 360 479 360 479 285 479 c 0,28,29
 213 479 213 479 171.5 452.5 c 128,-1,30
 130 426 130 426 130 372 c 0,31,32
 130 351 130 351 138.5 334.5 c 128,-1,33
 147 318 147 318 158.5 308.5 c 128,-1,34
 170 299 170 299 192 290.5 c 128,-1,35
 214 282 214 282 231 278.5 c 128,-1,36
 248 275 248 275 277 269 c 0,37,38
 317 262 317 262 342 254 c 128,-1,39
 367 246 367 246 396 231 c 128,-1,40
 425 216 425 216 439.5 190 c 128,-1,41
 454 164 454 164 454 128 c 0,0,1
EndSplineSet
Validated: 1
EndChar

StartChar: t
Encoding: 116 116 87
Width: 550
GlyphClass: 2
Flags: W
LayerCount: 2
Fore
SplineSet
176 473 m 1,0,-1
 139 473 l 1,1,-1
 139 495 l 1,2,-1
 176 495 l 1,3,-1
 176 635 l 1,4,-1
 201 635 l 1,5,-1
 201 495 l 1,6,-1
 424 495 l 1,7,-1
 424 473 l 1,8,-1
 201 473 l 1,9,-1
 201 159 l 2,10,11
 201 95 201 95 227.5 60 c 128,-1,12
 254 25 254 25 321 25 c 0,13,14
 383 25 383 25 427 57 c 1,15,-1
 441 35 l 1,16,17
 419 20 419 20 384.5 10 c 128,-1,18
 350 0 350 0 321 0 c 0,19,20
 252 0 252 0 214 35 c 128,-1,21
 176 70 176 70 176 157 c 2,22,-1
 176 473 l 1,0,-1
EndSplineSet
Validated: 1
EndChar

StartChar: u
Encoding: 117 117 88
Width: 550
GlyphClass: 2
Flags: W
LayerCount: 2
Fore
SplineSet
462 0 m 1,0,-1
 438 0 l 1,1,-1
 438 92 l 1,2,-1
 436 92 l 1,3,4
 415 44 415 44 365 19.5 c 128,-1,5
 315 -5 315 -5 265 -5 c 0,6,7
 181 -5 181 -5 135 42 c 128,-1,8
 89 89 89 89 89 167 c 2,9,-1
 89 495 l 1,10,-1
 114 495 l 1,11,-1
 114 169 l 2,12,13
 114 96 114 96 156 56.5 c 128,-1,14
 198 17 198 17 266 17 c 0,15,16
 339 17 339 17 389 65.5 c 128,-1,17
 439 114 439 114 439 190 c 2,18,-1
 439 495 l 1,19,-1
 462 495 l 1,20,-1
 462 0 l 1,0,-1
EndSplineSet
Validated: 1
EndChar

StartChar: v
Encoding: 118 118 89
Width: 550
GlyphClass: 2
Flags: W
LayerCount: 2
Fore
SplineSet
471 494 m 1,0,-1
 289 0 l 1,1,-1
 262 0 l 1,2,-1
 79 494 l 1,3,-1
 107 494 l 1,4,-1
 275 34 l 1,5,-1
 277 34 l 1,6,-1
 443 494 l 1,7,-1
 471 494 l 1,0,-1
EndSplineSet
Validated: 1
EndChar

StartChar: w
Encoding: 119 119 90
Width: 550
GlyphClass: 2
Flags: W
LayerCount: 2
Fore
SplineSet
513 495 m 1,0,-1
 421 0 l 1,1,-1
 393 0 l 1,2,-1
 278 338 l 1,3,-1
 277 338 l 1,4,-1
 162 0 l 1,5,-1
 135 0 l 1,6,-1
 32 495 l 1,7,-1
 59 495 l 1,8,-1
 150 45 l 1,9,-1
 152 45 l 1,10,-1
 264 376 l 1,11,-1
 292 376 l 1,12,-1
 404 44 l 1,13,-1
 406 44 l 1,14,-1
 487 495 l 1,15,-1
 513 495 l 1,0,-1
EndSplineSet
Validated: 1
EndChar

StartChar: x
Encoding: 120 120 91
Width: 550
GlyphClass: 2
Flags: W
LayerCount: 2
Fore
SplineSet
455 0 m 1,0,-1
 426 0 l 1,1,-1
 275 238 l 1,2,-1
 125 0 l 1,3,-1
 96 0 l 1,4,-1
 259 254 l 1,5,-1
 105 495 l 1,6,-1
 134 495 l 1,7,-1
 275 271 l 1,8,-1
 415 495 l 1,9,-1
 446 495 l 1,10,-1
 290 254 l 1,11,-1
 455 0 l 1,0,-1
EndSplineSet
Validated: 1
EndChar

StartChar: y
Encoding: 121 121 92
Width: 550
GlyphClass: 2
Flags: W
LayerCount: 2
Fore
SplineSet
469 494 m 1,0,-1
 251 -115 l 2,1,2
 235 -159 235 -159 207 -180 c 128,-1,3
 179 -201 179 -201 128 -201 c 2,4,-1
 99 -201 l 1,5,-1
 99 -178 l 1,6,-1
 126 -178 l 2,7,8
 170 -178 170 -178 193.5 -159.5 c 128,-1,9
 217 -141 217 -141 231 -100 c 2,10,-1
 260 -14 l 1,11,-1
 74 494 l 1,12,-1
 102 494 l 1,13,-1
 273 20 l 1,14,-1
 274 20 l 1,15,-1
 442 494 l 1,16,-1
 469 494 l 1,0,-1
EndSplineSet
Validated: 1
EndChar

StartChar: z
Encoding: 122 122 93
Width: 550
GlyphClass: 2
Flags: W
LayerCount: 2
Fore
SplineSet
97 0 m 1,0,-1
 97 20 l 1,1,-1
 413 474 l 1,2,-1
 113 474 l 1,3,-1
 113 495 l 1,4,-1
 441 495 l 1,5,-1
 441 475 l 1,6,-1
 126 21 l 1,7,-1
 444 21 l 1,8,-1
 444 0 l 1,9,-1
 97 0 l 1,0,-1
EndSplineSet
Validated: 1
EndChar

StartChar: braceleft
Encoding: 123 123 94
Width: 550
GlyphClass: 2
Flags: W
LayerCount: 2
Fore
SplineSet
254 128 m 2,0,1
 254 204 254 204 241 239 c 128,-1,2
 228 274 228 274 186 287 c 1,3,-1
 186 300 l 1,4,5
 255 321 255 321 255 461 c 2,6,-1
 255 596 l 2,7,8
 255 642 255 642 274 669 c 128,-1,9
 293 696 293 696 328 696 c 2,10,-1
 364 696 l 1,11,-1
 364 680 l 1,12,-1
 333 680 l 2,13,14
 274 680 274 680 274 582 c 2,15,-1
 274 443 l 2,16,17
 274 385 274 385 256 344.5 c 128,-1,18
 238 304 238 304 211 295 c 1,19,-1
 211 294 l 1,20,21
 274 274 274 274 274 154 c 2,22,-1
 274 2 l 2,23,24
 274 -95 274 -95 333 -95 c 2,25,-1
 364 -95 l 1,26,-1
 364 -112 l 1,27,-1
 328 -112 l 2,28,29
 293 -112 293 -112 273.5 -84.5 c 128,-1,30
 254 -57 254 -57 254 -12 c 2,31,-1
 254 128 l 2,0,1
EndSplineSet
Validated: 1
EndChar

StartChar: bar
Encoding: 124 124 95
Width: 550
GlyphClass: 2
Flags: W
LayerCount: 2
Fore
SplineSet
265 -162 m 1,0,-1
 265 716 l 1,1,-1
 284 716 l 1,2,-1
 284 -162 l 1,3,-1
 265 -162 l 1,0,-1
EndSplineSet
Validated: 1
EndChar

StartChar: braceright
Encoding: 125 125 96
Width: 550
GlyphClass: 2
Flags: W
LayerCount: 2
Fore
SplineSet
296 128 m 2,0,-1
 296 -12 l 2,1,2
 296 -57 296 -57 276.5 -84.5 c 128,-1,3
 257 -112 257 -112 222 -112 c 2,4,-1
 186 -112 l 1,5,-1
 186 -95 l 1,6,-1
 217 -95 l 2,7,8
 276 -95 276 -95 276 2 c 2,9,-1
 276 154 l 2,10,11
 276 274 276 274 339 294 c 1,12,-1
 339 295 l 1,13,14
 312 304 312 304 294 344.5 c 128,-1,15
 276 385 276 385 276 443 c 2,16,-1
 276 582 l 2,17,18
 276 680 276 680 217 680 c 2,19,-1
 186 680 l 1,20,-1
 186 696 l 1,21,-1
 222 696 l 2,22,23
 257 696 257 696 276 669 c 128,-1,24
 295 642 295 642 295 596 c 2,25,-1
 295 461 l 2,26,27
 295 321 295 321 364 300 c 1,28,-1
 364 287 l 1,29,30
 322 274 322 274 309 239 c 128,-1,31
 296 204 296 204 296 128 c 2,0,-1
EndSplineSet
Validated: 1
EndChar

StartChar: asciitilde
Encoding: 126 126 97
Width: 550
GlyphClass: 2
Flags: W
LayerCount: 2
Fore
SplineSet
209 297 m 0,0,1
 233 297 233 297 284.5 276 c 128,-1,2
 336 255 336 255 355 255 c 0,3,4
 386 255 386 255 421 298 c 1,5,-1
 444 283 l 1,6,7
 406 227 406 227 354 227 c 0,8,9
 333 227 333 227 281 248 c 128,-1,10
 229 269 229 269 206 269 c 0,11,12
 166 269 166 269 126 227 c 1,13,-1
 106 242 l 1,14,15
 152 297 152 297 209 297 c 0,0,1
EndSplineSet
Validated: 1
EndChar

StartChar: exclamdown
Encoding: 161 161 98
Width: 550
GlyphClass: 2
Flags: W
LayerCount: 2
Fore
SplineSet
266 294 m 1,0,-1
 282 294 l 1,1,-1
 288 -208 l 1,2,-1
 260 -208 l 1,3,-1
 266 294 l 1,0,-1
257 488 m 1,4,-1
 293 488 l 1,5,-1
 293 447 l 1,6,-1
 257 447 l 1,7,-1
 257 488 l 1,4,-1
EndSplineSet
Validated: 1
EndChar

StartChar: cent
Encoding: 162 162 99
Width: 550
GlyphClass: 2
Flags: W
LayerCount: 2
Fore
SplineSet
305 -6 m 1,0,-1
 305 -112 l 1,1,-1
 286 -112 l 1,2,-1
 286 -5 l 1,3,4
 204 4 204 4 151 65.5 c 128,-1,5
 98 127 98 127 98 247 c 0,6,7
 98 366 98 366 151.5 428 c 128,-1,8
 205 490 205 490 286 499 c 1,9,-1
 286 611 l 1,10,-1
 305 611 l 1,11,-1
 305 501 l 1,12,13
 391 501 391 501 451 454 c 1,14,-1
 437 435 l 1,15,16
 382 479 382 479 305 479 c 1,17,-1
 305 13 l 1,18,19
 387 13 387 13 442 58 c 1,20,-1
 456 41 l 1,21,22
 396 -6 396 -6 305 -6 c 1,0,-1
123 247 m 0,23,24
 123 146 123 146 165 86 c 128,-1,25
 207 26 207 26 286 15 c 1,26,-1
 286 477 l 1,27,28
 207 466 207 466 165 406.5 c 128,-1,29
 123 347 123 347 123 247 c 0,23,24
EndSplineSet
Validated: 1
EndChar

StartChar: sterling
Encoding: 163 163 100
Width: 550
GlyphClass: 2
Flags: W
LayerCount: 2
Fore
SplineSet
80 0 m 1,0,-1
 80 24 l 1,1,2
 168 141 168 141 164 308 c 1,3,-1
 78 308 l 1,4,-1
 78 326 l 1,5,-1
 162 326 l 1,6,7
 158 357 158 357 148 389 c 0,8,9
 145 400 145 400 133 433 c 128,-1,10
 121 466 121 466 115 489.5 c 128,-1,11
 109 513 109 513 109 535 c 0,12,13
 109 604 109 604 152 651.5 c 128,-1,14
 195 699 195 699 278 699 c 0,15,16
 388 699 388 699 449 617 c 1,17,-1
 430 606 l 1,18,19
 377 680 377 680 275 680 c 0,20,21
 251 680 251 680 228 673 c 128,-1,22
 205 666 205 666 182.5 650.5 c 128,-1,23
 160 635 160 635 146 605 c 128,-1,24
 132 575 132 575 132 535 c 0,25,26
 132 500 132 500 154 440 c 0,27,28
 175 384 175 384 185 326 c 1,29,-1
 331 326 l 1,30,-1
 331 308 l 1,31,-1
 186 308 l 1,32,33
 186 131 186 131 103 24 c 1,34,-1
 471 24 l 1,35,-1
 471 0 l 1,36,-1
 80 0 l 1,0,-1
EndSplineSet
Validated: 33
EndChar

StartChar: currency
Encoding: 164 164 101
Width: 550
GlyphClass: 2
Flags: W
LayerCount: 2
Fore
SplineSet
98 173 m 2,0,-1
 151 226 l 1,1,2
 117 271 117 271 117 326 c 0,3,4
 116 381 116 381 155 430 c 1,5,-1
 102 483 l 1,6,-1
 119 500 l 1,7,-1
 172 447 l 1,8,9
 219 485 219 485 275 485 c 0,10,11
 326 485 326 485 375 450 c 1,12,-1
 428 503 l 1,13,-1
 445 486 l 1,14,-1
 392 432 l 1,15,16
 436 385 436 385 436 327 c 0,17,18
 436 272 436 272 398 222 c 1,19,-1
 451 169 l 1,20,-1
 433 151 l 1,21,-1
 380 204 l 1,22,23
 335 166 335 166 276 164 c 0,24,25
 216 165 216 165 168 208 c 1,26,-1
 115 155 l 1,27,28
 113 158 113 158 106 164.5 c 128,-1,29
 99 171 99 171 98 173 c 2,0,-1
276 460 m 0,30,31
 220 459 220 459 181.5 421 c 128,-1,32
 143 383 143 383 143 327 c 0,33,34
 143 270 143 270 181 231 c 128,-1,35
 219 192 219 192 275 192 c 0,36,37
 332 192 332 192 370.5 231 c 128,-1,38
 409 270 409 270 409 326 c 128,-1,39
 409 382 409 382 370.5 421 c 128,-1,40
 332 460 332 460 276 460 c 0,30,31
EndSplineSet
Validated: 33
EndChar

StartChar: yen
Encoding: 165 165 102
Width: 550
GlyphClass: 2
Flags: W
LayerCount: 2
Fore
SplineSet
470 287 m 1,0,-1
 83 287 l 1,1,-1
 83 310 l 1,2,-1
 253 310 l 1,3,-1
 55 696 l 1,4,-1
 82 696 l 1,5,-1
 276 315 l 1,6,-1
 469 696 l 1,7,-1
 495 696 l 1,8,-1
 298 310 l 1,9,-1
 470 310 l 1,10,-1
 470 287 l 1,0,-1
83 215 m 1,11,-1
 470 215 l 1,12,-1
 470 192 l 1,13,-1
 288 192 l 1,14,-1
 288 0 l 1,15,-1
 263 0 l 1,16,-1
 263 192 l 1,17,-1
 83 192 l 1,18,-1
 83 215 l 1,11,-1
EndSplineSet
Validated: 1
EndChar

StartChar: brokenbar
Encoding: 166 166 103
Width: 550
GlyphClass: 2
Flags: W
LayerCount: 2
Fore
SplineSet
284 305 m 1,0,-1
 265 305 l 1,1,-1
 265 716 l 1,2,-1
 284 716 l 1,3,-1
 284 305 l 1,0,-1
265 251 m 1,4,-1
 284 251 l 1,5,-1
 284 -162 l 1,6,-1
 265 -162 l 1,7,-1
 265 251 l 1,4,-1
EndSplineSet
Validated: 1
EndChar

StartChar: section
Encoding: 167 167 104
Width: 550
GlyphClass: 2
Flags: W
LayerCount: 2
Fore
SplineSet
107 -22 m 1,0,-1
 123 -6 l 1,1,2
 186 -57 186 -57 256 -57 c 0,3,4
 324 -57 324 -57 365.5 -27 c 128,-1,5
 407 3 407 3 407 67 c 0,6,7
 407 118 407 118 369 148.5 c 128,-1,8
 331 179 331 179 257 205 c 0,9,10
 167 238 167 238 134 269.5 c 128,-1,11
 101 301 101 301 101 357 c 0,12,13
 101 420 101 420 163 468 c 1,14,15
 116 511 116 511 116 564 c 0,16,17
 116 627 116 627 156.5 665 c 128,-1,18
 197 703 197 703 265 703 c 0,19,20
 352 703 352 703 411 655 c 1,21,-1
 394 633 l 1,22,23
 339 679 339 679 265 679 c 0,24,25
 209 679 209 679 175 648.5 c 128,-1,26
 141 618 141 618 141 569 c 0,27,28
 141 557 141 557 144 545.5 c 128,-1,29
 147 534 147 534 150 525.5 c 128,-1,30
 153 517 153 517 161.5 508 c 128,-1,31
 170 499 170 499 175 493.5 c 128,-1,32
 180 488 180 488 193 480.5 c 128,-1,33
 206 473 206 473 211.5 469.5 c 128,-1,34
 217 466 217 466 233.5 459 c 128,-1,35
 250 452 250 452 254.5 450.5 c 128,-1,36
 259 449 259 449 277.5 442 c 128,-1,37
 296 435 296 435 299 434 c 0,38,39
 368 409 368 409 408 373.5 c 128,-1,40
 448 338 448 338 448 279 c 0,41,42
 448 208 448 208 393 164 c 1,43,44
 431 120 431 120 431 65 c 0,45,46
 431 0 431 0 386 -40 c 128,-1,47
 341 -80 341 -80 258 -80 c 0,48,49
 218 -80 218 -80 176 -63.5 c 128,-1,50
 134 -47 134 -47 107 -22 c 1,0,-1
271 418 m 0,51,52
 232 432 232 432 185 457 c 1,53,54
 125 411 125 411 125 357 c 0,55,56
 125 331 125 331 133.5 311.5 c 128,-1,57
 142 292 142 292 159.5 279 c 128,-1,58
 177 266 177 266 191.5 259 c 128,-1,59
 206 252 206 252 229.5 242.5 c 128,-1,60
 253 233 253 233 262 229 c 0,61,62
 342 196 342 196 373 178 c 1,63,64
 423 215 423 215 423 278 c 0,65,66
 423 332 423 332 385.5 361 c 128,-1,67
 348 390 348 390 271 418 c 0,51,52
EndSplineSet
Validated: 1
EndChar

StartChar: dieresis
Encoding: 168 168 105
Width: 550
GlyphClass: 2
Flags: W
LayerCount: 2
Fore
SplineSet
333 624 m 1,0,-1
 333 660 l 1,1,-1
 371 660 l 1,2,-1
 371 624 l 1,3,-1
 333 624 l 1,0,-1
179 624 m 1,4,-1
 179 660 l 1,5,-1
 217 660 l 1,6,-1
 217 624 l 1,7,-1
 179 624 l 1,4,-1
EndSplineSet
Validated: 1
EndChar

StartChar: copyright
Encoding: 169 169 106
Width: 550
GlyphClass: 2
Flags: W
LayerCount: 2
Fore
SplineSet
278 703 m 0,0,1
 395 703 395 703 463 635.5 c 128,-1,2
 531 568 531 568 531 460 c 2,3,-1
 531 243 l 2,4,5
 531 129 531 129 461.5 61 c 128,-1,6
 392 -7 392 -7 278 -7 c 0,7,8
 154 -7 154 -7 87.5 64 c 128,-1,9
 21 135 21 135 21 243 c 2,10,-1
 21 460 l 2,11,12
 21 563 21 563 90 633 c 128,-1,13
 159 703 159 703 278 703 c 0,0,1
279 682 m 0,14,15
 168 682 168 682 105.5 618.5 c 128,-1,16
 43 555 43 555 43 458 c 2,17,-1
 43 238 l 2,18,19
 43 142 43 142 104 77.5 c 128,-1,20
 165 13 165 13 279 13 c 0,21,22
 387 13 387 13 448 76.5 c 128,-1,23
 509 140 509 140 509 244 c 2,24,-1
 509 458 l 2,25,26
 509 558 509 558 447.5 620 c 128,-1,27
 386 682 386 682 279 682 c 0,14,15
388 221 m 1,28,-1
 411 211 l 1,29,30
 394 174 394 174 360 152.5 c 128,-1,31
 326 131 326 131 283 131 c 0,32,33
 212 131 212 131 175.5 173.5 c 128,-1,34
 139 216 139 216 139 281 c 2,35,-1
 139 405 l 2,36,37
 139 467 139 467 177.5 509.5 c 128,-1,38
 216 552 216 552 283 552 c 0,39,40
 325 552 325 552 358 532.5 c 128,-1,41
 391 513 391 513 409 479 c 1,42,-1
 387 466 l 1,43,44
 373 494 373 494 345.5 511.5 c 128,-1,45
 318 529 318 529 284 529 c 0,46,47
 225 529 225 529 194 494 c 128,-1,48
 163 459 163 459 163 404 c 2,49,-1
 163 279 l 2,50,51
 163 225 163 225 194 189.5 c 128,-1,52
 225 154 225 154 284 154 c 0,53,54
 354 154 354 154 388 221 c 1,28,-1
EndSplineSet
Validated: 1
EndChar

StartChar: ordfeminine
Encoding: 170 170 107
Width: 550
GlyphClass: 2
Flags: W
LayerCount: 2
Fore
SplineSet
387 276 m 1,0,-1
 387 324 l 1,1,2
 355 271 355 271 264 271 c 0,3,4
 212 271 212 271 177 294 c 128,-1,5
 142 317 142 317 142 364 c 0,6,7
 142 407 142 407 171 431.5 c 128,-1,8
 200 456 200 456 254 456 c 2,9,-1
 387 456 l 1,10,-1
 387 492 l 2,11,12
 387 585 387 585 280 585 c 0,13,14
 220 585 220 585 176 548 c 1,15,-1
 163 563 l 1,16,17
 210 604 210 604 282 604 c 0,18,19
 408 604 408 604 408 495 c 2,20,-1
 408 276 l 1,21,-1
 387 276 l 1,0,-1
387 439 m 1,22,-1
 258 439 l 2,23,24
 214 439 214 439 188.5 419.5 c 128,-1,25
 163 400 163 400 163 364 c 0,26,27
 163 329 163 329 192 309.5 c 128,-1,28
 221 290 221 290 267 290 c 0,29,30
 319 290 319 290 353 313.5 c 128,-1,31
 387 337 387 337 387 380 c 2,32,-1
 387 439 l 1,22,-1
EndSplineSet
Validated: 1
EndChar

StartChar: guillemotleft
Encoding: 171 171 108
Width: 550
GlyphClass: 2
Flags: W
LayerCount: 2
Fore
SplineSet
286 46 m 1,0,-1
 257 46 l 1,1,-1
 146 212 l 1,2,-1
 259 377 l 1,3,-1
 286 377 l 1,4,-1
 176 212 l 1,5,-1
 286 46 l 1,0,-1
403 46 m 1,6,-1
 374 46 l 1,7,-1
 263 212 l 1,8,-1
 376 377 l 1,9,-1
 403 377 l 1,10,-1
 293 212 l 1,11,-1
 403 46 l 1,6,-1
EndSplineSet
Validated: 1
EndChar

StartChar: logicalnot
Encoding: 172 172 109
Width: 550
GlyphClass: 2
Flags: W
LayerCount: 2
Fore
SplineSet
474 285 m 1,0,-1
 474 65 l 1,1,-1
 451 65 l 1,2,-1
 451 261 l 1,3,-1
 75 261 l 1,4,-1
 75 285 l 1,5,-1
 474 285 l 1,0,-1
EndSplineSet
Validated: 1
EndChar

StartChar: sfthyphen
Encoding: 173 173 110
Width: 550
GlyphClass: 2
Flags: W
LayerCount: 2
Fore
SplineSet
149 253 m 1,0,-1
 149 279 l 1,1,-1
 400 279 l 1,2,-1
 400 253 l 1,3,-1
 149 253 l 1,0,-1
EndSplineSet
Validated: 1
EndChar

StartChar: registered
Encoding: 174 174 111
Width: 550
GlyphClass: 2
Flags: W
LayerCount: 2
Fore
SplineSet
275 280 m 0,0,1
 191 280 191 280 132.5 341 c 128,-1,2
 74 402 74 402 74 492 c 128,-1,3
 74 582 74 582 132.5 643 c 128,-1,4
 191 704 191 704 275 704 c 0,5,6
 361 704 361 704 418.5 643.5 c 128,-1,7
 476 583 476 583 476 492 c 0,8,9
 476 402 476 402 418 341 c 128,-1,10
 360 280 360 280 275 280 c 0,0,1
275 688 m 128,-1,12
 198 688 198 688 146.5 631.5 c 128,-1,13
 95 575 95 575 95 492 c 128,-1,14
 95 409 95 409 146.5 352.5 c 128,-1,15
 198 296 198 296 275 296 c 128,-1,16
 352 296 352 296 404 352.5 c 128,-1,17
 456 409 456 409 456 492 c 128,-1,18
 456 575 456 575 404 631.5 c 128,-1,11
 352 688 352 688 275 688 c 128,-1,12
312 484 m 1,19,-1
 372 370 l 1,20,-1
 351 370 l 1,21,-1
 292 483 l 1,22,-1
 221 483 l 1,23,-1
 221 370 l 1,24,-1
 203 370 l 1,25,-1
 203 614 l 1,26,-1
 299 614 l 2,27,28
 331 614 331 614 351.5 597 c 128,-1,29
 372 580 372 580 372 551 c 0,30,31
 372 525 372 525 356 506.5 c 128,-1,32
 340 488 340 488 312 484 c 1,19,-1
295 598 m 2,33,-1
 221 598 l 1,34,-1
 221 499 l 1,35,-1
 294 499 l 2,36,37
 321 499 321 499 337 512.5 c 128,-1,38
 353 526 353 526 353 551 c 0,39,40
 353 574 353 574 336.5 586 c 128,-1,41
 320 598 320 598 295 598 c 2,33,-1
EndSplineSet
Validated: 1
EndChar

StartChar: macron
Encoding: 175 175 112
Width: 550
GlyphClass: 2
Flags: W
LayerCount: 2
Fore
SplineSet
151 600 m 1,0,-1
 151 624 l 1,1,-1
 399 624 l 1,2,-1
 399 600 l 1,3,-1
 151 600 l 1,0,-1
EndSplineSet
Validated: 1
EndChar

StartChar: degree
Encoding: 176 176 113
Width: 550
GlyphClass: 2
Flags: W
LayerCount: 2
Fore
SplineSet
275 465 m 128,-1,1
 226 465 226 465 192 499 c 128,-1,2
 158 533 158 533 158 582 c 0,3,4
 158 630 158 630 192.5 664 c 128,-1,5
 227 698 227 698 275 698 c 0,6,7
 326 698 326 698 359 664.5 c 128,-1,8
 392 631 392 631 392 582 c 128,-1,9
 392 533 392 533 358 499 c 128,-1,0
 324 465 324 465 275 465 c 128,-1,1
275 678 m 0,10,11
 235 678 235 678 208 650 c 128,-1,12
 181 622 181 622 181 582 c 128,-1,13
 181 542 181 542 208 514 c 128,-1,14
 235 486 235 486 275 486 c 128,-1,15
 315 486 315 486 342 512.5 c 128,-1,16
 369 539 369 539 369 582 c 0,17,18
 369 622 369 622 341.5 650 c 128,-1,19
 314 678 314 678 275 678 c 0,10,11
EndSplineSet
Validated: 1
EndChar

StartChar: plusminus
Encoding: 177 177 114
Width: 550
GlyphClass: 2
Flags: W
LayerCount: 2
Fore
SplineSet
74 0 m 1,0,-1
 74 24 l 1,1,-1
 475 24 l 1,2,-1
 475 0 l 1,3,-1
 74 0 l 1,0,-1
285 261 m 1,4,-1
 285 65 l 1,5,-1
 262 65 l 1,6,-1
 262 261 l 1,7,-1
 74 261 l 1,8,-1
 74 285 l 1,9,-1
 262 285 l 1,10,-1
 262 478 l 1,11,-1
 285 478 l 1,12,-1
 285 285 l 1,13,-1
 473 285 l 1,14,-1
 473 261 l 1,15,-1
 285 261 l 1,4,-1
EndSplineSet
Validated: 1
EndChar

StartChar: twosuperior
Encoding: 178 178 115
Width: 550
GlyphClass: 2
Flags: W
LayerCount: 2
Fore
SplineSet
182 702 m 1,0,-1
 159 707 l 1,1,2
 171 742 171 742 204 763.5 c 128,-1,3
 237 785 237 785 278 785 c 0,4,5
 335 785 335 785 366 756.5 c 128,-1,6
 397 728 397 728 397 686 c 0,7,8
 397 642 397 642 366 605 c 2,9,-1
 182 387 l 1,10,-1
 396 387 l 1,11,-1
 396 366 l 1,12,-1
 153 366 l 1,13,-1
 153 386 l 1,14,-1
 350 619 l 2,15,16
 374 647 374 647 374 685 c 0,17,18
 374 720 374 720 348 743 c 128,-1,19
 322 766 322 766 277 766 c 0,20,21
 244 766 244 766 218 748.5 c 128,-1,22
 192 731 192 731 182 702 c 1,0,-1
EndSplineSet
Validated: 1
EndChar

StartChar: threesuperior
Encoding: 179 179 116
Width: 550
GlyphClass: 2
Flags: W
LayerCount: 2
Fore
SplineSet
151 426 m 1,0,-1
 171 434 l 1,1,2
 180 411 180 411 206.5 396.5 c 128,-1,3
 233 382 233 382 270 382 c 0,4,5
 313 382 313 382 344.5 410 c 128,-1,6
 376 438 376 438 376 482 c 0,7,8
 376 527 376 527 349 553.5 c 128,-1,9
 322 580 322 580 281 580 c 2,10,-1
 238 580 l 1,11,-1
 238 600 l 1,12,-1
 276 600 l 2,13,14
 316 600 316 600 342 623 c 128,-1,15
 368 646 368 646 368 684 c 128,-1,16
 368 722 368 722 342.5 745.5 c 128,-1,17
 317 769 317 769 267 769 c 0,18,19
 238 769 238 769 212 754 c 128,-1,20
 186 739 186 739 177 713 c 1,21,-1
 156 718 l 1,22,23
 170 751 170 751 200 769.5 c 128,-1,24
 230 788 230 788 270 788 c 0,25,26
 327 788 327 788 359.5 758 c 128,-1,27
 392 728 392 728 392 686 c 0,28,29
 392 660 392 660 377 632 c 128,-1,30
 362 604 362 604 328 591 c 1,31,32
 366 578 366 578 382.5 546 c 128,-1,33
 399 514 399 514 399 485 c 0,34,35
 399 433 399 433 361 397.5 c 128,-1,36
 323 362 323 362 271 362 c 0,37,38
 177 362 177 362 151 426 c 1,0,-1
EndSplineSet
Validated: 1
EndChar

StartChar: acute
Encoding: 180 180 117
Width: 550
GlyphClass: 2
Flags: W
LayerCount: 2
Fore
SplineSet
233 579 m 1,0,-1
 218 587 l 1,1,-1
 300 729 l 1,2,-1
 332 713 l 1,3,-1
 233 579 l 1,0,-1
EndSplineSet
Validated: 1
EndChar

StartChar: mu
Encoding: 181 181 118
AltUni2: 0003bc.ffffffff.0
Width: 550
GlyphClass: 2
Flags: W
LayerCount: 2
Fore
SplineSet
113 -200 m 1,0,-1
 88 -200 l 1,1,-1
 88 496 l 1,2,-1
 113 496 l 1,3,-1
 113 169 l 2,4,5
 113 97 113 97 159 57 c 128,-1,6
 205 17 205 17 274 17 c 0,7,8
 346 17 346 17 392 65 c 128,-1,9
 438 113 438 113 438 190 c 2,10,-1
 438 496 l 1,11,-1
 461 496 l 1,12,-1
 461 0 l 1,13,-1
 438 0 l 1,14,-1
 438 92 l 1,15,-1
 436 92 l 1,16,17
 413 41 413 41 368 18 c 128,-1,18
 323 -5 323 -5 273 -5 c 0,19,20
 221 -5 221 -5 179.5 15.5 c 128,-1,21
 138 36 138 36 114 71 c 1,22,-1
 113 71 l 1,23,-1
 113 -200 l 1,0,-1
EndSplineSet
Validated: 1
EndChar

StartChar: paragraph
Encoding: 182 182 119
Width: 550
GlyphClass: 2
Flags: W
LayerCount: 2
Fore
SplineSet
383 703 m 1,0,-1
 276 703 l 1,1,-1
 276 -81 l 1,2,-1
 244 -81 l 1,3,-1
 244 377 l 1,4,5
 168 377 168 377 115.5 425 c 128,-1,6
 63 473 63 473 63 558 c 0,7,8
 63 636 63 636 108.5 685 c 128,-1,9
 154 734 154 734 244 734 c 2,10,-1
 487 734 l 1,11,-1
 487 703 l 1,12,-1
 415 703 l 1,13,-1
 415 -81 l 1,14,-1
 383 -81 l 1,15,-1
 383 703 l 1,0,-1
EndSplineSet
Validated: 1
EndChar

StartChar: periodcentered
Encoding: 183 183 120
Width: 550
GlyphClass: 2
Flags: W
LayerCount: 2
Fore
SplineSet
295 238 m 1,0,-1
 254 238 l 1,1,-1
 254 285 l 1,2,-1
 295 285 l 1,3,-1
 295 238 l 1,0,-1
EndSplineSet
Validated: 1
EndChar

StartChar: cedilla
Encoding: 184 184 121
Width: 550
GlyphClass: 2
Flags: W
LayerCount: 2
Fore
SplineSet
278 4 m 1,0,-1
 261 -46 l 1,1,2
 352 -54 352 -54 352 -119 c 0,3,4
 352 -144 352 -144 330 -165 c 128,-1,5
 308 -186 308 -186 260 -186 c 0,6,7
 227 -186 227 -186 198 -174 c 1,8,-1
 205 -155 l 1,9,10
 234 -165 234 -165 260 -165 c 0,11,12
 287 -165 287 -165 306.5 -154 c 128,-1,13
 326 -143 326 -143 326 -117 c 0,14,15
 326 -93 326 -93 301 -79 c 128,-1,16
 276 -65 276 -65 240 -65 c 1,17,-1
 235 -61 l 1,18,-1
 256 4 l 1,19,-1
 278 4 l 1,0,-1
EndSplineSet
Validated: 1
EndChar

StartChar: onesuperior
Encoding: 185 185 122
Width: 550
GlyphClass: 2
Flags: W
LayerCount: 2
Fore
SplineSet
279 366 m 1,0,-1
 279 389 l 1,1,-1
 279 389 l 1,2,-1
 279 759 l 1,3,-1
 178 714 l 1,4,-1
 178 739 l 1,5,-1
 280 785 l 1,6,-1
 302 785 l 1,7,-1
 302 389 l 1,8,-1
 304 389 l 1,9,-1
 304 366 l 1,10,-1
 279 366 l 1,0,-1
EndSplineSet
Validated: 1
EndChar

StartChar: ordmasculine
Encoding: 186 186 123
Width: 550
GlyphClass: 2
Flags: W
LayerCount: 2
Fore
SplineSet
276 604 m 0,0,1
 413 604 413 604 413 436 c 0,2,3
 413 269 413 269 275 269 c 0,4,5
 136 269 136 269 136 440 c 0,6,7
 136 523 136 523 174 563.5 c 128,-1,8
 212 604 212 604 276 604 c 0,0,1
276 585 m 0,9,10
 158 585 158 585 158 438 c 0,11,12
 158 290 158 290 275 290 c 0,13,14
 330 290 330 290 361 321.5 c 128,-1,15
 392 353 392 353 392 436 c 0,16,17
 392 585 392 585 276 585 c 0,9,10
EndSplineSet
Validated: 1
EndChar

StartChar: guillemotright
Encoding: 187 187 124
Width: 550
GlyphClass: 2
Flags: W
LayerCount: 2
Fore
SplineSet
292 46 m 1,0,-1
 263 46 l 1,1,-1
 373 212 l 1,2,-1
 263 377 l 1,3,-1
 290 377 l 1,4,-1
 403 212 l 1,5,-1
 292 46 l 1,0,-1
175 46 m 1,6,-1
 146 46 l 1,7,-1
 256 212 l 1,8,-1
 146 377 l 1,9,-1
 173 377 l 1,10,-1
 286 212 l 1,11,-1
 175 46 l 1,6,-1
EndSplineSet
Validated: 1
EndChar

StartChar: onequarter
Encoding: 188 188 125
Width: 550
GlyphClass: 2
Flags: W
LayerCount: 2
Fore
SplineSet
145 338 m 5,0,-1
 145 668 l 5,1,-1
 85 633 l 5,2,-1
 85 659 l 5,3,-1
 146 695 l 5,4,-1
 168 695 l 5,5,-1
 168 338 l 5,6,-1
 145 338 l 5,0,-1
478 58 m 1,7,-1
 478 0 l 1,8,-1
 455 0 l 1,9,-1
 455 58 l 1,10,-1
 281 58 l 1,11,-1
 281 76 l 1,12,-1
 421 357 l 1,13,-1
 448 357 l 1,14,-1
 308 80 l 1,15,-1
 455 80 l 1,16,-1
 455 188 l 1,17,-1
 478 188 l 1,18,-1
 478 80 l 1,19,-1
 514 80 l 1,20,-1
 514 58 l 1,21,-1
 478 58 l 1,7,-1
48 -17 m 1,22,-1
 23 -17 l 1,23,-1
 501 714 l 1,24,-1
 528 714 l 1,25,-1
 48 -17 l 1,22,-1
EndSplineSet
Validated: 1
EndChar

StartChar: onehalf
Encoding: 189 189 126
Width: 550
GlyphClass: 2
Flags: W
LayerCount: 2
Fore
SplineSet
339 284 m 1,0,-1
 315 288 l 1,1,2
 325 319 325 319 354.5 338 c 128,-1,3
 384 357 384 357 419 357 c 0,4,5
 467 357 467 357 494 332.5 c 128,-1,6
 521 308 521 308 521 272 c 0,7,8
 521 234 521 234 495 202 c 2,9,-1
 342 22 l 1,10,-1
 520 22 l 1,11,-1
 520 0 l 1,12,-1
 312 0 l 1,13,-1
 312 20 l 1,14,-1
 477 216 l 2,15,16
 497 239 497 239 497 271 c 0,17,18
 497 300 497 300 476 318.5 c 128,-1,19
 455 337 455 337 418 337 c 0,20,21
 391 337 391 337 369 322.5 c 128,-1,22
 347 308 347 308 339 284 c 1,0,-1
145 338 m 1,23,-1
 145 668 l 1,24,-1
 85 633 l 1,25,-1
 85 659 l 1,26,-1
 146 695 l 1,27,-1
 168 695 l 1,28,-1
 168 338 l 1,29,-1
 145 338 l 1,23,-1
38 -17 m 1,30,-1
 13 -17 l 1,31,-1
 491 714 l 1,32,-1
 518 714 l 1,33,-1
 38 -17 l 1,30,-1
EndSplineSet
Validated: 1
EndChar

StartChar: threequarters
Encoding: 190 190 127
Width: 550
GlyphClass: 2
Flags: W
LayerCount: 2
Fore
SplineSet
150 702 m 0,0,1
 199 702 199 702 225 676 c 128,-1,2
 251 650 251 650 251 613 c 0,3,4
 251 590 251 590 238.5 566.5 c 128,-1,5
 226 543 226 543 195 534 c 1,6,-1
 195 533 l 1,7,8
 228 524 228 524 242.5 496 c 128,-1,9
 257 468 257 468 257 444 c 0,10,11
 257 399 257 399 226 369 c 128,-1,12
 195 339 195 339 147 339 c 0,13,14
 66 339 66 339 43 395 c 1,15,-1
 64 404 l 1,16,17
 82 359 82 359 146 359 c 0,18,19
 185 359 185 359 209.5 382 c 128,-1,20
 234 405 234 405 234 442 c 128,-1,21
 234 479 234 479 212 500.5 c 128,-1,22
 190 522 190 522 156 522 c 2,23,-1
 117 522 l 1,24,-1
 117 543 l 1,25,-1
 152 543 l 2,26,27
 185 543 185 543 206 562 c 128,-1,28
 227 581 227 581 227 611 c 0,29,30
 227 644 227 644 207 663.5 c 128,-1,31
 187 683 187 683 145 683 c 0,32,33
 121 683 121 683 99.5 669.5 c 128,-1,34
 78 656 78 656 70 634 c 1,35,-1
 48 639 l 1,36,37
 74 702 74 702 150 702 c 0,0,1
478 58 m 1,38,-1
 478 0 l 1,39,-1
 455 0 l 1,40,-1
 455 58 l 1,41,-1
 281 58 l 1,42,-1
 281 76 l 1,43,-1
 421 357 l 1,44,-1
 448 357 l 1,45,-1
 308 80 l 1,46,-1
 455 80 l 1,47,-1
 455 188 l 1,48,-1
 478 188 l 1,49,-1
 478 80 l 1,50,-1
 514 80 l 1,51,-1
 514 58 l 1,52,-1
 478 58 l 1,38,-1
68 -17 m 1,53,-1
 43 -17 l 1,54,-1
 521 714 l 1,55,-1
 548 714 l 1,56,-1
 68 -17 l 1,53,-1
EndSplineSet
Validated: 1
EndChar

StartChar: questiondown
Encoding: 191 191 128
Width: 550
GlyphClass: 2
Flags: W
LayerCount: 2
Fore
SplineSet
430 -50 m 1,0,-1
 455 -55 l 1,1,2
 437 -128 437 -128 385.5 -170 c 128,-1,3
 334 -212 334 -212 268 -212 c 0,4,5
 191 -212 191 -212 142.5 -164.5 c 128,-1,6
 94 -117 94 -117 94 -44 c 0,7,8
 94 -10 94 -10 108.5 23 c 128,-1,9
 123 56 123 56 136 72.5 c 128,-1,10
 149 89 149 89 178 121 c 0,11,12
 203 149 203 149 216 165 c 128,-1,13
 229 181 229 181 243 209.5 c 128,-1,14
 257 238 257 238 259 267 c 2,15,-1
 259 341 l 1,16,-1
 284 341 l 1,17,-1
 284 265 l 2,18,19
 284 224 284 224 261 186.5 c 128,-1,20
 238 149 238 149 197 106 c 0,21,22
 118 22 118 22 118 -39 c 0,23,24
 118 -96 118 -96 155.5 -143 c 128,-1,25
 193 -190 193 -190 272 -190 c 0,26,27
 334 -190 334 -190 378.5 -144.5 c 128,-1,28
 423 -99 423 -99 430 -50 c 1,0,-1
250 490 m 1,29,-1
 288 490 l 1,30,-1
 288 447 l 1,31,-1
 250 447 l 1,32,-1
 250 490 l 1,29,-1
EndSplineSet
Validated: 1
EndChar

StartChar: Agrave
Encoding: 192 192 129
Width: 550
GlyphClass: 2
Flags: W
LayerCount: 2
Fore
SplineSet
506 0 m 1,0,-1
 446 175 l 1,1,-1
 103 175 l 1,2,-1
 42 0 l 1,3,-1
 14 0 l 1,4,-1
 257 696 l 1,5,-1
 293 696 l 1,6,-1
 536 0 l 1,7,-1
 506 0 l 1,0,-1
274 670 m 1,8,-1
 211 489 l 1,9,-1
 111 200 l 1,10,-1
 437 200 l 1,11,-1
 276 670 l 1,12,-1
 274 670 l 1,8,-1
298 767 m 1,13,-1
 287 754 l 1,14,-1
 145 842 l 1,15,-1
 169 868 l 1,16,-1
 298 767 l 1,13,-1
EndSplineSet
Validated: 1
EndChar

StartChar: Aacute
Encoding: 193 193 130
Width: 550
GlyphClass: 2
Flags: W
LayerCount: 2
Fore
SplineSet
506 0 m 1,0,-1
 446 175 l 1,1,-1
 103 175 l 1,2,-1
 42 0 l 1,3,-1
 14 0 l 1,4,-1
 257 696 l 1,5,-1
 293 696 l 1,6,-1
 536 0 l 1,7,-1
 506 0 l 1,0,-1
274 670 m 1,8,-1
 211 489 l 1,9,-1
 111 200 l 1,10,-1
 437 200 l 1,11,-1
 276 670 l 1,12,-1
 274 670 l 1,8,-1
272 754 m 1,13,-1
 261 767 l 1,14,-1
 390 868 l 1,15,-1
 414 842 l 1,16,-1
 272 754 l 1,13,-1
EndSplineSet
Validated: 1
EndChar

StartChar: Acircumflex
Encoding: 194 194 131
Width: 550
GlyphClass: 2
Flags: W
LayerCount: 2
Fore
SplineSet
506 0 m 1,0,-1
 446 175 l 1,1,-1
 103 175 l 1,2,-1
 42 0 l 1,3,-1
 14 0 l 1,4,-1
 257 696 l 1,5,-1
 293 696 l 1,6,-1
 536 0 l 1,7,-1
 506 0 l 1,0,-1
274 670 m 1,8,-1
 211 489 l 1,9,-1
 111 200 l 1,10,-1
 437 200 l 1,11,-1
 276 670 l 1,12,-1
 274 670 l 1,8,-1
397 746 m 1,13,-1
 275 828 l 1,14,-1
 152 745 l 1,15,-1
 140 758 l 1,16,-1
 262 858 l 1,17,-1
 291 858 l 1,18,-1
 409 758 l 1,19,-1
 397 746 l 1,13,-1
EndSplineSet
Validated: 1
EndChar

StartChar: Atilde
Encoding: 195 195 132
Width: 550
GlyphClass: 2
Flags: W
LayerCount: 2
Fore
SplineSet
506 0 m 1,0,-1
 446 175 l 1,1,-1
 103 175 l 1,2,-1
 42 0 l 1,3,-1
 14 0 l 1,4,-1
 257 696 l 1,5,-1
 293 696 l 1,6,-1
 536 0 l 1,7,-1
 506 0 l 1,0,-1
274 670 m 1,8,-1
 211 489 l 1,9,-1
 111 200 l 1,10,-1
 437 200 l 1,11,-1
 276 670 l 1,12,-1
 274 670 l 1,8,-1
223 835 m 0,13,14
 243 835 243 835 285.5 815 c 128,-1,15
 328 795 328 795 344 795 c 0,16,17
 370 795 370 795 397 834 c 1,18,-1
 417 822 l 1,19,20
 386 768 386 768 343 768 c 0,21,22
 325 768 325 768 282.5 788 c 128,-1,23
 240 808 240 808 221 808 c 0,24,25
 188 808 188 808 157 770 c 1,26,-1
 138 782 l 1,27,28
 175 835 175 835 223 835 c 0,13,14
EndSplineSet
Validated: 1
EndChar

StartChar: Adieresis
Encoding: 196 196 133
Width: 550
GlyphClass: 2
Flags: W
LayerCount: 2
Fore
SplineSet
506 0 m 1,0,-1
 446 175 l 1,1,-1
 103 175 l 1,2,-1
 42 0 l 1,3,-1
 14 0 l 1,4,-1
 257 696 l 1,5,-1
 293 696 l 1,6,-1
 536 0 l 1,7,-1
 506 0 l 1,0,-1
274 670 m 1,8,-1
 211 489 l 1,9,-1
 111 200 l 1,10,-1
 437 200 l 1,11,-1
 276 670 l 1,12,-1
 274 670 l 1,8,-1
330 783 m 1,13,-1
 330 819 l 1,14,-1
 368 819 l 1,15,-1
 368 783 l 1,16,-1
 330 783 l 1,13,-1
176 783 m 1,17,-1
 176 819 l 1,18,-1
 214 819 l 1,19,-1
 214 783 l 1,20,-1
 176 783 l 1,17,-1
EndSplineSet
Validated: 1
EndChar

StartChar: Aring
Encoding: 197 197 134
Width: 550
GlyphClass: 2
Flags: W
LayerCount: 2
Fore
SplineSet
506 0 m 1,0,-1
 446 175 l 1,1,-1
 103 175 l 1,2,-1
 42 0 l 1,3,-1
 14 0 l 1,4,-1
 257 696 l 1,5,-1
 293 696 l 1,6,-1
 536 0 l 1,7,-1
 506 0 l 1,0,-1
274 670 m 1,8,-1
 211 489 l 1,9,-1
 111 200 l 1,10,-1
 437 200 l 1,11,-1
 276 670 l 1,12,-1
 274 670 l 1,8,-1
274 725 m 0,13,14
 239 725 239 725 213.5 750.5 c 128,-1,15
 188 776 188 776 188 811 c 0,16,17
 188 847 188 847 213 871.5 c 128,-1,18
 238 896 238 896 274 896 c 128,-1,19
 310 896 310 896 335.5 871.5 c 128,-1,20
 361 847 361 847 361 811 c 0,21,22
 361 776 361 776 335.5 750.5 c 128,-1,23
 310 725 310 725 274 725 c 0,13,14
274 878 m 128,-1,25
 246 878 246 878 227 858.5 c 128,-1,26
 208 839 208 839 208 811 c 128,-1,27
 208 783 208 783 227 763.5 c 128,-1,28
 246 744 246 744 274 744 c 128,-1,29
 302 744 302 744 321.5 763.5 c 128,-1,30
 341 783 341 783 341 811 c 128,-1,31
 341 839 341 839 321.5 858.5 c 128,-1,24
 302 878 302 878 274 878 c 128,-1,25
EndSplineSet
Validated: 1
EndChar

StartChar: AE
Encoding: 198 198 135
Width: 550
GlyphClass: 2
Flags: W
LayerCount: 2
Fore
SplineSet
294 0 m 1,0,-1
 294 176 l 1,1,-1
 104 176 l 1,2,-1
 36 0 l 1,3,-1
 7 0 l 1,4,-1
 278 696 l 1,5,-1
 532 696 l 1,6,-1
 532 672 l 1,7,-1
 321 672 l 1,8,-1
 321 380 l 1,9,-1
 516 380 l 1,10,-1
 516 356 l 1,11,-1
 321 356 l 1,12,-1
 321 24 l 1,13,-1
 546 24 l 1,14,-1
 546 0 l 1,15,-1
 294 0 l 1,0,-1
113 200 m 1,16,-1
 294 200 l 1,17,-1
 294 668 l 1,18,-1
 292 668 l 1,19,-1
 113 200 l 1,16,-1
EndSplineSet
Validated: 1
EndChar

StartChar: Ccedilla
Encoding: 199 199 136
Width: 550
GlyphClass: 2
Flags: W
LayerCount: 2
Fore
SplineSet
496 141 m 1,0,-1
 518 132 l 1,1,2
 492 70 492 70 434.5 32 c 128,-1,3
 377 -6 377 -6 303 -7 c 1,4,-1
 290 -46 l 1,5,6
 381 -54 381 -54 381 -119 c 0,7,8
 381 -144 381 -144 359 -165 c 128,-1,9
 337 -186 337 -186 289 -186 c 0,10,11
 256 -186 256 -186 227 -174 c 1,12,-1
 234 -155 l 1,13,14
 263 -165 263 -165 289 -165 c 0,15,16
 316 -165 316 -165 335.5 -154 c 128,-1,17
 355 -143 355 -143 355 -117 c 0,18,19
 355 -93 355 -93 330 -79 c 128,-1,20
 305 -65 305 -65 269 -65 c 1,21,-1
 264 -61 l 1,22,-1
 281 -6 l 1,23,24
 169 0 169 0 114.5 69 c 128,-1,25
 60 138 60 138 60 243 c 2,26,-1
 60 458 l 2,27,28
 60 562 60 562 121.5 631.5 c 128,-1,29
 183 701 183 701 297 701 c 0,30,31
 370 701 370 701 424 668 c 128,-1,32
 478 635 478 635 505 579 c 1,33,-1
 484 566 l 1,34,35
 461 616 461 616 412 647 c 128,-1,36
 363 678 363 678 298 678 c 0,37,38
 195 678 195 678 140.5 615.5 c 128,-1,39
 86 553 86 553 86 456 c 2,40,-1
 86 238 l 2,41,42
 86 141 86 141 140 78.5 c 128,-1,43
 194 16 194 16 301 16 c 0,44,45
 367 16 367 16 417.5 49.5 c 128,-1,46
 468 83 468 83 496 141 c 1,0,-1
EndSplineSet
Validated: 1
EndChar

StartChar: Egrave
Encoding: 200 200 137
Width: 550
GlyphClass: 2
Flags: W
LayerCount: 2
Fore
SplineSet
84 0 m 1,0,-1
 84 696 l 1,1,-1
 481 696 l 1,2,-1
 481 672 l 1,3,-1
 111 672 l 1,4,-1
 111 378 l 1,5,-1
 445 378 l 1,6,-1
 445 354 l 1,7,-1
 111 354 l 1,8,-1
 111 24 l 1,9,-1
 509 24 l 1,10,-1
 509 0 l 1,11,-1
 84 0 l 1,0,-1
344 767 m 1,12,-1
 333 754 l 1,13,-1
 191 842 l 1,14,-1
 215 868 l 1,15,-1
 344 767 l 1,12,-1
EndSplineSet
Validated: 1
EndChar

StartChar: Eacute
Encoding: 201 201 138
Width: 550
GlyphClass: 2
Flags: W
LayerCount: 2
Fore
SplineSet
258 754 m 1,0,-1
 247 767 l 1,1,-1
 376 868 l 1,2,-1
 400 842 l 1,3,-1
 258 754 l 1,0,-1
84 0 m 1,4,-1
 84 696 l 1,5,-1
 481 696 l 1,6,-1
 481 672 l 1,7,-1
 111 672 l 1,8,-1
 111 378 l 1,9,-1
 445 378 l 1,10,-1
 445 354 l 1,11,-1
 111 354 l 1,12,-1
 111 24 l 1,13,-1
 509 24 l 1,14,-1
 509 0 l 1,15,-1
 84 0 l 1,4,-1
EndSplineSet
Validated: 1
EndChar

StartChar: Ecircumflex
Encoding: 202 202 139
Width: 550
GlyphClass: 2
Flags: W
LayerCount: 2
Fore
SplineSet
84 0 m 1,0,-1
 84 696 l 1,1,-1
 481 696 l 1,2,-1
 481 672 l 1,3,-1
 111 672 l 1,4,-1
 111 378 l 1,5,-1
 445 378 l 1,6,-1
 445 354 l 1,7,-1
 111 354 l 1,8,-1
 111 24 l 1,9,-1
 509 24 l 1,10,-1
 509 0 l 1,11,-1
 84 0 l 1,0,-1
404 746 m 1,12,-1
 282 828 l 1,13,-1
 159 745 l 1,14,-1
 147 758 l 1,15,-1
 269 858 l 1,16,-1
 298 858 l 1,17,-1
 416 758 l 1,18,-1
 404 746 l 1,12,-1
EndSplineSet
Validated: 1
EndChar

StartChar: Edieresis
Encoding: 203 203 140
Width: 550
GlyphClass: 2
Flags: W
LayerCount: 2
Fore
SplineSet
84 0 m 1,0,-1
 84 696 l 1,1,-1
 481 696 l 1,2,-1
 481 672 l 1,3,-1
 111 672 l 1,4,-1
 111 378 l 1,5,-1
 445 378 l 1,6,-1
 445 354 l 1,7,-1
 111 354 l 1,8,-1
 111 24 l 1,9,-1
 509 24 l 1,10,-1
 509 0 l 1,11,-1
 84 0 l 1,0,-1
329 783 m 1,12,-1
 329 819 l 1,13,-1
 367 819 l 1,14,-1
 367 783 l 1,15,-1
 329 783 l 1,12,-1
175 783 m 1,16,-1
 175 819 l 1,17,-1
 213 819 l 1,18,-1
 213 783 l 1,19,-1
 175 783 l 1,16,-1
EndSplineSet
Validated: 1
EndChar

StartChar: Igrave
Encoding: 204 204 141
Width: 550
GlyphClass: 2
Flags: W
LayerCount: 2
Fore
SplineSet
262 673 m 1,0,-1
 262 696 l 1,1,-1
 288 696 l 1,2,-1
 288 673 l 1,3,-1
 288 673 l 1,4,-1
 288 23 l 1,5,-1
 288 23 l 1,6,-1
 288 0 l 1,7,-1
 262 0 l 1,8,-1
 262 23 l 1,9,-1
 262 23 l 1,10,-1
 262 673 l 1,11,-1
 262 673 l 1,0,-1
291 767 m 1,12,-1
 280 754 l 1,13,-1
 138 842 l 1,14,-1
 162 868 l 1,15,-1
 291 767 l 1,12,-1
EndSplineSet
Validated: 1
EndChar

StartChar: Iacute
Encoding: 205 205 142
Width: 550
GlyphClass: 2
Flags: W
LayerCount: 2
Fore
SplineSet
262 673 m 1,0,-1
 262 696 l 1,1,-1
 288 696 l 1,2,-1
 288 673 l 1,3,-1
 288 673 l 1,4,-1
 288 23 l 1,5,-1
 288 23 l 1,6,-1
 288 0 l 1,7,-1
 262 0 l 1,8,-1
 262 23 l 1,9,-1
 262 23 l 1,10,-1
 262 673 l 1,11,-1
 262 673 l 1,0,-1
271 754 m 1,12,-1
 260 767 l 1,13,-1
 389 868 l 1,14,-1
 413 842 l 1,15,-1
 271 754 l 1,12,-1
EndSplineSet
Validated: 1
EndChar

StartChar: Icircumflex
Encoding: 206 206 143
Width: 550
GlyphClass: 2
Flags: W
LayerCount: 2
Fore
SplineSet
262 673 m 5,0,-1
 262 696 l 5,1,-1
 288 696 l 1,2,-1
 288 673 l 1,3,-1
 288 673 l 1,4,-1
 288 23 l 1,5,-1
 288 23 l 1,6,-1
 288 0 l 1,7,-1
 262 0 l 5,8,-1
 262 23 l 5,9,-1
 262 23 l 1,10,-1
 262 673 l 1,11,-1
 262 673 l 5,0,-1
399 749 m 1,12,-1
 277 831 l 1,13,-1
 154 748 l 1,14,-1
 142 761 l 1,15,-1
 264 861 l 1,16,-1
 293 861 l 1,17,-1
 411 761 l 1,18,-1
 399 749 l 1,12,-1
EndSplineSet
Validated: 1
EndChar

StartChar: Idieresis
Encoding: 207 207 144
Width: 550
GlyphClass: 2
Flags: W
LayerCount: 2
Fore
SplineSet
262 673 m 1,0,-1
 262 696 l 1,1,-1
 288 696 l 5,2,-1
 288 673 l 5,3,-1
 288 673 l 1,4,-1
 288 23 l 1,5,-1
 288 23 l 5,6,-1
 288 0 l 5,7,-1
 262 0 l 1,8,-1
 262 23 l 1,9,-1
 262 23 l 1,10,-1
 262 673 l 1,11,-1
 262 673 l 1,0,-1
333 783 m 1,12,-1
 333 819 l 1,13,-1
 371 819 l 1,14,-1
 371 783 l 1,15,-1
 333 783 l 1,12,-1
179 783 m 1,16,-1
 179 819 l 1,17,-1
 217 819 l 1,18,-1
 217 783 l 1,19,-1
 179 783 l 1,16,-1
EndSplineSet
Validated: 1
EndChar

StartChar: Eth
Encoding: 208 208 145
Width: 550
GlyphClass: 2
Flags: W
LayerCount: 2
Fore
SplineSet
15 365 m 1,0,-1
 15 388 l 1,1,-1
 57 388 l 1,2,-1
 57 696 l 1,3,-1
 269 696 l 2,4,5
 429 696 429 696 487 572 c 0,6,7
 511 521 511 521 511 361 c 0,8,9
 511 187 511 187 488 132 c 0,10,11
 458 61 458 61 401.5 30.5 c 128,-1,12
 345 0 345 0 257 0 c 2,13,-1
 57 0 l 1,14,-1
 57 365 l 1,15,-1
 15 365 l 1,0,-1
485 271 m 2,16,-1
 485 419 l 2,17,18
 485 556 485 556 428 614 c 128,-1,19
 371 672 371 672 261 672 c 2,20,-1
 84 672 l 1,21,-1
 84 388 l 1,22,-1
 274 388 l 1,23,-1
 274 365 l 1,24,-1
 84 365 l 1,25,-1
 84 24 l 1,26,-1
 261 24 l 2,27,28
 485 24 485 24 485 271 c 2,16,-1
EndSplineSet
Validated: 1
EndChar

StartChar: Ntilde
Encoding: 209 209 146
Width: 550
GlyphClass: 2
Flags: W
LayerCount: 2
Fore
SplineSet
454 0 m 1,0,-1
 94 653 l 1,1,-1
 94 0 l 1,2,-1
 68 0 l 1,3,-1
 68 696 l 1,4,-1
 97 696 l 1,5,-1
 457 42 l 1,6,-1
 457 696 l 1,7,-1
 483 696 l 1,8,-1
 483 0 l 1,9,-1
 454 0 l 1,0,-1
224 819 m 0,10,11
 244 819 244 819 286.5 799 c 128,-1,12
 329 779 329 779 345 779 c 0,13,14
 371 779 371 779 398 818 c 1,15,-1
 418 806 l 1,16,17
 387 752 387 752 344 752 c 0,18,19
 326 752 326 752 283.5 772 c 128,-1,20
 241 792 241 792 222 792 c 0,21,22
 189 792 189 792 158 754 c 1,23,-1
 139 766 l 1,24,25
 176 819 176 819 224 819 c 0,10,11
EndSplineSet
Validated: 1
EndChar

StartChar: Ograve
Encoding: 210 210 147
Width: 550
GlyphClass: 2
Flags: W
LayerCount: 2
Fore
SplineSet
277 701 m 0,0,1
 385 701 385 701 447.5 634 c 128,-1,2
 510 567 510 567 510 458 c 2,3,-1
 510 243 l 2,4,5
 510 128 510 128 447.5 60.5 c 128,-1,6
 385 -7 385 -7 277 -7 c 0,7,8
 160 -7 160 -7 100 63.5 c 128,-1,9
 40 134 40 134 40 243 c 2,10,-1
 40 458 l 2,11,12
 40 562 40 562 101.5 631.5 c 128,-1,13
 163 701 163 701 277 701 c 0,0,1
278 676 m 0,14,15
 177 676 177 676 122 614 c 128,-1,16
 67 552 67 552 67 456 c 2,17,-1
 67 238 l 2,18,19
 67 144 67 144 122 80.5 c 128,-1,20
 177 17 177 17 278 17 c 0,21,22
 373 17 373 17 428 80 c 128,-1,23
 483 143 483 143 483 244 c 2,24,-1
 483 456 l 2,25,26
 483 552 483 552 428 614 c 128,-1,27
 373 676 373 676 278 676 c 0,14,15
292 767 m 1,28,-1
 281 754 l 1,29,-1
 139 842 l 1,30,-1
 163 868 l 1,31,-1
 292 767 l 1,28,-1
EndSplineSet
Validated: 1
EndChar

StartChar: Oacute
Encoding: 211 211 148
Width: 550
GlyphClass: 2
Flags: W
LayerCount: 2
Fore
SplineSet
277 701 m 0,0,1
 385 701 385 701 447.5 634 c 128,-1,2
 510 567 510 567 510 458 c 2,3,-1
 510 243 l 2,4,5
 510 128 510 128 447.5 60.5 c 128,-1,6
 385 -7 385 -7 277 -7 c 0,7,8
 160 -7 160 -7 100 63.5 c 128,-1,9
 40 134 40 134 40 243 c 2,10,-1
 40 458 l 2,11,12
 40 562 40 562 101.5 631.5 c 128,-1,13
 163 701 163 701 277 701 c 0,0,1
278 676 m 0,14,15
 177 676 177 676 122 614 c 128,-1,16
 67 552 67 552 67 456 c 2,17,-1
 67 238 l 2,18,19
 67 144 67 144 122 80.5 c 128,-1,20
 177 17 177 17 278 17 c 0,21,22
 373 17 373 17 428 80 c 128,-1,23
 483 143 483 143 483 244 c 2,24,-1
 483 456 l 2,25,26
 483 552 483 552 428 614 c 128,-1,27
 373 676 373 676 278 676 c 0,14,15
275 754 m 1,28,-1
 264 767 l 1,29,-1
 393 868 l 1,30,-1
 417 842 l 1,31,-1
 275 754 l 1,28,-1
EndSplineSet
Validated: 1
EndChar

StartChar: Ocircumflex
Encoding: 212 212 149
Width: 550
GlyphClass: 2
Flags: W
LayerCount: 2
Fore
SplineSet
277 701 m 0,0,1
 385 701 385 701 447.5 634 c 128,-1,2
 510 567 510 567 510 458 c 2,3,-1
 510 243 l 2,4,5
 510 128 510 128 447.5 60.5 c 128,-1,6
 385 -7 385 -7 277 -7 c 0,7,8
 160 -7 160 -7 100 63.5 c 128,-1,9
 40 134 40 134 40 243 c 2,10,-1
 40 458 l 2,11,12
 40 562 40 562 101.5 631.5 c 128,-1,13
 163 701 163 701 277 701 c 0,0,1
278 676 m 0,14,15
 177 676 177 676 122 614 c 128,-1,16
 67 552 67 552 67 456 c 2,17,-1
 67 238 l 2,18,19
 67 144 67 144 122 80.5 c 128,-1,20
 177 17 177 17 278 17 c 0,21,22
 373 17 373 17 428 80 c 128,-1,23
 483 143 483 143 483 244 c 2,24,-1
 483 456 l 2,25,26
 483 552 483 552 428 614 c 128,-1,27
 373 676 373 676 278 676 c 0,14,15
404 746 m 1,28,-1
 282 828 l 1,29,-1
 159 745 l 1,30,-1
 147 758 l 1,31,-1
 269 858 l 1,32,-1
 298 858 l 1,33,-1
 416 758 l 1,34,-1
 404 746 l 1,28,-1
EndSplineSet
Validated: 1
EndChar

StartChar: Otilde
Encoding: 213 213 150
Width: 550
GlyphClass: 2
Flags: W
LayerCount: 2
Fore
SplineSet
277 701 m 0,0,1
 385 701 385 701 447.5 634 c 128,-1,2
 510 567 510 567 510 458 c 2,3,-1
 510 243 l 2,4,5
 510 128 510 128 447.5 60.5 c 128,-1,6
 385 -7 385 -7 277 -7 c 0,7,8
 160 -7 160 -7 100 63.5 c 128,-1,9
 40 134 40 134 40 243 c 2,10,-1
 40 458 l 2,11,12
 40 562 40 562 101.5 631.5 c 128,-1,13
 163 701 163 701 277 701 c 0,0,1
278 676 m 0,14,15
 177 676 177 676 122 614 c 128,-1,16
 67 552 67 552 67 456 c 2,17,-1
 67 238 l 2,18,19
 67 144 67 144 122 80.5 c 128,-1,20
 177 17 177 17 278 17 c 0,21,22
 373 17 373 17 428 80 c 128,-1,23
 483 143 483 143 483 244 c 2,24,-1
 483 456 l 2,25,26
 483 552 483 552 428 614 c 128,-1,27
 373 676 373 676 278 676 c 0,14,15
225 839 m 0,28,29
 245 839 245 839 287.5 819 c 128,-1,30
 330 799 330 799 346 799 c 0,31,32
 372 799 372 799 399 838 c 1,33,-1
 419 826 l 1,34,35
 388 772 388 772 345 772 c 0,36,37
 327 772 327 772 284.5 792 c 128,-1,38
 242 812 242 812 223 812 c 0,39,40
 190 812 190 812 159 774 c 1,41,-1
 140 786 l 1,42,43
 177 839 177 839 225 839 c 0,28,29
EndSplineSet
Validated: 1
EndChar

StartChar: Odieresis
Encoding: 214 214 151
Width: 550
GlyphClass: 2
Flags: W
LayerCount: 2
Fore
SplineSet
277 701 m 0,0,1
 385 701 385 701 447.5 634 c 128,-1,2
 510 567 510 567 510 458 c 2,3,-1
 510 243 l 2,4,5
 510 128 510 128 447.5 60.5 c 128,-1,6
 385 -7 385 -7 277 -7 c 0,7,8
 160 -7 160 -7 100 63.5 c 128,-1,9
 40 134 40 134 40 243 c 2,10,-1
 40 458 l 2,11,12
 40 562 40 562 101.5 631.5 c 128,-1,13
 163 701 163 701 277 701 c 0,0,1
278 676 m 0,14,15
 177 676 177 676 122 614 c 128,-1,16
 67 552 67 552 67 456 c 2,17,-1
 67 238 l 2,18,19
 67 144 67 144 122 80.5 c 128,-1,20
 177 17 177 17 278 17 c 0,21,22
 373 17 373 17 428 80 c 128,-1,23
 483 143 483 143 483 244 c 2,24,-1
 483 456 l 2,25,26
 483 552 483 552 428 614 c 128,-1,27
 373 676 373 676 278 676 c 0,14,15
336 783 m 1,28,-1
 336 819 l 1,29,-1
 374 819 l 1,30,-1
 374 783 l 1,31,-1
 336 783 l 1,28,-1
182 783 m 1,32,-1
 182 819 l 1,33,-1
 220 819 l 1,34,-1
 220 783 l 1,35,-1
 182 783 l 1,32,-1
EndSplineSet
Validated: 1
EndChar

StartChar: multiply
Encoding: 215 215 152
Width: 550
GlyphClass: 2
Flags: W
LayerCount: 2
Fore
SplineSet
275 255 m 1,0,-1
 116 96 l 1,1,-1
 99 112 l 1,2,-1
 259 272 l 1,3,-1
 105 426 l 1,4,-1
 122 443 l 1,5,-1
 276 289 l 1,6,-1
 434 446 l 1,7,-1
 450 430 l 1,8,-1
 292 272 l 1,9,-1
 447 118 l 1,10,-1
 430 101 l 1,11,-1
 275 255 l 1,0,-1
EndSplineSet
Validated: 1
EndChar

StartChar: Oslash
Encoding: 216 216 153
Width: 550
GlyphClass: 2
Flags: W
LayerCount: 2
Fore
SplineSet
277 701 m 0,0,1
 385 701 385 701 448 633 c 1,2,-1
 491 700 l 1,3,-1
 510 688 l 1,4,-1
 463 615 l 1,5,6
 510 551 510 551 510 458 c 2,7,-1
 510 243 l 2,8,9
 510 128 510 128 447.5 60.5 c 128,-1,10
 385 -7 385 -7 277 -7 c 0,11,12
 165 -7 165 -7 102 62 c 1,13,-1
 59 -4 l 1,14,-1
 40 9 l 1,15,-1
 86 80 l 1,16,17
 40 145 40 145 40 243 c 2,18,-1
 40 458 l 2,19,20
 40 562 40 562 101.5 631.5 c 128,-1,21
 163 701 163 701 277 701 c 0,0,1
483 456 m 2,22,23
 483 533 483 533 446 590 c 1,24,-1
 117 86 l 1,25,26
 174 17 174 17 278 17 c 0,27,28
 373 17 373 17 428 80 c 128,-1,29
 483 143 483 143 483 244 c 2,30,-1
 483 456 l 2,22,23
278 676 m 0,31,32
 177 676 177 676 122 614 c 128,-1,33
 67 552 67 552 67 456 c 2,34,-1
 67 238 l 2,35,36
 67 162 67 162 103 105 c 1,37,-1
 432 609 l 1,38,39
 376 676 376 676 278 676 c 0,31,32
EndSplineSet
Validated: 1
EndChar

StartChar: Ugrave
Encoding: 217 217 154
Width: 550
GlyphClass: 2
Flags: W
LayerCount: 2
Fore
SplineSet
275 -7 m 0,0,1
 173 -7 173 -7 112 53.5 c 128,-1,2
 51 114 51 114 51 224 c 2,3,-1
 51 696 l 1,4,-1
 77 696 l 1,5,-1
 77 236 l 2,6,7
 77 133 77 133 128.5 75 c 128,-1,8
 180 17 180 17 275 17 c 0,9,10
 368 17 368 17 420 71 c 128,-1,11
 472 125 472 125 472 225 c 2,12,-1
 472 696 l 1,13,-1
 499 696 l 1,14,-1
 499 214 l 2,15,16
 499 112 499 112 438.5 52.5 c 128,-1,17
 378 -7 378 -7 275 -7 c 0,0,1
300 767 m 1,18,-1
 289 754 l 1,19,-1
 147 842 l 1,20,-1
 171 868 l 1,21,-1
 300 767 l 1,18,-1
EndSplineSet
Validated: 1
EndChar

StartChar: Uacute
Encoding: 218 218 155
Width: 550
GlyphClass: 2
Flags: W
LayerCount: 2
Fore
SplineSet
275 -7 m 0,0,1
 173 -7 173 -7 112 53.5 c 128,-1,2
 51 114 51 114 51 224 c 2,3,-1
 51 696 l 1,4,-1
 77 696 l 1,5,-1
 77 236 l 2,6,7
 77 133 77 133 128.5 75 c 128,-1,8
 180 17 180 17 275 17 c 0,9,10
 368 17 368 17 420 71 c 128,-1,11
 472 125 472 125 472 225 c 2,12,-1
 472 696 l 1,13,-1
 499 696 l 1,14,-1
 499 214 l 2,15,16
 499 112 499 112 438.5 52.5 c 128,-1,17
 378 -7 378 -7 275 -7 c 0,0,1
249 754 m 1,18,-1
 238 767 l 1,19,-1
 367 868 l 1,20,-1
 391 842 l 1,21,-1
 249 754 l 1,18,-1
EndSplineSet
Validated: 1
EndChar

StartChar: Ucircumflex
Encoding: 219 219 156
Width: 550
GlyphClass: 2
Flags: W
LayerCount: 2
Fore
SplineSet
275 -7 m 0,0,1
 173 -7 173 -7 112 53.5 c 128,-1,2
 51 114 51 114 51 224 c 2,3,-1
 51 696 l 1,4,-1
 77 696 l 1,5,-1
 77 236 l 2,6,7
 77 133 77 133 128.5 75 c 128,-1,8
 180 17 180 17 275 17 c 0,9,10
 368 17 368 17 420 71 c 128,-1,11
 472 125 472 125 472 225 c 2,12,-1
 472 696 l 1,13,-1
 499 696 l 1,14,-1
 499 214 l 2,15,16
 499 112 499 112 438.5 52.5 c 128,-1,17
 378 -7 378 -7 275 -7 c 0,0,1
397 746 m 1,18,-1
 275 828 l 1,19,-1
 152 745 l 1,20,-1
 140 758 l 1,21,-1
 262 858 l 1,22,-1
 291 858 l 1,23,-1
 409 758 l 1,24,-1
 397 746 l 1,18,-1
EndSplineSet
Validated: 1
EndChar

StartChar: Udieresis
Encoding: 220 220 157
Width: 550
GlyphClass: 2
Flags: W
LayerCount: 2
Fore
SplineSet
275 -7 m 0,0,1
 173 -7 173 -7 112 53.5 c 128,-1,2
 51 114 51 114 51 224 c 2,3,-1
 51 696 l 1,4,-1
 77 696 l 1,5,-1
 77 236 l 2,6,7
 77 133 77 133 128.5 75 c 128,-1,8
 180 17 180 17 275 17 c 0,9,10
 368 17 368 17 420 71 c 128,-1,11
 472 125 472 125 472 225 c 2,12,-1
 472 696 l 1,13,-1
 499 696 l 1,14,-1
 499 214 l 2,15,16
 499 112 499 112 438.5 52.5 c 128,-1,17
 378 -7 378 -7 275 -7 c 0,0,1
332 783 m 1,18,-1
 332 819 l 1,19,-1
 370 819 l 1,20,-1
 370 783 l 1,21,-1
 332 783 l 1,18,-1
178 783 m 1,22,-1
 178 819 l 1,23,-1
 216 819 l 1,24,-1
 216 783 l 1,25,-1
 178 783 l 1,22,-1
EndSplineSet
Validated: 1
EndChar

StartChar: Yacute
Encoding: 221 221 158
Width: 550
GlyphClass: 2
Flags: W
LayerCount: 2
Fore
SplineSet
288 289 m 1,0,-1
 288 0 l 1,1,-1
 263 0 l 1,2,-1
 263 289 l 1,3,-1
 55 696 l 1,4,-1
 82 696 l 1,5,-1
 276 315 l 1,6,-1
 469 696 l 1,7,-1
 495 696 l 1,8,-1
 288 289 l 1,0,-1
264 754 m 1,9,-1
 253 767 l 1,10,-1
 382 868 l 1,11,-1
 406 842 l 1,12,-1
 264 754 l 1,9,-1
EndSplineSet
Validated: 1
EndChar

StartChar: Thorn
Encoding: 222 222 159
Width: 550
GlyphClass: 2
Flags: W
LayerCount: 2
Fore
SplineSet
80 696 m 1,0,-1
 107 696 l 1,1,-1
 107 543 l 1,2,-1
 295 543 l 2,3,4
 386 543 386 543 445 495 c 128,-1,5
 504 447 504 447 504 345 c 0,6,7
 504 270 504 270 452.5 212 c 128,-1,8
 401 154 401 154 303 154 c 2,9,-1
 107 154 l 1,10,-1
 107 0 l 1,11,-1
 80 0 l 1,12,-1
 80 696 l 1,0,-1
107 519 m 1,13,-1
 107 179 l 1,14,-1
 298 179 l 2,15,16
 387 179 387 179 431 228.5 c 128,-1,17
 475 278 475 278 475 348 c 0,18,19
 475 431 475 431 424 475 c 128,-1,20
 373 519 373 519 294 519 c 2,21,-1
 107 519 l 1,13,-1
EndSplineSet
Validated: 1
EndChar

StartChar: germandbls
Encoding: 223 223 160
Width: 550
GlyphClass: 2
Flags: W
LayerCount: 2
Fore
SplineSet
464 228 m 0,0,1
 464 106 464 106 414.5 53 c 128,-1,2
 365 0 365 0 291 0 c 2,3,-1
 264 0 l 1,4,-1
 264 23 l 1,5,-1
 285 23 l 2,6,7
 362 23 362 23 400 78.5 c 128,-1,8
 438 134 438 134 438 229 c 0,9,10
 438 310 438 310 395.5 356 c 128,-1,11
 353 402 353 402 289 402 c 2,12,-1
 282 402 l 1,13,-1
 282 423 l 1,14,-1
 291 423 l 2,15,16
 344 423 344 423 377.5 465 c 128,-1,17
 411 507 411 507 411 557 c 0,18,19
 411 612 411 612 375 655.5 c 128,-1,20
 339 699 339 699 262 699 c 0,21,22
 219 699 219 699 187.5 682.5 c 128,-1,23
 156 666 156 666 140 639.5 c 128,-1,24
 124 613 124 613 117 586 c 128,-1,25
 110 559 110 559 110 531 c 2,26,-1
 110 0 l 1,27,-1
 85 0 l 1,28,-1
 85 533 l 2,29,30
 85 618 85 618 131.5 669.5 c 128,-1,31
 178 721 178 721 266 721 c 0,32,33
 345 721 345 721 391 675 c 128,-1,34
 437 629 437 629 437 567 c 0,35,36
 437 522 437 522 417 480.5 c 128,-1,37
 397 439 397 439 351 417 c 1,38,-1
 351 414 l 1,39,40
 408 396 408 396 436 345 c 128,-1,41
 464 294 464 294 464 228 c 0,0,1
EndSplineSet
Validated: 1
EndChar

StartChar: agrave
Encoding: 224 224 161
Width: 550
GlyphClass: 2
Flags: W
LayerCount: 2
Fore
SplineSet
415 60 m 1,0,-1
 413 60 l 1,1,2
 371 -7 371 -7 234 -7 c 0,3,4
 162 -7 162 -7 111 28 c 128,-1,5
 60 63 60 63 60 133 c 0,6,7
 60 196 60 196 101.5 232 c 128,-1,8
 143 268 143 268 220 268 c 2,9,-1
 415 268 l 1,10,-1
 415 346 l 2,11,12
 415 412 415 412 379 445.5 c 128,-1,13
 343 479 343 479 257 479 c 0,14,15
 167 479 167 479 109 428 c 1,16,-1
 93 445 l 1,17,18
 155 501 155 501 260 501 c 0,19,20
 344 501 344 501 392 468.5 c 128,-1,21
 440 436 440 436 440 351 c 2,22,-1
 440 0 l 1,23,-1
 415 0 l 1,24,-1
 415 60 l 1,0,-1
415 246 m 1,25,-1
 225 246 l 2,26,27
 85 246 85 246 85 133 c 0,28,29
 85 76 85 76 126.5 45.5 c 128,-1,30
 168 15 168 15 238 15 c 0,31,32
 277 15 277 15 313.5 22.5 c 128,-1,33
 350 30 350 30 382.5 57 c 128,-1,34
 415 84 415 84 415 127 c 2,35,-1
 415 246 l 1,25,-1
304 587 m 1,36,-1
 289 579 l 1,37,-1
 190 713 l 1,38,-1
 222 729 l 1,39,-1
 304 587 l 1,36,-1
EndSplineSet
Validated: 1
EndChar

StartChar: aacute
Encoding: 225 225 162
Width: 550
GlyphClass: 2
Flags: W
LayerCount: 2
Fore
SplineSet
415 60 m 1,0,-1
 413 60 l 1,1,2
 371 -7 371 -7 234 -7 c 0,3,4
 162 -7 162 -7 111 28 c 128,-1,5
 60 63 60 63 60 133 c 0,6,7
 60 196 60 196 101.5 232 c 128,-1,8
 143 268 143 268 220 268 c 2,9,-1
 415 268 l 1,10,-1
 415 346 l 2,11,12
 415 412 415 412 379 445.5 c 128,-1,13
 343 479 343 479 257 479 c 0,14,15
 167 479 167 479 109 428 c 1,16,-1
 93 445 l 1,17,18
 155 501 155 501 260 501 c 0,19,20
 344 501 344 501 392 468.5 c 128,-1,21
 440 436 440 436 440 351 c 2,22,-1
 440 0 l 1,23,-1
 415 0 l 1,24,-1
 415 60 l 1,0,-1
415 246 m 1,25,-1
 225 246 l 2,26,27
 85 246 85 246 85 133 c 0,28,29
 85 76 85 76 126.5 45.5 c 128,-1,30
 168 15 168 15 238 15 c 0,31,32
 277 15 277 15 313.5 22.5 c 128,-1,33
 350 30 350 30 382.5 57 c 128,-1,34
 415 84 415 84 415 127 c 2,35,-1
 415 246 l 1,25,-1
275 579 m 1,36,-1
 260 587 l 1,37,-1
 342 729 l 1,38,-1
 374 713 l 1,39,-1
 275 579 l 1,36,-1
EndSplineSet
Validated: 1
EndChar

StartChar: acircumflex
Encoding: 226 226 163
Width: 550
GlyphClass: 2
Flags: W
LayerCount: 2
Fore
SplineSet
415 60 m 1,0,-1
 413 60 l 1,1,2
 371 -7 371 -7 234 -7 c 0,3,4
 162 -7 162 -7 111 28 c 128,-1,5
 60 63 60 63 60 133 c 0,6,7
 60 196 60 196 101.5 232 c 128,-1,8
 143 268 143 268 220 268 c 2,9,-1
 415 268 l 1,10,-1
 415 346 l 2,11,12
 415 412 415 412 379 445.5 c 128,-1,13
 343 479 343 479 257 479 c 0,14,15
 167 479 167 479 109 428 c 1,16,-1
 93 445 l 1,17,18
 155 501 155 501 260 501 c 0,19,20
 344 501 344 501 392 468.5 c 128,-1,21
 440 436 440 436 440 351 c 2,22,-1
 440 0 l 1,23,-1
 415 0 l 1,24,-1
 415 60 l 1,0,-1
415 246 m 1,25,-1
 225 246 l 2,26,27
 85 246 85 246 85 133 c 0,28,29
 85 76 85 76 126.5 45.5 c 128,-1,30
 168 15 168 15 238 15 c 0,31,32
 277 15 277 15 313.5 22.5 c 128,-1,33
 350 30 350 30 382.5 57 c 128,-1,34
 415 84 415 84 415 127 c 2,35,-1
 415 246 l 1,25,-1
387 569 m 1,36,-1
 265 661 l 1,37,-1
 142 568 l 1,38,-1
 130 581 l 1,39,-1
 252 691 l 1,40,-1
 281 691 l 1,41,-1
 399 581 l 1,42,-1
 387 569 l 1,36,-1
EndSplineSet
Validated: 1
EndChar

StartChar: atilde
Encoding: 227 227 164
Width: 550
GlyphClass: 2
Flags: W
LayerCount: 2
Fore
SplineSet
415 60 m 1,0,-1
 413 60 l 1,1,2
 371 -7 371 -7 234 -7 c 0,3,4
 162 -7 162 -7 111 28 c 128,-1,5
 60 63 60 63 60 133 c 0,6,7
 60 196 60 196 101.5 232 c 128,-1,8
 143 268 143 268 220 268 c 2,9,-1
 415 268 l 1,10,-1
 415 346 l 2,11,12
 415 412 415 412 379 445.5 c 128,-1,13
 343 479 343 479 257 479 c 0,14,15
 167 479 167 479 109 428 c 1,16,-1
 93 445 l 1,17,18
 155 501 155 501 260 501 c 0,19,20
 344 501 344 501 392 468.5 c 128,-1,21
 440 436 440 436 440 351 c 2,22,-1
 440 0 l 1,23,-1
 415 0 l 1,24,-1
 415 60 l 1,0,-1
415 246 m 1,25,-1
 225 246 l 2,26,27
 85 246 85 246 85 133 c 0,28,29
 85 76 85 76 126.5 45.5 c 128,-1,30
 168 15 168 15 238 15 c 0,31,32
 277 15 277 15 313.5 22.5 c 128,-1,33
 350 30 350 30 382.5 57 c 128,-1,34
 415 84 415 84 415 127 c 2,35,-1
 415 246 l 1,25,-1
211 669 m 0,36,37
 231 669 231 669 273.5 649 c 128,-1,38
 316 629 316 629 332 629 c 0,39,40
 358 629 358 629 385 668 c 1,41,-1
 405 656 l 1,42,43
 374 602 374 602 331 602 c 0,44,45
 313 602 313 602 270.5 622 c 128,-1,46
 228 642 228 642 209 642 c 0,47,48
 176 642 176 642 145 604 c 1,49,-1
 126 616 l 1,50,51
 163 669 163 669 211 669 c 0,36,37
EndSplineSet
Validated: 1
EndChar

StartChar: adieresis
Encoding: 228 228 165
Width: 550
GlyphClass: 2
Flags: W
LayerCount: 2
Fore
SplineSet
415 60 m 1,0,-1
 413 60 l 1,1,2
 371 -7 371 -7 234 -7 c 0,3,4
 162 -7 162 -7 111 28 c 128,-1,5
 60 63 60 63 60 133 c 0,6,7
 60 196 60 196 101.5 232 c 128,-1,8
 143 268 143 268 220 268 c 2,9,-1
 415 268 l 1,10,-1
 415 346 l 2,11,12
 415 412 415 412 379 445.5 c 128,-1,13
 343 479 343 479 257 479 c 0,14,15
 167 479 167 479 109 428 c 1,16,-1
 93 445 l 1,17,18
 155 501 155 501 260 501 c 0,19,20
 344 501 344 501 392 468.5 c 128,-1,21
 440 436 440 436 440 351 c 2,22,-1
 440 0 l 1,23,-1
 415 0 l 1,24,-1
 415 60 l 1,0,-1
415 246 m 1,25,-1
 225 246 l 2,26,27
 85 246 85 246 85 133 c 0,28,29
 85 76 85 76 126.5 45.5 c 128,-1,30
 168 15 168 15 238 15 c 0,31,32
 277 15 277 15 313.5 22.5 c 128,-1,33
 350 30 350 30 382.5 57 c 128,-1,34
 415 84 415 84 415 127 c 2,35,-1
 415 246 l 1,25,-1
330 624 m 1,36,-1
 330 660 l 1,37,-1
 368 660 l 1,38,-1
 368 624 l 1,39,-1
 330 624 l 1,36,-1
176 624 m 1,40,-1
 176 660 l 1,41,-1
 214 660 l 1,42,-1
 214 624 l 1,43,-1
 176 624 l 1,40,-1
EndSplineSet
Validated: 1
EndChar

StartChar: aring
Encoding: 229 229 166
Width: 550
GlyphClass: 2
Flags: W
LayerCount: 2
Fore
SplineSet
415 60 m 1,0,-1
 413 60 l 1,1,2
 371 -7 371 -7 234 -7 c 0,3,4
 162 -7 162 -7 111 28 c 128,-1,5
 60 63 60 63 60 133 c 0,6,7
 60 196 60 196 101.5 232 c 128,-1,8
 143 268 143 268 220 268 c 2,9,-1
 415 268 l 1,10,-1
 415 346 l 2,11,12
 415 412 415 412 379 445.5 c 128,-1,13
 343 479 343 479 257 479 c 0,14,15
 167 479 167 479 109 428 c 1,16,-1
 93 445 l 1,17,18
 155 501 155 501 260 501 c 0,19,20
 344 501 344 501 392 468.5 c 128,-1,21
 440 436 440 436 440 351 c 2,22,-1
 440 0 l 1,23,-1
 415 0 l 1,24,-1
 415 60 l 1,0,-1
415 246 m 1,25,-1
 225 246 l 2,26,27
 85 246 85 246 85 133 c 0,28,29
 85 76 85 76 126.5 45.5 c 128,-1,30
 168 15 168 15 238 15 c 0,31,32
 277 15 277 15 313.5 22.5 c 128,-1,33
 350 30 350 30 382.5 57 c 128,-1,34
 415 84 415 84 415 127 c 2,35,-1
 415 246 l 1,25,-1
265 567 m 0,36,37
 230 567 230 567 204.5 592.5 c 128,-1,38
 179 618 179 618 179 653 c 0,39,40
 179 689 179 689 204 713.5 c 128,-1,41
 229 738 229 738 265 738 c 128,-1,42
 301 738 301 738 326.5 713.5 c 128,-1,43
 352 689 352 689 352 653 c 0,44,45
 352 618 352 618 326.5 592.5 c 128,-1,46
 301 567 301 567 265 567 c 0,36,37
265 720 m 128,-1,48
 237 720 237 720 218 700.5 c 128,-1,49
 199 681 199 681 199 653 c 128,-1,50
 199 625 199 625 218 605.5 c 128,-1,51
 237 586 237 586 265 586 c 128,-1,52
 293 586 293 586 312.5 605.5 c 128,-1,53
 332 625 332 625 332 653 c 128,-1,54
 332 681 332 681 312.5 700.5 c 128,-1,47
 293 720 293 720 265 720 c 128,-1,48
EndSplineSet
Validated: 1
EndChar

StartChar: ae
Encoding: 230 230 167
Width: 550
GlyphClass: 2
Flags: W
LayerCount: 2
Fore
SplineSet
533 251 m 1,0,-1
 282 251 l 1,1,2
 280 15 280 15 406 15 c 0,3,4
 455 15 455 15 492 52 c 1,5,-1
 508 35 l 1,6,7
 466 -7 466 -7 408 -7 c 0,8,9
 305 -7 305 -7 275 108 c 1,10,11
 267 62 267 62 230 27.5 c 128,-1,12
 193 -7 193 -7 138 -7 c 0,13,14
 86 -7 86 -7 50.5 25.5 c 128,-1,15
 15 58 15 58 15 129 c 0,16,17
 15 277 15 277 157 277 c 2,18,-1
 258 277 l 1,19,-1
 258 356 l 2,20,21
 258 483 258 483 159 483 c 0,22,23
 97 483 97 483 50 435 c 1,24,-1
 32 454 l 1,25,26
 85 508 85 508 156 508 c 0,27,28
 268 508 268 508 279 405 c 1,29,30
 317 507 317 507 401 507 c 0,31,32
 533 507 533 507 533 278 c 2,33,-1
 533 251 l 1,0,-1
258 251 m 1,34,-1
 154 251 l 2,35,36
 99 251 99 251 70 223.5 c 128,-1,37
 41 196 41 196 41 130 c 0,38,39
 41 73 41 73 67.5 45 c 128,-1,40
 94 17 94 17 140 17 c 0,41,42
 192 17 192 17 225 57 c 128,-1,43
 258 97 258 97 258 165 c 2,44,-1
 258 251 l 1,34,-1
399 484 m 0,45,46
 347 484 347 484 316 428.5 c 128,-1,47
 285 373 285 373 283 276 c 1,48,-1
 508 276 l 1,49,50
 508 484 508 484 399 484 c 0,45,46
EndSplineSet
Validated: 33
EndChar

StartChar: ccedilla
Encoding: 231 231 168
Width: 550
GlyphClass: 2
Flags: W
LayerCount: 2
Fore
SplineSet
324 -7 m 2,0,-1
 323 -7 l 1,1,-1
 310 -46 l 1,2,3
 401 -54 401 -54 401 -119 c 0,4,5
 401 -144 401 -144 379 -165 c 128,-1,6
 357 -186 357 -186 309 -186 c 0,7,8
 276 -186 276 -186 247 -174 c 1,9,-1
 254 -155 l 1,10,11
 283 -165 283 -165 309 -165 c 0,12,13
 336 -165 336 -165 355.5 -154 c 128,-1,14
 375 -143 375 -143 375 -117 c 0,15,16
 375 -93 375 -93 350 -79 c 128,-1,17
 325 -65 325 -65 289 -65 c 1,18,-1
 284 -61 l 1,19,-1
 301 -6 l 1,20,21
 212 0 212 0 160 60.5 c 128,-1,22
 108 121 108 121 108 247 c 0,23,24
 108 378 108 378 169.5 439.5 c 128,-1,25
 231 501 231 501 323 501 c 0,26,27
 402 501 402 501 462 454 c 1,28,-1
 447 435 l 1,29,30
 392 480 392 480 326 480 c 0,31,32
 230 480 230 480 181.5 419.5 c 128,-1,33
 133 359 133 359 133 247 c 0,34,35
 133 14 133 14 327 14 c 0,36,37
 359 14 359 14 395.5 27.5 c 128,-1,38
 432 41 432 41 454 58 c 1,39,-1
 467 40 l 1,40,41
 407 -7 407 -7 324 -7 c 2,0,-1
EndSplineSet
Validated: 1
EndChar

StartChar: egrave
Encoding: 232 232 169
Width: 550
GlyphClass: 2
Flags: W
LayerCount: 2
Fore
SplineSet
103 251 m 1,0,1
 102 182 102 182 118 131.5 c 128,-1,2
 134 81 134 81 177 47 c 128,-1,3
 220 13 220 13 289 13 c 0,4,5
 354 13 354 13 411 52 c 1,6,-1
 426 34 l 1,7,8
 367 -7 367 -7 291 -7 c 0,9,10
 80 -7 80 -7 80 245 c 0,11,12
 80 318 80 318 97.5 370.5 c 128,-1,13
 115 423 115 423 145 450 c 128,-1,14
 175 477 175 477 207.5 489 c 128,-1,15
 240 501 240 501 277 501 c 0,16,17
 376 501 376 501 422.5 436.5 c 128,-1,18
 469 372 469 372 469 271 c 2,19,-1
 469 251 l 1,20,-1
 103 251 l 1,0,1
278 480 m 0,21,22
 199 480 199 480 154.5 426 c 128,-1,23
 110 372 110 372 105 272 c 1,24,-1
 443 272 l 1,25,26
 439 376 439 376 396.5 428 c 128,-1,27
 354 480 354 480 278 480 c 0,21,22
317 587 m 1,28,-1
 302 579 l 1,29,-1
 203 713 l 1,30,-1
 235 729 l 1,31,-1
 317 587 l 1,28,-1
EndSplineSet
Validated: 33
EndChar

StartChar: eacute
Encoding: 233 233 170
Width: 550
GlyphClass: 2
Flags: W
LayerCount: 2
Fore
SplineSet
103 251 m 1,0,1
 102 182 102 182 118 131.5 c 128,-1,2
 134 81 134 81 177 47 c 128,-1,3
 220 13 220 13 289 13 c 0,4,5
 354 13 354 13 411 52 c 1,6,-1
 426 34 l 1,7,8
 367 -7 367 -7 291 -7 c 0,9,10
 80 -7 80 -7 80 245 c 0,11,12
 80 318 80 318 97.5 370.5 c 128,-1,13
 115 423 115 423 145 450 c 128,-1,14
 175 477 175 477 207.5 489 c 128,-1,15
 240 501 240 501 277 501 c 0,16,17
 376 501 376 501 422.5 436.5 c 128,-1,18
 469 372 469 372 469 271 c 2,19,-1
 469 251 l 1,20,-1
 103 251 l 1,0,1
278 480 m 0,21,22
 199 480 199 480 154.5 426 c 128,-1,23
 110 372 110 372 105 272 c 1,24,-1
 443 272 l 1,25,26
 439 376 439 376 396.5 428 c 128,-1,27
 354 480 354 480 278 480 c 0,21,22
264 579 m 1,28,-1
 249 587 l 1,29,-1
 331 729 l 1,30,-1
 363 713 l 1,31,-1
 264 579 l 1,28,-1
EndSplineSet
Validated: 33
EndChar

StartChar: ecircumflex
Encoding: 234 234 171
Width: 550
GlyphClass: 2
Flags: W
LayerCount: 2
Fore
SplineSet
103 251 m 1,0,1
 102 182 102 182 118 131.5 c 128,-1,2
 134 81 134 81 177 47 c 128,-1,3
 220 13 220 13 289 13 c 0,4,5
 354 13 354 13 411 52 c 1,6,-1
 426 34 l 1,7,8
 367 -7 367 -7 291 -7 c 0,9,10
 80 -7 80 -7 80 245 c 0,11,12
 80 318 80 318 97.5 370.5 c 128,-1,13
 115 423 115 423 145 450 c 128,-1,14
 175 477 175 477 207.5 489 c 128,-1,15
 240 501 240 501 277 501 c 0,16,17
 376 501 376 501 422.5 436.5 c 128,-1,18
 469 372 469 372 469 271 c 2,19,-1
 469 251 l 1,20,-1
 103 251 l 1,0,1
278 480 m 0,21,22
 199 480 199 480 154.5 426 c 128,-1,23
 110 372 110 372 105 272 c 1,24,-1
 443 272 l 1,25,26
 439 376 439 376 396.5 428 c 128,-1,27
 354 480 354 480 278 480 c 0,21,22
396 569 m 1,28,-1
 274 661 l 1,29,-1
 151 568 l 1,30,-1
 139 581 l 1,31,-1
 261 691 l 1,32,-1
 290 691 l 1,33,-1
 408 581 l 1,34,-1
 396 569 l 1,28,-1
EndSplineSet
Validated: 33
EndChar

StartChar: edieresis
Encoding: 235 235 172
Width: 550
GlyphClass: 2
Flags: W
LayerCount: 2
Fore
SplineSet
103 251 m 1,0,1
 102 182 102 182 118 131.5 c 128,-1,2
 134 81 134 81 177 47 c 128,-1,3
 220 13 220 13 289 13 c 0,4,5
 354 13 354 13 411 52 c 1,6,-1
 426 34 l 1,7,8
 367 -7 367 -7 291 -7 c 0,9,10
 80 -7 80 -7 80 245 c 0,11,12
 80 318 80 318 97.5 370.5 c 128,-1,13
 115 423 115 423 145 450 c 128,-1,14
 175 477 175 477 207.5 489 c 128,-1,15
 240 501 240 501 277 501 c 0,16,17
 376 501 376 501 422.5 436.5 c 128,-1,18
 469 372 469 372 469 271 c 2,19,-1
 469 251 l 1,20,-1
 103 251 l 1,0,1
278 480 m 0,21,22
 199 480 199 480 154.5 426 c 128,-1,23
 110 372 110 372 105 272 c 1,24,-1
 443 272 l 1,25,26
 439 376 439 376 396.5 428 c 128,-1,27
 354 480 354 480 278 480 c 0,21,22
339 624 m 1,28,-1
 339 660 l 1,29,-1
 377 660 l 1,30,-1
 377 624 l 1,31,-1
 339 624 l 1,28,-1
185 624 m 1,32,-1
 185 660 l 1,33,-1
 223 660 l 1,34,-1
 223 624 l 1,35,-1
 185 624 l 1,32,-1
EndSplineSet
Validated: 33
EndChar

StartChar: igrave
Encoding: 236 236 173
Width: 550
GlyphClass: 2
Flags: W
LayerCount: 2
Fore
SplineSet
221 0 m 1,0,-1
 221 24 l 1,1,-1
 283 24 l 1,2,-1
 283 471 l 1,3,-1
 220 471 l 1,4,-1
 220 495 l 1,5,-1
 308 495 l 1,6,-1
 308 24 l 1,7,-1
 367 24 l 1,8,-1
 367 0 l 1,9,-1
 221 0 l 1,0,-1
303 587 m 1,10,-1
 288 579 l 1,11,-1
 189 713 l 1,12,-1
 221 729 l 1,13,-1
 303 587 l 1,10,-1
EndSplineSet
Validated: 1
EndChar

StartChar: iacute
Encoding: 237 237 174
Width: 550
GlyphClass: 2
Flags: W
LayerCount: 2
Fore
SplineSet
221 0 m 5,0,-1
 221 24 l 5,1,-1
 283 24 l 5,2,-1
 283 471 l 5,3,-1
 220 471 l 5,4,-1
 220 495 l 5,5,-1
 308 495 l 5,6,-1
 308 24 l 5,7,-1
 367 24 l 5,8,-1
 367 0 l 5,9,-1
 221 0 l 5,0,-1
282 579 m 1,10,-1
 267 587 l 1,11,-1
 349 729 l 1,12,-1
 381 713 l 1,13,-1
 282 579 l 1,10,-1
EndSplineSet
Validated: 1
EndChar

StartChar: icircumflex
Encoding: 238 238 175
Width: 550
GlyphClass: 2
Flags: W
LayerCount: 2
Fore
SplineSet
221 0 m 5,0,-1
 221 24 l 5,1,-1
 283 24 l 5,2,-1
 283 471 l 5,3,-1
 220 471 l 5,4,-1
 220 495 l 5,5,-1
 308 495 l 5,6,-1
 308 24 l 5,7,-1
 367 24 l 5,8,-1
 367 0 l 5,9,-1
 221 0 l 5,0,-1
406 569 m 1,10,-1
 284 661 l 1,11,-1
 161 568 l 1,12,-1
 149 581 l 1,13,-1
 271 691 l 1,14,-1
 300 691 l 1,15,-1
 418 581 l 1,16,-1
 406 569 l 1,10,-1
EndSplineSet
Validated: 1
EndChar

StartChar: idieresis
Encoding: 239 239 176
Width: 550
GlyphClass: 2
Flags: W
LayerCount: 2
Fore
SplineSet
221 0 m 5,0,-1
 221 24 l 5,1,-1
 283 24 l 5,2,-1
 283 471 l 5,3,-1
 220 471 l 5,4,-1
 220 495 l 5,5,-1
 308 495 l 5,6,-1
 308 24 l 5,7,-1
 367 24 l 5,8,-1
 367 0 l 5,9,-1
 221 0 l 5,0,-1
332 624 m 1,10,-1
 332 660 l 1,11,-1
 370 660 l 1,12,-1
 370 624 l 1,13,-1
 332 624 l 1,10,-1
178 624 m 1,14,-1
 178 660 l 1,15,-1
 216 660 l 1,16,-1
 216 624 l 1,17,-1
 178 624 l 1,14,-1
EndSplineSet
Validated: 1
EndChar

StartChar: eth
Encoding: 240 240 177
Width: 550
GlyphClass: 2
Flags: W
LayerCount: 2
Fore
SplineSet
489 666 m 1,0,-1
 414 613 l 1,1,2
 461 528 461 528 461 347 c 0,3,4
 461 291 461 291 460 261 c 128,-1,5
 459 231 459 231 453.5 185.5 c 128,-1,6
 448 140 448 140 435 107 c 128,-1,7
 422 74 422 74 400 50 c 0,8,9
 352 -3 352 -3 258 -6 c 0,10,11
 172 -6 172 -6 126 39 c 0,12,13
 61 102 61 102 61 232 c 0,14,15
 61 367 61 367 132 430 c 0,16,17
 185 476 185 476 262 476 c 0,18,19
 322 476 322 476 371.5 441.5 c 128,-1,20
 421 407 421 407 434 354 c 1,21,-1
 437 354 l 1,22,23
 437 516 437 516 393 599 c 1,24,-1
 314 543 l 1,25,-1
 303 559 l 1,26,-1
 383 616 l 1,27,28
 356 655 356 655 321.5 674.5 c 128,-1,29
 287 694 287 694 221 703 c 1,30,-1
 224 725 l 1,31,32
 346 717 346 717 404 631 c 1,33,-1
 477 683 l 1,34,-1
 489 666 l 1,0,-1
261 453 m 0,35,36
 178 453 178 453 133 398 c 0,37,38
 86 343 86 343 86 229 c 128,-1,39
 86 115 86 115 141 58 c 0,40,41
 183 15 183 15 261 15 c 0,42,43
 333 15 333 15 378 60 c 0,44,45
 432 116 432 116 432 238 c 128,-1,46
 432 360 432 360 372 413 c 0,47,48
 327 453 327 453 261 453 c 0,35,36
EndSplineSet
Validated: 1
EndChar

StartChar: ntilde
Encoding: 241 241 178
Width: 550
GlyphClass: 2
Flags: W
LayerCount: 2
Fore
SplineSet
437 0 m 1,0,-1
 437 327 l 2,1,2
 437 401 437 401 396.5 439.5 c 128,-1,3
 356 478 356 478 283 478 c 0,4,5
 211 478 211 478 161.5 428 c 128,-1,6
 112 378 112 378 112 302 c 2,7,-1
 112 0 l 1,8,-1
 88 0 l 1,9,-1
 88 495 l 1,10,-1
 112 495 l 1,11,-1
 112 398 l 1,12,-1
 114 398 l 1,13,14
 137 449 137 449 185.5 474.5 c 128,-1,15
 234 500 234 500 285 500 c 0,16,17
 372 500 372 500 416.5 456.5 c 128,-1,18
 461 413 461 413 461 334 c 2,19,-1
 461 0 l 1,20,-1
 437 0 l 1,0,-1
219 669 m 0,21,22
 239 669 239 669 281.5 649 c 128,-1,23
 324 629 324 629 340 629 c 0,24,25
 366 629 366 629 393 668 c 1,26,-1
 413 656 l 1,27,28
 382 602 382 602 339 602 c 0,29,30
 321 602 321 602 278.5 622 c 128,-1,31
 236 642 236 642 217 642 c 0,32,33
 184 642 184 642 153 604 c 1,34,-1
 134 616 l 1,35,36
 171 669 171 669 219 669 c 0,21,22
EndSplineSet
Validated: 1
EndChar

StartChar: ograve
Encoding: 242 242 179
Width: 550
GlyphClass: 2
Flags: W
LayerCount: 2
Fore
SplineSet
277 501 m 0,0,1
 385 501 385 501 436 422 c 0,2,3
 472 365 472 365 472 244 c 0,4,5
 472 111 472 111 415 49 c 0,6,7
 365 -6 365 -6 272 -6 c 0,8,9
 189 -6 189 -6 140 41 c 0,10,11
 77 104 77 104 77 251 c 0,12,13
 77 394 77 394 147 455 c 0,14,15
 200 501 200 501 277 501 c 0,0,1
276 479 m 0,16,17
 203 479 203 479 157 431 c 0,18,19
 102 374 102 374 102 248 c 0,20,21
 102 117 102 117 158 59 c 0,22,23
 202 15 202 15 275 15 c 0,24,25
 350 15 350 15 396 63 c 0,26,27
 447 117 447 117 447 245 c 0,28,29
 447 363 447 363 413 411 c 0,30,31
 366 479 366 479 276 479 c 0,16,17
305 587 m 1,32,-1
 290 579 l 1,33,-1
 191 713 l 1,34,-1
 223 729 l 1,35,-1
 305 587 l 1,32,-1
EndSplineSet
Validated: 1
EndChar

StartChar: oacute
Encoding: 243 243 180
Width: 550
GlyphClass: 2
Flags: W
LayerCount: 2
Fore
SplineSet
277 501 m 0,0,1
 385 501 385 501 436 422 c 0,2,3
 472 365 472 365 472 244 c 0,4,5
 472 111 472 111 415 49 c 0,6,7
 365 -6 365 -6 272 -6 c 0,8,9
 189 -6 189 -6 140 41 c 0,10,11
 77 104 77 104 77 251 c 0,12,13
 77 394 77 394 147 455 c 0,14,15
 200 501 200 501 277 501 c 0,0,1
276 479 m 0,16,17
 203 479 203 479 157 431 c 0,18,19
 102 374 102 374 102 248 c 0,20,21
 102 117 102 117 158 59 c 0,22,23
 202 15 202 15 275 15 c 0,24,25
 350 15 350 15 396 63 c 0,26,27
 447 117 447 117 447 245 c 0,28,29
 447 363 447 363 413 411 c 0,30,31
 366 479 366 479 276 479 c 0,16,17
274 579 m 1,32,-1
 259 587 l 1,33,-1
 341 729 l 1,34,-1
 373 713 l 1,35,-1
 274 579 l 1,32,-1
EndSplineSet
Validated: 1
EndChar

StartChar: ocircumflex
Encoding: 244 244 181
Width: 550
GlyphClass: 2
Flags: W
LayerCount: 2
Fore
SplineSet
277 501 m 0,0,1
 385 501 385 501 436 422 c 0,2,3
 472 365 472 365 472 244 c 0,4,5
 472 111 472 111 415 49 c 0,6,7
 365 -6 365 -6 272 -6 c 0,8,9
 189 -6 189 -6 140 41 c 0,10,11
 77 104 77 104 77 251 c 0,12,13
 77 394 77 394 147 455 c 0,14,15
 200 501 200 501 277 501 c 0,0,1
276 479 m 0,16,17
 203 479 203 479 157 431 c 0,18,19
 102 374 102 374 102 248 c 0,20,21
 102 117 102 117 158 59 c 0,22,23
 202 15 202 15 275 15 c 0,24,25
 350 15 350 15 396 63 c 0,26,27
 447 117 447 117 447 245 c 0,28,29
 447 363 447 363 413 411 c 0,30,31
 366 479 366 479 276 479 c 0,16,17
403 569 m 1,32,-1
 281 661 l 1,33,-1
 158 568 l 1,34,-1
 146 581 l 1,35,-1
 268 691 l 1,36,-1
 297 691 l 1,37,-1
 415 581 l 1,38,-1
 403 569 l 1,32,-1
EndSplineSet
Validated: 1
EndChar

StartChar: otilde
Encoding: 245 245 182
Width: 550
GlyphClass: 2
Flags: W
LayerCount: 2
Fore
SplineSet
277 501 m 0,0,1
 385 501 385 501 436 422 c 0,2,3
 472 365 472 365 472 244 c 0,4,5
 472 111 472 111 415 49 c 0,6,7
 365 -6 365 -6 272 -6 c 0,8,9
 189 -6 189 -6 140 41 c 0,10,11
 77 104 77 104 77 251 c 0,12,13
 77 394 77 394 147 455 c 0,14,15
 200 501 200 501 277 501 c 0,0,1
276 479 m 0,16,17
 203 479 203 479 157 431 c 0,18,19
 102 374 102 374 102 248 c 0,20,21
 102 117 102 117 158 59 c 0,22,23
 202 15 202 15 275 15 c 0,24,25
 350 15 350 15 396 63 c 0,26,27
 447 117 447 117 447 245 c 0,28,29
 447 363 447 363 413 411 c 0,30,31
 366 479 366 479 276 479 c 0,16,17
229 669 m 0,32,33
 249 669 249 669 291.5 649 c 128,-1,34
 334 629 334 629 350 629 c 0,35,36
 376 629 376 629 403 668 c 1,37,-1
 423 656 l 1,38,39
 392 602 392 602 349 602 c 0,40,41
 331 602 331 602 288.5 622 c 128,-1,42
 246 642 246 642 227 642 c 0,43,44
 194 642 194 642 163 604 c 1,45,-1
 144 616 l 1,46,47
 181 669 181 669 229 669 c 0,32,33
EndSplineSet
Validated: 1
EndChar

StartChar: odieresis
Encoding: 246 246 183
Width: 550
GlyphClass: 2
Flags: W
LayerCount: 2
Fore
SplineSet
277 501 m 0,0,1
 385 501 385 501 436 422 c 0,2,3
 472 365 472 365 472 244 c 0,4,5
 472 111 472 111 415 49 c 0,6,7
 365 -6 365 -6 272 -6 c 0,8,9
 189 -6 189 -6 140 41 c 0,10,11
 77 104 77 104 77 251 c 0,12,13
 77 394 77 394 147 455 c 0,14,15
 200 501 200 501 277 501 c 0,0,1
276 479 m 0,16,17
 203 479 203 479 157 431 c 0,18,19
 102 374 102 374 102 248 c 0,20,21
 102 117 102 117 158 59 c 0,22,23
 202 15 202 15 275 15 c 0,24,25
 350 15 350 15 396 63 c 0,26,27
 447 117 447 117 447 245 c 0,28,29
 447 363 447 363 413 411 c 0,30,31
 366 479 366 479 276 479 c 0,16,17
332 624 m 1,32,-1
 332 660 l 1,33,-1
 370 660 l 1,34,-1
 370 624 l 1,35,-1
 332 624 l 1,32,-1
178 624 m 1,36,-1
 178 660 l 1,37,-1
 216 660 l 1,38,-1
 216 624 l 1,39,-1
 178 624 l 1,36,-1
EndSplineSet
Validated: 1
EndChar

StartChar: divide
Encoding: 247 247 184
Width: 550
GlyphClass: 2
Flags: W
LayerCount: 2
Fore
SplineSet
278 406 m 0,0,1
 265 406 265 406 256.5 414.5 c 128,-1,2
 248 423 248 423 248 435 c 0,3,4
 248 448 248 448 257 455.5 c 128,-1,5
 266 463 266 463 278 463 c 128,-1,6
 290 463 290 463 298.5 455.5 c 128,-1,7
 307 448 307 448 307 435 c 0,8,9
 307 423 307 423 298.5 414.5 c 128,-1,10
 290 406 290 406 278 406 c 0,0,1
278 78 m 0,11,12
 265 78 265 78 256.5 86.5 c 128,-1,13
 248 95 248 95 248 107 c 0,14,15
 248 120 248 120 257.5 127.5 c 128,-1,16
 267 135 267 135 279 135 c 0,17,18
 290 135 290 135 298.5 127.5 c 128,-1,19
 307 120 307 120 307 107 c 0,20,21
 307 95 307 95 298.5 86.5 c 128,-1,22
 290 78 290 78 278 78 c 0,11,12
474 261 m 1,23,-1
 75 261 l 1,24,-1
 75 285 l 1,25,-1
 474 285 l 1,26,-1
 474 261 l 1,23,-1
EndSplineSet
Validated: 1
EndChar

StartChar: oslash
Encoding: 248 248 185
Width: 550
GlyphClass: 2
Flags: W
LayerCount: 2
Fore
SplineSet
277 501 m 0,0,1
 364 501 364 501 415 448 c 1,2,-1
 455 500 l 1,3,-1
 471 487 l 1,4,-1
 429 432 l 2,5,6
 430 430 430 430 433 426.5 c 128,-1,7
 436 423 436 423 436 422 c 0,8,9
 472 365 472 365 472 244 c 0,10,11
 472 111 472 111 415 49 c 0,12,13
 365 -6 365 -6 272 -6 c 0,14,15
 189 -6 189 -6 140 41 c 2,16,-1
 134 47 l 1,17,-1
 96 -3 l 1,18,-1
 79 10 l 1,19,-1
 120 64 l 1,20,21
 77 126 77 126 77 251 c 0,22,23
 77 394 77 394 147 455 c 0,24,25
 200 501 200 501 277 501 c 0,0,1
447 245 m 0,26,27
 447 363 447 363 413 411 c 1,28,-1
 150 67 l 2,29,30
 151 66 151 66 152 64.5 c 128,-1,31
 153 63 153 63 155 61.5 c 128,-1,32
 157 60 157 60 158 59 c 0,33,34
 202 15 202 15 275 15 c 0,35,36
 350 15 350 15 396 63 c 0,37,38
 447 117 447 117 447 245 c 0,26,27
276 479 m 0,39,40
 203 479 203 479 157 431 c 0,41,42
 102 374 102 374 102 248 c 0,43,44
 102 141 102 141 137 85 c 1,45,-1
 399 427 l 1,46,47
 352 479 352 479 276 479 c 0,39,40
EndSplineSet
Validated: 1
EndChar

StartChar: ugrave
Encoding: 249 249 186
Width: 550
GlyphClass: 2
Flags: W
LayerCount: 2
Fore
SplineSet
462 0 m 1,0,-1
 438 0 l 1,1,-1
 438 92 l 1,2,-1
 436 92 l 1,3,4
 415 44 415 44 365 19.5 c 128,-1,5
 315 -5 315 -5 265 -5 c 0,6,7
 181 -5 181 -5 135 42 c 128,-1,8
 89 89 89 89 89 167 c 2,9,-1
 89 495 l 1,10,-1
 114 495 l 1,11,-1
 114 169 l 2,12,13
 114 96 114 96 156 56.5 c 128,-1,14
 198 17 198 17 266 17 c 0,15,16
 339 17 339 17 389 65.5 c 128,-1,17
 439 114 439 114 439 190 c 2,18,-1
 439 495 l 1,19,-1
 462 495 l 1,20,-1
 462 0 l 1,0,-1
315 587 m 1,21,-1
 300 579 l 1,22,-1
 201 713 l 1,23,-1
 233 729 l 1,24,-1
 315 587 l 1,21,-1
EndSplineSet
Validated: 1
EndChar

StartChar: uacute
Encoding: 250 250 187
Width: 550
GlyphClass: 2
Flags: W
LayerCount: 2
Fore
SplineSet
462 0 m 1,0,-1
 438 0 l 1,1,-1
 438 92 l 1,2,-1
 436 92 l 1,3,4
 415 44 415 44 365 19.5 c 128,-1,5
 315 -5 315 -5 265 -5 c 0,6,7
 181 -5 181 -5 135 42 c 128,-1,8
 89 89 89 89 89 167 c 2,9,-1
 89 495 l 1,10,-1
 114 495 l 1,11,-1
 114 169 l 2,12,13
 114 96 114 96 156 56.5 c 128,-1,14
 198 17 198 17 266 17 c 0,15,16
 339 17 339 17 389 65.5 c 128,-1,17
 439 114 439 114 439 190 c 2,18,-1
 439 495 l 1,19,-1
 462 495 l 1,20,-1
 462 0 l 1,0,-1
282 579 m 1,21,-1
 267 587 l 1,22,-1
 349 729 l 1,23,-1
 381 713 l 1,24,-1
 282 579 l 1,21,-1
EndSplineSet
Validated: 1
EndChar

StartChar: ucircumflex
Encoding: 251 251 188
Width: 550
GlyphClass: 2
Flags: W
LayerCount: 2
Fore
SplineSet
462 0 m 1,0,-1
 438 0 l 1,1,-1
 438 92 l 1,2,-1
 436 92 l 1,3,4
 415 44 415 44 365 19.5 c 128,-1,5
 315 -5 315 -5 265 -5 c 0,6,7
 181 -5 181 -5 135 42 c 128,-1,8
 89 89 89 89 89 167 c 2,9,-1
 89 495 l 1,10,-1
 114 495 l 1,11,-1
 114 169 l 2,12,13
 114 96 114 96 156 56.5 c 128,-1,14
 198 17 198 17 266 17 c 0,15,16
 339 17 339 17 389 65.5 c 128,-1,17
 439 114 439 114 439 190 c 2,18,-1
 439 495 l 1,19,-1
 462 495 l 1,20,-1
 462 0 l 1,0,-1
400 569 m 1,21,-1
 278 661 l 1,22,-1
 155 568 l 1,23,-1
 143 581 l 1,24,-1
 265 691 l 1,25,-1
 294 691 l 1,26,-1
 412 581 l 1,27,-1
 400 569 l 1,21,-1
EndSplineSet
Validated: 1
EndChar

StartChar: udieresis
Encoding: 252 252 189
Width: 550
GlyphClass: 2
Flags: W
LayerCount: 2
Fore
SplineSet
462 0 m 1,0,-1
 438 0 l 1,1,-1
 438 92 l 1,2,-1
 436 92 l 1,3,4
 415 44 415 44 365 19.5 c 128,-1,5
 315 -5 315 -5 265 -5 c 0,6,7
 181 -5 181 -5 135 42 c 128,-1,8
 89 89 89 89 89 167 c 2,9,-1
 89 495 l 1,10,-1
 114 495 l 1,11,-1
 114 169 l 2,12,13
 114 96 114 96 156 56.5 c 128,-1,14
 198 17 198 17 266 17 c 0,15,16
 339 17 339 17 389 65.5 c 128,-1,17
 439 114 439 114 439 190 c 2,18,-1
 439 495 l 1,19,-1
 462 495 l 1,20,-1
 462 0 l 1,0,-1
332 624 m 1,21,-1
 332 660 l 1,22,-1
 370 660 l 1,23,-1
 370 624 l 1,24,-1
 332 624 l 1,21,-1
178 624 m 1,25,-1
 178 660 l 1,26,-1
 216 660 l 1,27,-1
 216 624 l 1,28,-1
 178 624 l 1,25,-1
EndSplineSet
Validated: 1
EndChar

StartChar: yacute
Encoding: 253 253 190
Width: 550
GlyphClass: 2
Flags: W
LayerCount: 2
Fore
SplineSet
469 494 m 1,0,-1
 251 -115 l 2,1,2
 235 -159 235 -159 207 -180 c 128,-1,3
 179 -201 179 -201 128 -201 c 2,4,-1
 99 -201 l 1,5,-1
 99 -178 l 1,6,-1
 126 -178 l 2,7,8
 170 -178 170 -178 193.5 -159.5 c 128,-1,9
 217 -141 217 -141 231 -100 c 2,10,-1
 260 -14 l 1,11,-1
 74 494 l 1,12,-1
 102 494 l 1,13,-1
 273 20 l 1,14,-1
 274 20 l 1,15,-1
 442 494 l 1,16,-1
 469 494 l 1,0,-1
268 579 m 1,17,-1
 253 587 l 1,18,-1
 335 729 l 1,19,-1
 367 713 l 1,20,-1
 268 579 l 1,17,-1
EndSplineSet
Validated: 1
EndChar

StartChar: thorn
Encoding: 254 254 191
Width: 550
GlyphClass: 2
Flags: W
LayerCount: 2
Fore
SplineSet
92 696 m 1,0,-1
 117 696 l 1,1,-1
 117 398 l 1,2,-1
 118 398 l 1,3,4
 169 503 169 503 278 503 c 0,5,6
 377 503 377 503 422.5 432.5 c 128,-1,7
 468 362 468 362 468 245 c 0,8,9
 468 197 468 197 458.5 154.5 c 128,-1,10
 449 112 449 112 428 75.5 c 128,-1,11
 407 39 407 39 368.5 17.5 c 128,-1,12
 330 -4 330 -4 278 -4 c 0,13,14
 169 -4 169 -4 118 101 c 1,15,-1
 117 101 l 1,16,-1
 117 -200 l 1,17,-1
 92 -200 l 1,18,-1
 92 696 l 1,0,-1
117 252 m 0,19,20
 117 146 117 146 156.5 81 c 128,-1,21
 196 16 196 16 278 16 c 0,22,23
 326 16 326 16 360 37 c 128,-1,24
 394 58 394 58 411 94.5 c 128,-1,25
 428 131 428 131 435 168.5 c 128,-1,26
 442 206 442 206 442 249 c 0,27,28
 442 482 442 482 278 482 c 0,29,30
 238 482 238 482 208 466.5 c 128,-1,31
 178 451 178 451 161.5 427.5 c 128,-1,32
 145 404 145 404 134.5 371.5 c 128,-1,33
 124 339 124 339 120.5 311 c 128,-1,34
 117 283 117 283 117 252 c 0,19,20
EndSplineSet
Validated: 1
EndChar

StartChar: ydieresis
Encoding: 255 255 192
Width: 550
GlyphClass: 2
Flags: W
LayerCount: 2
Fore
SplineSet
469 494 m 1,0,-1
 251 -115 l 2,1,2
 235 -159 235 -159 207 -180 c 128,-1,3
 179 -201 179 -201 128 -201 c 2,4,-1
 99 -201 l 1,5,-1
 99 -178 l 1,6,-1
 126 -178 l 2,7,8
 170 -178 170 -178 193.5 -159.5 c 128,-1,9
 217 -141 217 -141 231 -100 c 2,10,-1
 260 -14 l 1,11,-1
 74 494 l 1,12,-1
 102 494 l 1,13,-1
 273 20 l 1,14,-1
 274 20 l 1,15,-1
 442 494 l 1,16,-1
 469 494 l 1,0,-1
335 624 m 1,17,-1
 335 660 l 1,18,-1
 373 660 l 1,19,-1
 373 624 l 1,20,-1
 335 624 l 1,17,-1
181 624 m 1,21,-1
 181 660 l 1,22,-1
 219 660 l 1,23,-1
 219 624 l 1,24,-1
 181 624 l 1,21,-1
EndSplineSet
Validated: 1
EndChar

StartChar: Amacron
Encoding: 256 256 193
Width: 550
GlyphClass: 2
Flags: W
LayerCount: 2
Fore
SplineSet
506 0 m 1,0,-1
 446 175 l 1,1,-1
 103 175 l 1,2,-1
 42 0 l 1,3,-1
 14 0 l 1,4,-1
 257 696 l 1,5,-1
 293 696 l 1,6,-1
 536 0 l 1,7,-1
 506 0 l 1,0,-1
274 670 m 1,8,-1
 211 489 l 1,9,-1
 111 200 l 1,10,-1
 437 200 l 1,11,-1
 276 670 l 1,12,-1
 274 670 l 1,8,-1
149 794 m 1,13,-1
 149 818 l 1,14,-1
 397 818 l 1,15,-1
 397 794 l 1,16,-1
 149 794 l 1,13,-1
EndSplineSet
Validated: 1
EndChar

StartChar: amacron
Encoding: 257 257 194
Width: 550
GlyphClass: 2
Flags: W
LayerCount: 2
Fore
SplineSet
415 60 m 1,0,-1
 413 60 l 1,1,2
 371 -7 371 -7 234 -7 c 0,3,4
 162 -7 162 -7 111 28 c 128,-1,5
 60 63 60 63 60 133 c 0,6,7
 60 196 60 196 101.5 232 c 128,-1,8
 143 268 143 268 220 268 c 2,9,-1
 415 268 l 1,10,-1
 415 346 l 2,11,12
 415 412 415 412 379 445.5 c 128,-1,13
 343 479 343 479 257 479 c 0,14,15
 167 479 167 479 109 428 c 1,16,-1
 93 445 l 1,17,18
 155 501 155 501 260 501 c 0,19,20
 344 501 344 501 392 468.5 c 128,-1,21
 440 436 440 436 440 351 c 2,22,-1
 440 0 l 1,23,-1
 415 0 l 1,24,-1
 415 60 l 1,0,-1
415 246 m 1,25,-1
 225 246 l 2,26,27
 85 246 85 246 85 133 c 0,28,29
 85 76 85 76 126.5 45.5 c 128,-1,30
 168 15 168 15 238 15 c 0,31,32
 277 15 277 15 313.5 22.5 c 128,-1,33
 350 30 350 30 382.5 57 c 128,-1,34
 415 84 415 84 415 127 c 2,35,-1
 415 246 l 1,25,-1
141 600 m 1,36,-1
 141 624 l 1,37,-1
 389 624 l 1,38,-1
 389 600 l 1,39,-1
 141 600 l 1,36,-1
EndSplineSet
Validated: 1
EndChar

StartChar: Abreve
Encoding: 258 258 195
Width: 550
GlyphClass: 2
Flags: W
LayerCount: 2
Fore
SplineSet
506 0 m 1,0,-1
 446 175 l 1,1,-1
 103 175 l 1,2,-1
 42 0 l 1,3,-1
 14 0 l 1,4,-1
 257 696 l 1,5,-1
 293 696 l 1,6,-1
 536 0 l 1,7,-1
 506 0 l 1,0,-1
274 670 m 1,8,-1
 211 489 l 1,9,-1
 111 200 l 1,10,-1
 437 200 l 1,11,-1
 276 670 l 1,12,-1
 274 670 l 1,8,-1
276 776 m 0,13,14
 313 776 313 776 340 798 c 128,-1,15
 367 820 367 820 373 854 c 1,16,-1
 395 854 l 1,17,18
 388 813 388 813 357.5 783 c 128,-1,19
 327 753 327 753 276 753 c 128,-1,20
 225 753 225 753 194 783 c 128,-1,21
 163 813 163 813 157 854 c 1,22,-1
 178 854 l 1,23,24
 184 820 184 820 212 798 c 128,-1,25
 240 776 240 776 276 776 c 0,13,14
EndSplineSet
Validated: 1
EndChar

StartChar: abreve
Encoding: 259 259 196
Width: 550
GlyphClass: 2
Flags: W
LayerCount: 2
Fore
SplineSet
415 60 m 1,0,-1
 413 60 l 1,1,2
 371 -7 371 -7 234 -7 c 0,3,4
 162 -7 162 -7 111 28 c 128,-1,5
 60 63 60 63 60 133 c 0,6,7
 60 196 60 196 101.5 232 c 128,-1,8
 143 268 143 268 220 268 c 2,9,-1
 415 268 l 1,10,-1
 415 346 l 2,11,12
 415 412 415 412 379 445.5 c 128,-1,13
 343 479 343 479 257 479 c 0,14,15
 167 479 167 479 109 428 c 1,16,-1
 93 445 l 1,17,18
 155 501 155 501 260 501 c 0,19,20
 344 501 344 501 392 468.5 c 128,-1,21
 440 436 440 436 440 351 c 2,22,-1
 440 0 l 1,23,-1
 415 0 l 1,24,-1
 415 60 l 1,0,-1
415 246 m 1,25,-1
 225 246 l 2,26,27
 85 246 85 246 85 133 c 0,28,29
 85 76 85 76 126.5 45.5 c 128,-1,30
 168 15 168 15 238 15 c 0,31,32
 277 15 277 15 313.5 22.5 c 128,-1,33
 350 30 350 30 382.5 57 c 128,-1,34
 415 84 415 84 415 127 c 2,35,-1
 415 246 l 1,25,-1
273 595 m 0,36,37
 350 595 350 595 370 673 c 1,38,-1
 392 673 l 1,39,40
 385 632 385 632 354.5 602 c 128,-1,41
 324 572 324 572 273 572 c 128,-1,42
 222 572 222 572 191 602 c 128,-1,43
 160 632 160 632 154 673 c 1,44,-1
 176 673 l 1,45,46
 183 636 183 636 211 615.5 c 128,-1,47
 239 595 239 595 273 595 c 0,36,37
EndSplineSet
Validated: 1
EndChar

StartChar: Aogonek
Encoding: 260 260 197
Width: 550
GlyphClass: 2
Flags: W
LayerCount: 2
Fore
SplineSet
465 -91 m 0,0,1
 465 -40 465 -40 506 0 c 1,2,-1
 446 175 l 1,3,-1
 103 175 l 1,4,-1
 42 0 l 1,5,-1
 14 0 l 1,6,-1
 257 696 l 1,7,-1
 293 696 l 1,8,-1
 536 0 l 1,9,-1
 531 0 l 1,10,11
 491 -47 491 -47 491 -88 c 0,12,13
 491 -145 491 -145 549 -145 c 0,14,15
 578 -145 578 -145 607 -130 c 1,16,-1
 616 -148 l 1,17,18
 584 -168 584 -168 545 -168 c 0,19,20
 508 -168 508 -168 486.5 -145.5 c 128,-1,21
 465 -123 465 -123 465 -91 c 0,0,1
274 670 m 1,22,-1
 211 489 l 1,23,-1
 111 200 l 1,24,-1
 437 200 l 1,25,-1
 276 670 l 1,26,-1
 274 670 l 1,22,-1
EndSplineSet
Validated: 1
EndChar

StartChar: aogonek
Encoding: 261 261 198
Width: 550
GlyphClass: 2
Flags: W
LayerCount: 2
Fore
SplineSet
384 -93 m 0,0,1
 384 -42 384 -42 427 0 c 1,2,-1
 427 60 l 1,3,-1
 425 60 l 1,4,5
 383 -7 383 -7 246 -7 c 0,6,7
 174 -7 174 -7 123 28 c 128,-1,8
 72 63 72 63 72 133 c 0,9,10
 72 196 72 196 113.5 232 c 128,-1,11
 155 268 155 268 232 268 c 2,12,-1
 427 268 l 1,13,-1
 427 346 l 2,14,15
 427 412 427 412 391 445.5 c 128,-1,16
 355 479 355 479 269 479 c 0,17,18
 179 479 179 479 121 428 c 1,19,-1
 105 445 l 1,20,21
 167 501 167 501 272 501 c 0,22,23
 356 501 356 501 404 468.5 c 128,-1,24
 452 436 452 436 452 351 c 2,25,-1
 452 0 l 1,26,27
 434 -21 434 -21 422 -46.5 c 128,-1,28
 410 -72 410 -72 410 -90 c 0,29,30
 410 -147 410 -147 468 -147 c 0,31,32
 497 -147 497 -147 526 -132 c 1,33,-1
 535 -150 l 1,34,35
 503 -170 503 -170 464 -170 c 0,36,37
 427 -170 427 -170 405.5 -147.5 c 128,-1,38
 384 -125 384 -125 384 -93 c 0,0,1
427 246 m 1,39,-1
 237 246 l 2,40,41
 97 246 97 246 97 133 c 0,42,43
 97 76 97 76 138.5 45.5 c 128,-1,44
 180 15 180 15 250 15 c 0,45,46
 289 15 289 15 325.5 22.5 c 128,-1,47
 362 30 362 30 394.5 57 c 128,-1,48
 427 84 427 84 427 127 c 2,49,-1
 427 246 l 1,39,-1
EndSplineSet
Validated: 1
EndChar

StartChar: Cacute
Encoding: 262 262 199
Width: 550
GlyphClass: 2
Flags: W
LayerCount: 2
Fore
SplineSet
496 141 m 1,0,-1
 518 132 l 1,1,2
 492 69 492 69 434 31 c 128,-1,3
 376 -7 376 -7 301 -7 c 0,4,5
 179 -7 179 -7 119.5 63 c 128,-1,6
 60 133 60 133 60 243 c 2,7,-1
 60 458 l 2,8,9
 60 562 60 562 121.5 631.5 c 128,-1,10
 183 701 183 701 297 701 c 0,11,12
 370 701 370 701 424 668 c 128,-1,13
 478 635 478 635 505 579 c 1,14,-1
 484 566 l 1,15,16
 461 616 461 616 412 647 c 128,-1,17
 363 678 363 678 298 678 c 0,18,19
 195 678 195 678 140.5 615.5 c 128,-1,20
 86 553 86 553 86 456 c 2,21,-1
 86 238 l 2,22,23
 86 141 86 141 140 78.5 c 128,-1,24
 194 16 194 16 301 16 c 0,25,26
 367 16 367 16 417.5 49.5 c 128,-1,27
 468 83 468 83 496 141 c 1,0,-1
273 754 m 1,28,-1
 262 767 l 1,29,-1
 391 868 l 1,30,-1
 415 842 l 1,31,-1
 273 754 l 1,28,-1
EndSplineSet
Validated: 1
EndChar

StartChar: cacute
Encoding: 263 263 200
Width: 550
GlyphClass: 2
Flags: W
LayerCount: 2
Fore
SplineSet
324 -7 m 0,0,1
 226 -7 226 -7 167 53.5 c 128,-1,2
 108 114 108 114 108 247 c 0,3,4
 108 378 108 378 169.5 439.5 c 128,-1,5
 231 501 231 501 323 501 c 0,6,7
 402 501 402 501 462 454 c 1,8,-1
 447 435 l 1,9,10
 392 480 392 480 326 480 c 0,11,12
 230 480 230 480 181.5 419.5 c 128,-1,13
 133 359 133 359 133 247 c 0,14,15
 133 14 133 14 327 14 c 0,16,17
 359 14 359 14 395.5 27.5 c 128,-1,18
 432 41 432 41 454 58 c 1,19,-1
 467 40 l 1,20,21
 407 -7 407 -7 324 -7 c 0,0,1
300 579 m 1,22,-1
 285 587 l 1,23,-1
 367 729 l 1,24,-1
 399 713 l 1,25,-1
 300 579 l 1,22,-1
EndSplineSet
Validated: 1
EndChar

StartChar: Ccircumflex
Encoding: 264 264 201
Width: 550
GlyphClass: 2
Flags: W
LayerCount: 2
Fore
SplineSet
496 141 m 1,0,-1
 518 132 l 1,1,2
 492 69 492 69 434 31 c 128,-1,3
 376 -7 376 -7 301 -7 c 0,4,5
 179 -7 179 -7 119.5 63 c 128,-1,6
 60 133 60 133 60 243 c 2,7,-1
 60 458 l 2,8,9
 60 562 60 562 121.5 631.5 c 128,-1,10
 183 701 183 701 297 701 c 0,11,12
 370 701 370 701 424 668 c 128,-1,13
 478 635 478 635 505 579 c 1,14,-1
 484 566 l 1,15,16
 461 616 461 616 412 647 c 128,-1,17
 363 678 363 678 298 678 c 0,18,19
 195 678 195 678 140.5 615.5 c 128,-1,20
 86 553 86 553 86 456 c 2,21,-1
 86 238 l 2,22,23
 86 141 86 141 140 78.5 c 128,-1,24
 194 16 194 16 301 16 c 0,25,26
 367 16 367 16 417.5 49.5 c 128,-1,27
 468 83 468 83 496 141 c 1,0,-1
412 746 m 1,28,-1
 290 828 l 1,29,-1
 167 745 l 1,30,-1
 155 758 l 1,31,-1
 277 858 l 1,32,-1
 306 858 l 1,33,-1
 424 758 l 1,34,-1
 412 746 l 1,28,-1
EndSplineSet
Validated: 1
EndChar

StartChar: ccircumflex
Encoding: 265 265 202
Width: 550
GlyphClass: 2
Flags: W
LayerCount: 2
Fore
SplineSet
324 -7 m 0,0,1
 226 -7 226 -7 167 53.5 c 128,-1,2
 108 114 108 114 108 247 c 0,3,4
 108 378 108 378 169.5 439.5 c 128,-1,5
 231 501 231 501 323 501 c 0,6,7
 402 501 402 501 462 454 c 1,8,-1
 447 435 l 1,9,10
 392 480 392 480 326 480 c 0,11,12
 230 480 230 480 181.5 419.5 c 128,-1,13
 133 359 133 359 133 247 c 0,14,15
 133 14 133 14 327 14 c 0,16,17
 359 14 359 14 395.5 27.5 c 128,-1,18
 432 41 432 41 454 58 c 1,19,-1
 467 40 l 1,20,21
 407 -7 407 -7 324 -7 c 0,0,1
432 569 m 1,22,-1
 310 661 l 1,23,-1
 187 568 l 1,24,-1
 175 581 l 1,25,-1
 297 691 l 1,26,-1
 326 691 l 1,27,-1
 444 581 l 1,28,-1
 432 569 l 1,22,-1
EndSplineSet
Validated: 1
EndChar

StartChar: Cdotaccent
Encoding: 266 266 203
Width: 550
GlyphClass: 2
Flags: W
LayerCount: 2
Fore
SplineSet
496 141 m 1,0,-1
 518 132 l 1,1,2
 492 69 492 69 434 31 c 128,-1,3
 376 -7 376 -7 301 -7 c 0,4,5
 179 -7 179 -7 119.5 63 c 128,-1,6
 60 133 60 133 60 243 c 2,7,-1
 60 458 l 2,8,9
 60 562 60 562 121.5 631.5 c 128,-1,10
 183 701 183 701 297 701 c 0,11,12
 370 701 370 701 424 668 c 128,-1,13
 478 635 478 635 505 579 c 1,14,-1
 484 566 l 1,15,16
 461 616 461 616 412 647 c 128,-1,17
 363 678 363 678 298 678 c 0,18,19
 195 678 195 678 140.5 615.5 c 128,-1,20
 86 553 86 553 86 456 c 2,21,-1
 86 238 l 2,22,23
 86 141 86 141 140 78.5 c 128,-1,24
 194 16 194 16 301 16 c 0,25,26
 367 16 367 16 417.5 49.5 c 128,-1,27
 468 83 468 83 496 141 c 1,0,-1
275 774 m 1,28,-1
 275 810 l 1,29,-1
 313 810 l 1,30,-1
 313 774 l 1,31,-1
 275 774 l 1,28,-1
EndSplineSet
Validated: 1
EndChar

StartChar: cdotaccent
Encoding: 267 267 204
Width: 550
GlyphClass: 2
Flags: W
LayerCount: 2
Fore
SplineSet
324 -7 m 0,0,1
 226 -7 226 -7 167 53.5 c 128,-1,2
 108 114 108 114 108 247 c 0,3,4
 108 378 108 378 169.5 439.5 c 128,-1,5
 231 501 231 501 323 501 c 0,6,7
 402 501 402 501 462 454 c 1,8,-1
 447 435 l 1,9,10
 392 480 392 480 326 480 c 0,11,12
 230 480 230 480 181.5 419.5 c 128,-1,13
 133 359 133 359 133 247 c 0,14,15
 133 14 133 14 327 14 c 0,16,17
 359 14 359 14 395.5 27.5 c 128,-1,18
 432 41 432 41 454 58 c 1,19,-1
 467 40 l 1,20,21
 407 -7 407 -7 324 -7 c 0,0,1
293 624 m 1,22,-1
 293 660 l 1,23,-1
 331 660 l 1,24,-1
 331 624 l 1,25,-1
 293 624 l 1,22,-1
EndSplineSet
Validated: 1
EndChar

StartChar: Ccaron
Encoding: 268 268 205
Width: 550
GlyphClass: 2
Flags: W
LayerCount: 2
Fore
SplineSet
496 141 m 1,0,-1
 518 132 l 1,1,2
 492 69 492 69 434 31 c 128,-1,3
 376 -7 376 -7 301 -7 c 0,4,5
 179 -7 179 -7 119.5 63 c 128,-1,6
 60 133 60 133 60 243 c 2,7,-1
 60 458 l 2,8,9
 60 562 60 562 121.5 631.5 c 128,-1,10
 183 701 183 701 297 701 c 0,11,12
 370 701 370 701 424 668 c 128,-1,13
 478 635 478 635 505 579 c 1,14,-1
 484 566 l 1,15,16
 461 616 461 616 412 647 c 128,-1,17
 363 678 363 678 298 678 c 0,18,19
 195 678 195 678 140.5 615.5 c 128,-1,20
 86 553 86 553 86 456 c 2,21,-1
 86 238 l 2,22,23
 86 141 86 141 140 78.5 c 128,-1,24
 194 16 194 16 301 16 c 0,25,26
 367 16 367 16 417.5 49.5 c 128,-1,27
 468 83 468 83 496 141 c 1,0,-1
289 778 m 1,28,-1
 411 860 l 1,29,-1
 423 848 l 1,30,-1
 305 748 l 1,31,-1
 276 748 l 1,32,-1
 154 848 l 1,33,-1
 166 861 l 1,34,-1
 289 778 l 1,28,-1
EndSplineSet
Validated: 1
EndChar

StartChar: ccaron
Encoding: 269 269 206
Width: 550
GlyphClass: 2
Flags: W
LayerCount: 2
Fore
SplineSet
324 -7 m 0,0,1
 226 -7 226 -7 167 53.5 c 128,-1,2
 108 114 108 114 108 247 c 0,3,4
 108 378 108 378 169.5 439.5 c 128,-1,5
 231 501 231 501 323 501 c 0,6,7
 402 501 402 501 462 454 c 1,8,-1
 447 435 l 1,9,10
 392 480 392 480 326 480 c 0,11,12
 230 480 230 480 181.5 419.5 c 128,-1,13
 133 359 133 359 133 247 c 0,14,15
 133 14 133 14 327 14 c 0,16,17
 359 14 359 14 395.5 27.5 c 128,-1,18
 432 41 432 41 454 58 c 1,19,-1
 467 40 l 1,20,21
 407 -7 407 -7 324 -7 c 0,0,1
309 599 m 1,22,-1
 431 691 l 1,23,-1
 443 679 l 1,24,-1
 325 569 l 1,25,-1
 296 569 l 1,26,-1
 174 679 l 1,27,-1
 186 692 l 1,28,-1
 309 599 l 1,22,-1
EndSplineSet
Validated: 1
EndChar

StartChar: Dcaron
Encoding: 270 270 207
Width: 550
GlyphClass: 2
Flags: W
LayerCount: 2
Fore
SplineSet
57 696 m 1,0,-1
 269 696 l 2,1,2
 429 696 429 696 487 572 c 0,3,4
 511 521 511 521 511 361 c 0,5,6
 511 187 511 187 488 132 c 0,7,8
 458 61 458 61 401.5 30.5 c 128,-1,9
 345 0 345 0 257 0 c 2,10,-1
 57 0 l 1,11,-1
 57 696 l 1,0,-1
485 271 m 2,12,-1
 485 419 l 2,13,14
 485 556 485 556 428 614 c 128,-1,15
 371 672 371 672 261 672 c 2,16,-1
 84 672 l 1,17,-1
 84 24 l 1,18,-1
 261 24 l 2,19,20
 485 24 485 24 485 271 c 2,12,-1
244 778 m 1,21,-1
 366 860 l 1,22,-1
 378 848 l 1,23,-1
 260 748 l 1,24,-1
 231 748 l 1,25,-1
 109 848 l 1,26,-1
 121 861 l 1,27,-1
 244 778 l 1,21,-1
EndSplineSet
Validated: 1
EndChar

StartChar: dcaron
Encoding: 271 271 208
Width: 550
GlyphClass: 2
Flags: W
LayerCount: 2
Fore
SplineSet
493 577 m 1,0,-1
 475 577 l 1,1,-1
 499 675 l 1,2,-1
 489 675 l 1,3,-1
 489 722 l 1,4,-1
 530 722 l 1,5,-1
 530 672 l 1,6,-1
 493 577 l 1,0,-1
428 0 m 1,7,-1
 404 0 l 1,8,-1
 404 102 l 1,9,-1
 403 102 l 1,10,11
 386 66 386 66 364.5 43 c 128,-1,12
 343 20 343 20 319 10 c 128,-1,13
 295 0 295 0 276 -3.5 c 128,-1,14
 257 -7 257 -7 233 -7 c 0,15,16
 52 -7 52 -7 52 251 c 0,17,18
 52 290 52 290 57 323.5 c 128,-1,19
 62 357 62 357 75 390.5 c 128,-1,20
 88 424 88 424 109 447.5 c 128,-1,21
 130 471 130 471 164 485.5 c 128,-1,22
 198 500 198 500 242 500 c 0,23,24
 306 500 306 500 342.5 471 c 128,-1,25
 379 442 379 442 403 395 c 1,26,-1
 404 395 l 1,27,-1
 404 721 l 1,28,-1
 428 721 l 1,29,-1
 428 0 l 1,7,-1
404 244 m 0,30,31
 404 349 404 349 364 414 c 128,-1,32
 324 479 324 479 243 479 c 0,33,34
 78 479 78 479 78 247 c 0,35,36
 78 213 78 213 80.5 185.5 c 128,-1,37
 83 158 83 158 92.5 124 c 128,-1,38
 102 90 102 90 118.5 67.5 c 128,-1,39
 135 45 135 45 166 29.5 c 128,-1,40
 197 14 197 14 239 14 c 0,41,42
 288 14 288 14 322.5 36.5 c 128,-1,43
 357 59 357 59 373.5 96 c 128,-1,44
 390 133 390 133 397 169 c 128,-1,45
 404 205 404 205 404 244 c 0,30,31
EndSplineSet
Validated: 1
EndChar

StartChar: Dcroat
Encoding: 272 272 209
Width: 550
GlyphClass: 2
Flags: W
LayerCount: 2
Fore
SplineSet
11 365 m 1,0,-1
 11 388 l 1,1,-1
 57 388 l 1,2,-1
 57 696 l 1,3,-1
 269 696 l 2,4,5
 429 696 429 696 487 572 c 0,6,7
 511 521 511 521 511 361 c 0,8,9
 511 187 511 187 488 132 c 0,10,11
 458 61 458 61 401.5 30.5 c 128,-1,12
 345 0 345 0 257 0 c 2,13,-1
 57 0 l 1,14,-1
 57 365 l 1,15,-1
 11 365 l 1,0,-1
485 271 m 2,16,-1
 485 419 l 2,17,18
 485 556 485 556 428 614 c 128,-1,19
 371 672 371 672 261 672 c 2,20,-1
 84 672 l 1,21,-1
 84 388 l 1,22,-1
 274 388 l 1,23,-1
 274 365 l 1,24,-1
 84 365 l 1,25,-1
 84 24 l 1,26,-1
 261 24 l 2,27,28
 485 24 485 24 485 271 c 2,16,-1
EndSplineSet
Validated: 1
EndChar

StartChar: dcroat
Encoding: 273 273 210
Width: 550
GlyphClass: 2
Flags: W
LayerCount: 2
Fore
SplineSet
262 586 m 1,0,-1
 262 606 l 1,1,-1
 429 606 l 1,2,-1
 429 721 l 1,3,-1
 453 721 l 1,4,-1
 453 606 l 1,5,-1
 491 606 l 1,6,-1
 491 586 l 1,7,-1
 453 586 l 1,8,-1
 453 0 l 1,9,-1
 429 0 l 1,10,-1
 429 102 l 1,11,-1
 428 102 l 1,12,13
 411 66 411 66 389.5 43 c 128,-1,14
 368 20 368 20 344 10 c 128,-1,15
 320 0 320 0 301 -3.5 c 128,-1,16
 282 -7 282 -7 258 -7 c 0,17,18
 77 -7 77 -7 77 251 c 0,19,20
 77 290 77 290 82 323.5 c 128,-1,21
 87 357 87 357 100 390.5 c 128,-1,22
 113 424 113 424 134 447.5 c 128,-1,23
 155 471 155 471 189 485.5 c 128,-1,24
 223 500 223 500 267 500 c 0,25,26
 331 500 331 500 367.5 471 c 128,-1,27
 404 442 404 442 428 395 c 1,28,-1
 429 395 l 1,29,-1
 429 586 l 1,30,-1
 262 586 l 1,0,-1
429 244 m 0,31,32
 429 349 429 349 389 414 c 128,-1,33
 349 479 349 479 268 479 c 0,34,35
 103 479 103 479 103 247 c 0,36,37
 103 213 103 213 105.5 185.5 c 128,-1,38
 108 158 108 158 117.5 124 c 128,-1,39
 127 90 127 90 143.5 67.5 c 128,-1,40
 160 45 160 45 191 29.5 c 128,-1,41
 222 14 222 14 264 14 c 0,42,43
 313 14 313 14 347.5 36.5 c 128,-1,44
 382 59 382 59 398.5 96 c 128,-1,45
 415 133 415 133 422 169 c 128,-1,46
 429 205 429 205 429 244 c 0,31,32
EndSplineSet
Validated: 1
EndChar

StartChar: Emacron
Encoding: 274 274 211
Width: 550
GlyphClass: 2
Flags: W
LayerCount: 2
Fore
SplineSet
84 0 m 1,0,-1
 84 696 l 1,1,-1
 481 696 l 1,2,-1
 481 672 l 1,3,-1
 111 672 l 1,4,-1
 111 378 l 1,5,-1
 445 378 l 1,6,-1
 445 354 l 1,7,-1
 111 354 l 1,8,-1
 111 24 l 1,9,-1
 509 24 l 1,10,-1
 509 0 l 1,11,-1
 84 0 l 1,0,-1
167 805 m 1,12,-1
 167 829 l 1,13,-1
 415 829 l 1,14,-1
 415 805 l 1,15,-1
 167 805 l 1,12,-1
EndSplineSet
Validated: 1
EndChar

StartChar: emacron
Encoding: 275 275 212
Width: 550
GlyphClass: 2
Flags: W
LayerCount: 2
Fore
SplineSet
103 251 m 1,0,1
 102 182 102 182 118 131.5 c 128,-1,2
 134 81 134 81 177 47 c 128,-1,3
 220 13 220 13 289 13 c 0,4,5
 354 13 354 13 411 52 c 1,6,-1
 426 34 l 1,7,8
 367 -7 367 -7 291 -7 c 0,9,10
 80 -7 80 -7 80 245 c 0,11,12
 80 318 80 318 97.5 370.5 c 128,-1,13
 115 423 115 423 145 450 c 128,-1,14
 175 477 175 477 207.5 489 c 128,-1,15
 240 501 240 501 277 501 c 0,16,17
 376 501 376 501 422.5 436.5 c 128,-1,18
 469 372 469 372 469 271 c 2,19,-1
 469 251 l 1,20,-1
 103 251 l 1,0,1
278 480 m 0,21,22
 199 480 199 480 154.5 426 c 128,-1,23
 110 372 110 372 105 272 c 1,24,-1
 443 272 l 1,25,26
 439 376 439 376 396.5 428 c 128,-1,27
 354 480 354 480 278 480 c 0,21,22
154 600 m 1,28,-1
 154 624 l 1,29,-1
 402 624 l 1,30,-1
 402 600 l 1,31,-1
 154 600 l 1,28,-1
EndSplineSet
Validated: 33
EndChar

StartChar: Ebreve
Encoding: 276 276 213
Width: 550
GlyphClass: 2
Flags: W
LayerCount: 2
Fore
SplineSet
84 0 m 1,0,-1
 84 696 l 1,1,-1
 481 696 l 1,2,-1
 481 672 l 1,3,-1
 111 672 l 1,4,-1
 111 378 l 1,5,-1
 445 378 l 1,6,-1
 445 354 l 1,7,-1
 111 354 l 1,8,-1
 111 24 l 1,9,-1
 509 24 l 1,10,-1
 509 0 l 1,11,-1
 84 0 l 1,0,-1
291 787 m 0,12,13
 328 787 328 787 355 809 c 128,-1,14
 382 831 382 831 388 865 c 1,15,-1
 410 865 l 1,16,17
 403 824 403 824 372.5 794 c 128,-1,18
 342 764 342 764 291 764 c 128,-1,19
 240 764 240 764 209 794 c 128,-1,20
 178 824 178 824 172 865 c 1,21,-1
 193 865 l 1,22,23
 199 831 199 831 227 809 c 128,-1,24
 255 787 255 787 291 787 c 0,12,13
EndSplineSet
Validated: 1
EndChar

StartChar: ebreve
Encoding: 277 277 214
Width: 550
GlyphClass: 2
Flags: W
LayerCount: 2
Fore
SplineSet
103 251 m 1,0,1
 102 182 102 182 118 131.5 c 128,-1,2
 134 81 134 81 177 47 c 128,-1,3
 220 13 220 13 289 13 c 0,4,5
 354 13 354 13 411 52 c 1,6,-1
 426 34 l 1,7,8
 367 -7 367 -7 291 -7 c 0,9,10
 80 -7 80 -7 80 245 c 0,11,12
 80 318 80 318 97.5 370.5 c 128,-1,13
 115 423 115 423 145 450 c 128,-1,14
 175 477 175 477 207.5 489 c 128,-1,15
 240 501 240 501 277 501 c 0,16,17
 376 501 376 501 422.5 436.5 c 128,-1,18
 469 372 469 372 469 271 c 2,19,-1
 469 251 l 1,20,-1
 103 251 l 1,0,1
278 480 m 0,21,22
 199 480 199 480 154.5 426 c 128,-1,23
 110 372 110 372 105 272 c 1,24,-1
 443 272 l 1,25,26
 439 376 439 376 396.5 428 c 128,-1,27
 354 480 354 480 278 480 c 0,21,22
274 595 m 0,28,29
 351 595 351 595 371 673 c 1,30,-1
 393 673 l 1,31,32
 386 632 386 632 355.5 602 c 128,-1,33
 325 572 325 572 274 572 c 128,-1,34
 223 572 223 572 192 602 c 128,-1,35
 161 632 161 632 155 673 c 1,36,-1
 177 673 l 1,37,38
 184 636 184 636 212 615.5 c 128,-1,39
 240 595 240 595 274 595 c 0,28,29
EndSplineSet
Validated: 33
EndChar

StartChar: Edotaccent
Encoding: 278 278 215
Width: 550
GlyphClass: 2
Flags: W
LayerCount: 2
Fore
SplineSet
84 0 m 1,0,-1
 84 696 l 1,1,-1
 481 696 l 1,2,-1
 481 672 l 1,3,-1
 111 672 l 1,4,-1
 111 378 l 1,5,-1
 445 378 l 1,6,-1
 445 354 l 1,7,-1
 111 354 l 1,8,-1
 111 24 l 1,9,-1
 509 24 l 1,10,-1
 509 0 l 1,11,-1
 84 0 l 1,0,-1
257 774 m 1,12,-1
 257 810 l 1,13,-1
 295 810 l 1,14,-1
 295 774 l 1,15,-1
 257 774 l 1,12,-1
EndSplineSet
Validated: 1
EndChar

StartChar: edotaccent
Encoding: 279 279 216
Width: 550
GlyphClass: 2
Flags: W
LayerCount: 2
Fore
SplineSet
103 251 m 1,0,1
 102 182 102 182 118 131.5 c 128,-1,2
 134 81 134 81 177 47 c 128,-1,3
 220 13 220 13 289 13 c 0,4,5
 354 13 354 13 411 52 c 1,6,-1
 426 34 l 1,7,8
 367 -7 367 -7 291 -7 c 0,9,10
 80 -7 80 -7 80 245 c 0,11,12
 80 318 80 318 97.5 370.5 c 128,-1,13
 115 423 115 423 145 450 c 128,-1,14
 175 477 175 477 207.5 489 c 128,-1,15
 240 501 240 501 277 501 c 0,16,17
 376 501 376 501 422.5 436.5 c 128,-1,18
 469 372 469 372 469 271 c 2,19,-1
 469 251 l 1,20,-1
 103 251 l 1,0,1
278 480 m 0,21,22
 199 480 199 480 154.5 426 c 128,-1,23
 110 372 110 372 105 272 c 1,24,-1
 443 272 l 1,25,26
 439 376 439 376 396.5 428 c 128,-1,27
 354 480 354 480 278 480 c 0,21,22
259 624 m 1,28,-1
 259 660 l 1,29,-1
 297 660 l 1,30,-1
 297 624 l 1,31,-1
 259 624 l 1,28,-1
EndSplineSet
Validated: 33
EndChar

StartChar: Eogonek
Encoding: 280 280 217
Width: 550
GlyphClass: 2
Flags: W
LayerCount: 2
Fore
SplineSet
84 0 m 1,0,-1
 84 696 l 1,1,-1
 481 696 l 1,2,-1
 481 672 l 1,3,-1
 111 672 l 1,4,-1
 111 378 l 1,5,-1
 445 378 l 1,6,-1
 445 354 l 1,7,-1
 111 354 l 1,8,-1
 111 24 l 1,9,-1
 509 24 l 1,10,-1
 509 0 l 1,11,-1
 464 0 l 1,12,13
 446 -21 446 -21 434 -46.5 c 128,-1,14
 422 -72 422 -72 422 -90 c 0,15,16
 422 -147 422 -147 480 -147 c 0,17,18
 509 -147 509 -147 538 -132 c 1,19,-1
 547 -150 l 1,20,21
 515 -170 515 -170 476 -170 c 0,22,23
 439 -170 439 -170 417.5 -147.5 c 128,-1,24
 396 -125 396 -125 396 -93 c 0,25,26
 396 -42 396 -42 439 0 c 1,27,-1
 84 0 l 1,0,-1
EndSplineSet
Validated: 1
EndChar

StartChar: eogonek
Encoding: 281 281 218
Width: 550
GlyphClass: 2
Flags: W
LayerCount: 2
Fore
SplineSet
352 -63 m 0,0,1
 352 -27 352 -27 376 7 c 1,2,3
 334 -7 334 -7 291 -7 c 0,4,5
 80 -7 80 -7 80 245 c 0,6,7
 80 318 80 318 97.5 370.5 c 128,-1,8
 115 423 115 423 145 450 c 128,-1,9
 175 477 175 477 207.5 489 c 128,-1,10
 240 501 240 501 277 501 c 0,11,12
 376 501 376 501 422.5 436.5 c 128,-1,13
 469 372 469 372 469 271 c 2,14,-1
 469 251 l 1,15,-1
 103 251 l 1,16,17
 102 182 102 182 118 131.5 c 128,-1,18
 134 81 134 81 177 47 c 128,-1,19
 220 13 220 13 289 13 c 0,20,21
 354 13 354 13 411 52 c 1,22,-1
 426 34 l 2,23,24
 424 32 424 32 420 30 c 0,25,26
 402 9 402 9 390 -16.5 c 128,-1,27
 378 -42 378 -42 378 -60 c 0,28,29
 378 -117 378 -117 436 -117 c 0,30,31
 465 -117 465 -117 494 -102 c 1,32,-1
 503 -120 l 1,33,34
 471 -140 471 -140 432 -140 c 0,35,36
 395 -140 395 -140 373.5 -117.5 c 128,-1,37
 352 -95 352 -95 352 -63 c 0,0,1
278 480 m 0,38,39
 199 480 199 480 154.5 426 c 128,-1,40
 110 372 110 372 105 272 c 1,41,-1
 443 272 l 1,42,43
 439 376 439 376 396.5 428 c 128,-1,44
 354 480 354 480 278 480 c 0,38,39
EndSplineSet
Validated: 33
EndChar

StartChar: Ecaron
Encoding: 282 282 219
Width: 550
GlyphClass: 2
Flags: W
LayerCount: 2
Fore
SplineSet
84 0 m 1,0,-1
 84 696 l 1,1,-1
 481 696 l 1,2,-1
 481 672 l 1,3,-1
 111 672 l 1,4,-1
 111 378 l 1,5,-1
 445 378 l 1,6,-1
 445 354 l 1,7,-1
 111 354 l 1,8,-1
 111 24 l 1,9,-1
 509 24 l 1,10,-1
 509 0 l 1,11,-1
 84 0 l 1,0,-1
281 778 m 1,12,-1
 403 860 l 1,13,-1
 415 848 l 1,14,-1
 297 748 l 1,15,-1
 268 748 l 1,16,-1
 146 848 l 1,17,-1
 158 861 l 1,18,-1
 281 778 l 1,12,-1
EndSplineSet
Validated: 1
EndChar

StartChar: ecaron
Encoding: 283 283 220
Width: 550
GlyphClass: 2
Flags: W
LayerCount: 2
Fore
SplineSet
103 251 m 1,0,1
 102 182 102 182 118 131.5 c 128,-1,2
 134 81 134 81 177 47 c 128,-1,3
 220 13 220 13 289 13 c 0,4,5
 354 13 354 13 411 52 c 1,6,-1
 426 34 l 1,7,8
 367 -7 367 -7 291 -7 c 0,9,10
 80 -7 80 -7 80 245 c 0,11,12
 80 318 80 318 97.5 370.5 c 128,-1,13
 115 423 115 423 145 450 c 128,-1,14
 175 477 175 477 207.5 489 c 128,-1,15
 240 501 240 501 277 501 c 0,16,17
 376 501 376 501 422.5 436.5 c 128,-1,18
 469 372 469 372 469 271 c 2,19,-1
 469 251 l 1,20,-1
 103 251 l 1,0,1
278 480 m 0,21,22
 199 480 199 480 154.5 426 c 128,-1,23
 110 372 110 372 105 272 c 1,24,-1
 443 272 l 1,25,26
 439 376 439 376 396.5 428 c 128,-1,27
 354 480 354 480 278 480 c 0,21,22
281 599 m 1,28,-1
 403 691 l 1,29,-1
 415 679 l 1,30,-1
 297 569 l 1,31,-1
 268 569 l 1,32,-1
 146 679 l 1,33,-1
 158 692 l 1,34,-1
 281 599 l 1,28,-1
EndSplineSet
Validated: 33
EndChar

StartChar: Gcircumflex
Encoding: 284 284 221
Width: 550
GlyphClass: 2
Flags: W
LayerCount: 2
Fore
SplineSet
275 701 m 0,0,1
 348 701 348 701 402 668 c 128,-1,2
 456 635 456 635 483 579 c 1,3,4
 479 576 479 576 471.5 572 c 128,-1,5
 464 568 464 568 461 566 c 1,6,7
 438 616 438 616 389 647 c 128,-1,8
 340 678 340 678 276 678 c 0,9,10
 173 678 173 678 118.5 615.5 c 128,-1,11
 64 553 64 553 64 456 c 2,12,-1
 64 238 l 2,13,14
 64 142 64 142 119 78.5 c 128,-1,15
 174 15 174 15 276 15 c 0,16,17
 371 15 371 15 428.5 78 c 128,-1,18
 486 141 486 141 486 229 c 2,19,-1
 486 318 l 1,20,-1
 323 318 l 1,21,-1
 323 342 l 1,22,-1
 512 342 l 1,23,-1
 512 242 l 2,24,25
 512 135 512 135 448.5 64 c 128,-1,26
 385 -7 385 -7 275 -7 c 0,27,28
 158 -7 158 -7 98 63.5 c 128,-1,29
 38 134 38 134 38 243 c 2,30,-1
 38 458 l 2,31,32
 38 562 38 562 99.5 631.5 c 128,-1,33
 161 701 161 701 275 701 c 0,0,1
395 746 m 1,34,-1
 273 828 l 1,35,-1
 150 745 l 1,36,-1
 138 758 l 1,37,-1
 260 858 l 1,38,-1
 289 858 l 1,39,-1
 407 758 l 1,40,-1
 395 746 l 1,34,-1
EndSplineSet
Validated: 1
EndChar

StartChar: gcircumflex
Encoding: 285 285 222
Width: 550
GlyphClass: 2
Flags: W
LayerCount: 2
Fore
SplineSet
453 495 m 1,0,-1
 453 3 l 2,1,2
 453 -104 453 -104 396 -154 c 128,-1,3
 339 -204 339 -204 249 -204 c 0,4,5
 177 -204 177 -204 123 -163 c 1,6,-1
 138 -144 l 1,7,8
 192 -182 192 -182 249 -182 c 0,9,10
 332 -182 332 -182 380.5 -137 c 128,-1,11
 429 -92 429 -92 429 -10 c 2,12,-1
 429 107 l 1,13,-1
 428 107 l 1,14,15
 377 -5 377 -5 264 -5 c 0,16,17
 76 -5 76 -5 76 247 c 0,18,19
 76 360 76 360 122 430.5 c 128,-1,20
 168 501 168 501 265 501 c 0,21,22
 318 501 318 501 358.5 479 c 128,-1,23
 399 457 399 457 428 396 c 1,24,-1
 429 396 l 1,25,-1
 429 495 l 1,26,-1
 453 495 l 1,0,-1
429 252 m 0,27,28
 429 290 429 290 422 326.5 c 128,-1,29
 415 363 415 363 398.5 399 c 128,-1,30
 382 435 382 435 348 457 c 128,-1,31
 314 479 314 479 268 479 c 0,32,33
 102 479 102 479 102 247 c 0,34,35
 102 16 102 16 268 16 c 0,36,37
 348 16 348 16 388.5 82 c 128,-1,38
 429 148 429 148 429 252 c 0,27,28
396 569 m 1,39,-1
 274 661 l 1,40,-1
 151 568 l 1,41,-1
 139 581 l 1,42,-1
 261 691 l 1,43,-1
 290 691 l 1,44,-1
 408 581 l 1,45,-1
 396 569 l 1,39,-1
EndSplineSet
Validated: 1
EndChar

StartChar: Gbreve
Encoding: 286 286 223
Width: 550
GlyphClass: 2
Flags: W
LayerCount: 2
Fore
SplineSet
275 701 m 0,0,1
 348 701 348 701 402 668 c 128,-1,2
 456 635 456 635 483 579 c 1,3,4
 479 576 479 576 471.5 572 c 128,-1,5
 464 568 464 568 461 566 c 1,6,7
 438 616 438 616 389 647 c 128,-1,8
 340 678 340 678 276 678 c 0,9,10
 173 678 173 678 118.5 615.5 c 128,-1,11
 64 553 64 553 64 456 c 2,12,-1
 64 238 l 2,13,14
 64 142 64 142 119 78.5 c 128,-1,15
 174 15 174 15 276 15 c 0,16,17
 371 15 371 15 428.5 78 c 128,-1,18
 486 141 486 141 486 229 c 2,19,-1
 486 318 l 1,20,-1
 323 318 l 1,21,-1
 323 342 l 1,22,-1
 512 342 l 1,23,-1
 512 242 l 2,24,25
 512 135 512 135 448.5 64 c 128,-1,26
 385 -7 385 -7 275 -7 c 0,27,28
 158 -7 158 -7 98 63.5 c 128,-1,29
 38 134 38 134 38 243 c 2,30,-1
 38 458 l 2,31,32
 38 562 38 562 99.5 631.5 c 128,-1,33
 161 701 161 701 275 701 c 0,0,1
268 791 m 0,34,35
 305 791 305 791 332 813 c 128,-1,36
 359 835 359 835 365 869 c 1,37,-1
 387 869 l 1,38,39
 380 828 380 828 349.5 798 c 128,-1,40
 319 768 319 768 268 768 c 128,-1,41
 217 768 217 768 186 798 c 128,-1,42
 155 828 155 828 149 869 c 1,43,-1
 170 869 l 1,44,45
 176 835 176 835 204 813 c 128,-1,46
 232 791 232 791 268 791 c 0,34,35
EndSplineSet
Validated: 1
EndChar

StartChar: gbreve
Encoding: 287 287 224
Width: 550
GlyphClass: 2
Flags: W
LayerCount: 2
Fore
SplineSet
453 495 m 1,0,-1
 453 3 l 2,1,2
 453 -104 453 -104 396 -154 c 128,-1,3
 339 -204 339 -204 249 -204 c 0,4,5
 177 -204 177 -204 123 -163 c 1,6,-1
 138 -144 l 1,7,8
 192 -182 192 -182 249 -182 c 0,9,10
 332 -182 332 -182 380.5 -137 c 128,-1,11
 429 -92 429 -92 429 -10 c 2,12,-1
 429 107 l 1,13,-1
 428 107 l 1,14,15
 377 -5 377 -5 264 -5 c 0,16,17
 76 -5 76 -5 76 247 c 0,18,19
 76 360 76 360 122 430.5 c 128,-1,20
 168 501 168 501 265 501 c 0,21,22
 318 501 318 501 358.5 479 c 128,-1,23
 399 457 399 457 428 396 c 1,24,-1
 429 396 l 1,25,-1
 429 495 l 1,26,-1
 453 495 l 1,0,-1
429 252 m 0,27,28
 429 290 429 290 422 326.5 c 128,-1,29
 415 363 415 363 398.5 399 c 128,-1,30
 382 435 382 435 348 457 c 128,-1,31
 314 479 314 479 268 479 c 0,32,33
 102 479 102 479 102 247 c 0,34,35
 102 16 102 16 268 16 c 0,36,37
 348 16 348 16 388.5 82 c 128,-1,38
 429 148 429 148 429 252 c 0,27,28
262 595 m 0,39,40
 339 595 339 595 359 673 c 1,41,-1
 381 673 l 1,42,43
 374 632 374 632 343.5 602 c 128,-1,44
 313 572 313 572 262 572 c 128,-1,45
 211 572 211 572 180 602 c 128,-1,46
 149 632 149 632 143 673 c 1,47,-1
 165 673 l 1,48,49
 172 636 172 636 200 615.5 c 128,-1,50
 228 595 228 595 262 595 c 0,39,40
EndSplineSet
Validated: 1
EndChar

StartChar: Gdotaccent
Encoding: 288 288 225
Width: 550
GlyphClass: 2
Flags: W
LayerCount: 2
Fore
SplineSet
275 701 m 0,0,1
 348 701 348 701 402 668 c 128,-1,2
 456 635 456 635 483 579 c 1,3,4
 479 576 479 576 471.5 572 c 128,-1,5
 464 568 464 568 461 566 c 1,6,7
 438 616 438 616 389 647 c 128,-1,8
 340 678 340 678 276 678 c 0,9,10
 173 678 173 678 118.5 615.5 c 128,-1,11
 64 553 64 553 64 456 c 2,12,-1
 64 238 l 2,13,14
 64 142 64 142 119 78.5 c 128,-1,15
 174 15 174 15 276 15 c 0,16,17
 371 15 371 15 428.5 78 c 128,-1,18
 486 141 486 141 486 229 c 2,19,-1
 486 318 l 1,20,-1
 323 318 l 1,21,-1
 323 342 l 1,22,-1
 512 342 l 1,23,-1
 512 242 l 2,24,25
 512 135 512 135 448.5 64 c 128,-1,26
 385 -7 385 -7 275 -7 c 0,27,28
 158 -7 158 -7 98 63.5 c 128,-1,29
 38 134 38 134 38 243 c 2,30,-1
 38 458 l 2,31,32
 38 562 38 562 99.5 631.5 c 128,-1,33
 161 701 161 701 275 701 c 0,0,1
254 774 m 1,34,-1
 254 810 l 1,35,-1
 292 810 l 1,36,-1
 292 774 l 1,37,-1
 254 774 l 1,34,-1
EndSplineSet
Validated: 1
EndChar

StartChar: gdotaccent
Encoding: 289 289 226
Width: 550
GlyphClass: 2
Flags: W
LayerCount: 2
Fore
SplineSet
453 495 m 1,0,-1
 453 3 l 2,1,2
 453 -104 453 -104 396 -154 c 128,-1,3
 339 -204 339 -204 249 -204 c 0,4,5
 177 -204 177 -204 123 -163 c 1,6,-1
 138 -144 l 1,7,8
 192 -182 192 -182 249 -182 c 0,9,10
 332 -182 332 -182 380.5 -137 c 128,-1,11
 429 -92 429 -92 429 -10 c 2,12,-1
 429 107 l 1,13,-1
 428 107 l 1,14,15
 377 -5 377 -5 264 -5 c 0,16,17
 76 -5 76 -5 76 247 c 0,18,19
 76 360 76 360 122 430.5 c 128,-1,20
 168 501 168 501 265 501 c 0,21,22
 318 501 318 501 358.5 479 c 128,-1,23
 399 457 399 457 428 396 c 1,24,-1
 429 396 l 1,25,-1
 429 495 l 1,26,-1
 453 495 l 1,0,-1
429 252 m 0,27,28
 429 290 429 290 422 326.5 c 128,-1,29
 415 363 415 363 398.5 399 c 128,-1,30
 382 435 382 435 348 457 c 128,-1,31
 314 479 314 479 268 479 c 0,32,33
 102 479 102 479 102 247 c 0,34,35
 102 16 102 16 268 16 c 0,36,37
 348 16 348 16 388.5 82 c 128,-1,38
 429 148 429 148 429 252 c 0,27,28
250 624 m 1,39,-1
 250 660 l 1,40,-1
 288 660 l 1,41,-1
 288 624 l 1,42,-1
 250 624 l 1,39,-1
EndSplineSet
Validated: 1
EndChar

StartChar: Gcommaaccent
Encoding: 290 290 227
Width: 550
GlyphClass: 2
Flags: W
LayerCount: 2
Fore
SplineSet
275 701 m 0,0,1
 348 701 348 701 402 668 c 128,-1,2
 456 635 456 635 483 579 c 1,3,4
 479 576 479 576 471.5 572 c 128,-1,5
 464 568 464 568 461 566 c 1,6,7
 438 616 438 616 389 647 c 128,-1,8
 340 678 340 678 276 678 c 0,9,10
 173 678 173 678 118.5 615.5 c 128,-1,11
 64 553 64 553 64 456 c 2,12,-1
 64 238 l 2,13,14
 64 142 64 142 119 78.5 c 128,-1,15
 174 15 174 15 276 15 c 0,16,17
 371 15 371 15 428.5 78 c 128,-1,18
 486 141 486 141 486 229 c 2,19,-1
 486 318 l 1,20,-1
 323 318 l 1,21,-1
 323 342 l 1,22,-1
 512 342 l 1,23,-1
 512 242 l 2,24,25
 512 135 512 135 448.5 64 c 128,-1,26
 385 -7 385 -7 275 -7 c 0,27,28
 158 -7 158 -7 98 63.5 c 128,-1,29
 38 134 38 134 38 243 c 2,30,-1
 38 458 l 2,31,32
 38 562 38 562 99.5 631.5 c 128,-1,33
 161 701 161 701 275 701 c 0,0,1
264 -234 m 1,34,-1
 246 -234 l 1,35,-1
 270 -136 l 1,36,-1
 260 -136 l 1,37,-1
 260 -89 l 1,38,-1
 301 -89 l 1,39,-1
 301 -139 l 1,40,-1
 264 -234 l 1,34,-1
EndSplineSet
Validated: 1
EndChar

StartChar: gcommaaccent
Encoding: 291 291 228
Width: 550
GlyphClass: 2
Flags: W
LayerCount: 2
Fore
SplineSet
289 728 m 1,0,-1
 307 728 l 1,1,-1
 283 630 l 1,2,-1
 293 630 l 1,3,-1
 293 583 l 1,4,-1
 252 583 l 1,5,-1
 252 633 l 1,6,-1
 289 728 l 1,0,-1
453 495 m 1,7,-1
 453 3 l 2,8,9
 453 -104 453 -104 396 -154 c 128,-1,10
 339 -204 339 -204 249 -204 c 0,11,12
 177 -204 177 -204 123 -163 c 1,13,-1
 138 -144 l 1,14,15
 192 -182 192 -182 249 -182 c 0,16,17
 332 -182 332 -182 380.5 -137 c 128,-1,18
 429 -92 429 -92 429 -10 c 2,19,-1
 429 107 l 1,20,-1
 428 107 l 1,21,22
 377 -5 377 -5 264 -5 c 0,23,24
 76 -5 76 -5 76 247 c 0,25,26
 76 360 76 360 122 430.5 c 128,-1,27
 168 501 168 501 265 501 c 0,28,29
 318 501 318 501 358.5 479 c 128,-1,30
 399 457 399 457 428 396 c 1,31,-1
 429 396 l 1,32,-1
 429 495 l 1,33,-1
 453 495 l 1,7,-1
429 252 m 0,34,35
 429 290 429 290 422 326.5 c 128,-1,36
 415 363 415 363 398.5 399 c 128,-1,37
 382 435 382 435 348 457 c 128,-1,38
 314 479 314 479 268 479 c 0,39,40
 102 479 102 479 102 247 c 0,41,42
 102 16 102 16 268 16 c 0,43,44
 348 16 348 16 388.5 82 c 128,-1,45
 429 148 429 148 429 252 c 0,34,35
EndSplineSet
Validated: 1
EndChar

StartChar: Hcircumflex
Encoding: 292 292 229
Width: 550
GlyphClass: 2
Flags: W
LayerCount: 2
Fore
SplineSet
479 0 m 1,0,-1
 479 354 l 1,1,-1
 72 354 l 1,2,-1
 72 0 l 1,3,-1
 46 0 l 1,4,-1
 46 696 l 1,5,-1
 72 696 l 1,6,-1
 72 378 l 1,7,-1
 479 378 l 1,8,-1
 479 696 l 1,9,-1
 505 696 l 1,10,-1
 505 0 l 1,11,-1
 479 0 l 1,0,-1
400 746 m 1,12,-1
 278 828 l 1,13,-1
 155 745 l 1,14,-1
 143 758 l 1,15,-1
 265 858 l 1,16,-1
 294 858 l 1,17,-1
 412 758 l 1,18,-1
 400 746 l 1,12,-1
EndSplineSet
Validated: 1
EndChar

StartChar: hcircumflex
Encoding: 293 293 230
Width: 550
GlyphClass: 2
Flags: W
LayerCount: 2
Fore
SplineSet
477 0 m 1,0,-1
 477 327 l 2,1,2
 477 401 477 401 436.5 439.5 c 128,-1,3
 396 478 396 478 323 478 c 0,4,5
 251 478 251 478 201.5 428 c 128,-1,6
 152 378 152 378 152 302 c 2,7,-1
 152 0 l 1,8,-1
 128 0 l 1,9,-1
 128 721 l 1,10,-1
 152 721 l 1,11,-1
 152 398 l 1,12,-1
 154 398 l 1,13,14
 177 449 177 449 225.5 474.5 c 128,-1,15
 274 500 274 500 325 500 c 0,16,17
 412 500 412 500 456.5 456.5 c 128,-1,18
 501 413 501 413 501 334 c 2,19,-1
 501 0 l 1,20,-1
 477 0 l 1,0,-1
262 720 m 1,21,-1
 140 812 l 1,22,-1
 17 719 l 1,23,-1
 5 732 l 1,24,-1
 127 842 l 1,25,-1
 156 842 l 1,26,-1
 274 732 l 1,27,-1
 262 720 l 1,21,-1
EndSplineSet
Validated: 1
EndChar

StartChar: Hbar
Encoding: 294 294 231
Width: 550
GlyphClass: 2
Flags: W
LayerCount: 2
Fore
SplineSet
479 0 m 1,0,-1
 479 354 l 1,1,-1
 72 354 l 1,2,-1
 72 0 l 1,3,-1
 46 0 l 1,4,-1
 46 575 l 1,5,-1
 7 575 l 1,6,-1
 7 595 l 1,7,-1
 46 595 l 1,8,-1
 46 696 l 1,9,-1
 72 696 l 1,10,-1
 72 595 l 1,11,-1
 479 595 l 1,12,-1
 479 696 l 1,13,-1
 505 696 l 1,14,-1
 505 595 l 1,15,-1
 539 595 l 1,16,-1
 539 575 l 1,17,-1
 505 575 l 1,18,-1
 505 0 l 1,19,-1
 479 0 l 1,0,-1
72 378 m 1,20,-1
 479 378 l 1,21,-1
 479 575 l 1,22,-1
 72 575 l 1,23,-1
 72 378 l 1,20,-1
EndSplineSet
Validated: 1
EndChar

StartChar: hbar
Encoding: 295 295 232
Width: 550
GlyphClass: 2
Flags: W
LayerCount: 2
Fore
SplineSet
59 594 m 1,0,-1
 59 617 l 1,1,-1
 118 617 l 1,2,-1
 118 721 l 1,3,-1
 142 721 l 1,4,-1
 142 617 l 1,5,-1
 385 617 l 1,6,-1
 385 594 l 1,7,-1
 142 594 l 1,8,-1
 142 386 l 1,9,-1
 144 386 l 1,10,11
 167 437 167 437 215.5 462.5 c 128,-1,12
 264 488 264 488 315 488 c 0,13,14
 402 488 402 488 446.5 444.5 c 128,-1,15
 491 401 491 401 491 322 c 2,16,-1
 491 0 l 1,17,-1
 467 0 l 1,18,-1
 467 315 l 2,19,20
 467 389 467 389 426.5 427.5 c 128,-1,21
 386 466 386 466 313 466 c 0,22,23
 241 466 241 466 191.5 416 c 128,-1,24
 142 366 142 366 142 290 c 2,25,-1
 142 0 l 1,26,-1
 118 0 l 1,27,-1
 118 594 l 1,28,-1
 59 594 l 1,0,-1
EndSplineSet
Validated: 1
EndChar

StartChar: Itilde
Encoding: 296 296 233
Width: 550
GlyphClass: 2
Flags: W
LayerCount: 2
Fore
SplineSet
222 673 m 5,0,-1
 222 696 l 5,1,-1
 328 696 l 5,2,-1
 328 673 l 5,3,-1
 288 673 l 5,4,-1
 288 23 l 5,5,-1
 328 23 l 5,6,-1
 328 0 l 5,7,-1
 222 0 l 5,8,-1
 222 23 l 5,9,-1
 262 23 l 5,10,-1
 262 673 l 5,11,-1
 222 673 l 5,0,-1
223 839 m 0,12,13
 243 839 243 839 285.5 819 c 128,-1,14
 328 799 328 799 344 799 c 0,15,16
 370 799 370 799 397 838 c 1,17,-1
 417 826 l 1,18,19
 386 772 386 772 343 772 c 0,20,21
 325 772 325 772 282.5 792 c 128,-1,22
 240 812 240 812 221 812 c 0,23,24
 188 812 188 812 157 774 c 1,25,-1
 138 786 l 1,26,27
 175 839 175 839 223 839 c 0,12,13
EndSplineSet
Validated: 1
EndChar

StartChar: itilde
Encoding: 297 297 234
Width: 550
GlyphClass: 2
Flags: W
LayerCount: 2
Fore
SplineSet
221 0 m 5,0,-1
 221 24 l 5,1,-1
 283 24 l 5,2,-1
 283 471 l 5,3,-1
 220 471 l 5,4,-1
 220 495 l 5,5,-1
 308 495 l 5,6,-1
 308 24 l 5,7,-1
 367 24 l 5,8,-1
 367 0 l 5,9,-1
 221 0 l 5,0,-1
211 669 m 0,10,11
 231 669 231 669 273.5 649 c 128,-1,12
 316 629 316 629 332 629 c 0,13,14
 358 629 358 629 385 668 c 1,15,-1
 405 656 l 1,16,17
 374 602 374 602 331 602 c 0,18,19
 313 602 313 602 270.5 622 c 128,-1,20
 228 642 228 642 209 642 c 0,21,22
 176 642 176 642 145 604 c 1,23,-1
 126 616 l 1,24,25
 163 669 163 669 211 669 c 0,10,11
EndSplineSet
Validated: 1
EndChar

StartChar: Imacron
Encoding: 298 298 235
Width: 550
GlyphClass: 2
Flags: W
LayerCount: 2
Fore
SplineSet
222 673 m 5,0,-1
 222 696 l 5,1,-1
 328 696 l 5,2,-1
 328 673 l 5,3,-1
 288 673 l 5,4,-1
 288 23 l 5,5,-1
 328 23 l 5,6,-1
 328 0 l 5,7,-1
 222 0 l 5,8,-1
 222 23 l 5,9,-1
 262 23 l 5,10,-1
 262 673 l 5,11,-1
 222 673 l 5,0,-1
151 794 m 1,12,-1
 151 818 l 1,13,-1
 399 818 l 1,14,-1
 399 794 l 1,15,-1
 151 794 l 1,12,-1
EndSplineSet
Validated: 1
EndChar

StartChar: imacron
Encoding: 299 299 236
Width: 550
GlyphClass: 2
Flags: W
LayerCount: 2
Fore
SplineSet
221 0 m 5,0,-1
 221 24 l 5,1,-1
 283 24 l 5,2,-1
 283 471 l 5,3,-1
 220 471 l 5,4,-1
 220 495 l 5,5,-1
 308 495 l 5,6,-1
 308 24 l 5,7,-1
 367 24 l 5,8,-1
 367 0 l 5,9,-1
 221 0 l 5,0,-1
151 600 m 1,10,-1
 151 624 l 1,11,-1
 399 624 l 1,12,-1
 399 600 l 1,13,-1
 151 600 l 1,10,-1
EndSplineSet
Validated: 1
EndChar

StartChar: Ibreve
Encoding: 300 300 237
Width: 550
GlyphClass: 2
Flags: W
LayerCount: 2
Fore
SplineSet
222 673 m 5,0,-1
 222 696 l 5,1,-1
 328 696 l 5,2,-1
 328 673 l 5,3,-1
 288 673 l 5,4,-1
 288 23 l 5,5,-1
 328 23 l 5,6,-1
 328 0 l 5,7,-1
 222 0 l 5,8,-1
 222 23 l 5,9,-1
 262 23 l 5,10,-1
 262 673 l 5,11,-1
 222 673 l 5,0,-1
275 796 m 0,12,13
 312 796 312 796 339 818 c 128,-1,14
 366 840 366 840 372 874 c 1,15,-1
 394 874 l 1,16,17
 387 833 387 833 356.5 803 c 128,-1,18
 326 773 326 773 275 773 c 128,-1,19
 224 773 224 773 193 803 c 128,-1,20
 162 833 162 833 156 874 c 1,21,-1
 177 874 l 1,22,23
 183 840 183 840 211 818 c 128,-1,24
 239 796 239 796 275 796 c 0,12,13
EndSplineSet
Validated: 1
EndChar

StartChar: ibreve
Encoding: 301 301 238
Width: 550
GlyphClass: 2
Flags: W
LayerCount: 2
Fore
SplineSet
201 0 m 1,0,-1
 201 24 l 1,1,-1
 313 24 l 1,2,-1
 313 471 l 1,3,-1
 190 471 l 1,4,-1
 190 495 l 1,5,-1
 338 495 l 1,6,-1
 338 24 l 1,7,-1
 397 24 l 1,8,-1
 397 0 l 1,9,-1
 201 0 l 1,0,-1
275 601 m 0,10,11
 352 601 352 601 372 679 c 1,12,-1
 394 679 l 1,13,14
 387 638 387 638 356.5 608 c 128,-1,15
 326 578 326 578 275 578 c 128,-1,16
 224 578 224 578 193 608 c 128,-1,17
 162 638 162 638 156 679 c 1,18,-1
 178 679 l 1,19,20
 185 642 185 642 213 621.5 c 128,-1,21
 241 601 241 601 275 601 c 0,10,11
EndSplineSet
Validated: 1
EndChar

StartChar: Iogonek
Encoding: 302 302 239
Width: 550
GlyphClass: 2
Flags: W
LayerCount: 2
Fore
SplineSet
262 0 m 1,0,1
 262 0 262 0 222 0 c 1,2,-1
 222 23 l 1,3,-1
 262 23 l 1,4,-1
 262 673 l 1,5,-1
 222 673 l 1,6,-1
 222 696 l 1,7,-1
 328 696 l 1,8,-1
 328 673 l 1,9,-1
 288 673 l 1,10,-1
 288 23 l 1,11,-1
 328 23 l 1,12,-1
 328 0 l 1,13,-1
 287 0 l 1,14,15
 269 -21 269 -21 257 -46.5 c 128,-1,16
 245 -72 245 -72 245 -90 c 0,17,18
 245 -147 245 -147 303 -147 c 0,19,20
 332 -147 332 -147 361 -132 c 1,21,22
 370 -150 370 -150 370 -150 c 1,23,24
 338 -170 338 -170 299 -170 c 0,25,26
 262 -170 262 -170 240.5 -147.5 c 128,-1,27
 219 -125 219 -125 219 -93 c 0,28,29
 219 -42 219 -42 262 0 c 1,0,1
EndSplineSet
EndChar

StartChar: iogonek
Encoding: 303 303 240
Width: 550
GlyphClass: 2
Flags: W
LayerCount: 2
Fore
SplineSet
367 24 m 9,0,-1
 367 0 l 17,1,-1
 305 0 l 1,2,3
 265 -47 265 -47 265 -88 c 0,4,5
 265 -145 265 -145 323 -145 c 0,6,7
 352 -145 352 -145 381 -130 c 1,8,9
 390 -148 390 -148 390 -148 c 1,10,11
 358 -168 358 -168 319 -168 c 0,12,13
 282 -168 282 -168 260.5 -145.5 c 128,-1,14
 239 -123 239 -123 239 -91 c 0,15,16
 239 -40 239 -40 280 0 c 1,17,18
 280 0 280 0 161 0 c 1,19,-1
 161 24 l 1,20,-1
 283 24 l 1,21,-1
 283 471 l 1,22,-1
 160 471 l 1,23,-1
 160 495 l 1,24,-1
 308 495 l 1,25,-1
 308 24 l 1,26,-1
 367 24 l 9,0,-1
278 665 m 1,27,-1
 278 697 l 1,28,-1
 311 697 l 1,29,-1
 311 665 l 1,30,-1
 278 665 l 1,27,-1
EndSplineSet
EndChar

StartChar: Idotaccent
Encoding: 304 304 241
Width: 550
GlyphClass: 2
Flags: W
LayerCount: 2
Fore
SplineSet
222 673 m 5,0,-1
 222 696 l 5,1,-1
 328 696 l 5,2,-1
 328 673 l 5,3,-1
 288 673 l 5,4,-1
 288 23 l 5,5,-1
 328 23 l 5,6,-1
 328 0 l 5,7,-1
 222 0 l 5,8,-1
 222 23 l 5,9,-1
 262 23 l 5,10,-1
 262 673 l 5,11,-1
 222 673 l 5,0,-1
254 774 m 1,12,-1
 254 810 l 1,13,-1
 292 810 l 1,14,-1
 292 774 l 1,15,-1
 254 774 l 1,12,-1
EndSplineSet
Validated: 1
EndChar

StartChar: dotlessi
Encoding: 305 305 242
Width: 550
GlyphClass: 2
Flags: W
LayerCount: 2
Fore
SplineSet
191 0 m 1,0,-1
 191 24 l 1,1,-1
 313 24 l 1,2,-1
 313 471 l 1,3,-1
 190 471 l 1,4,-1
 190 495 l 1,5,-1
 338 495 l 1,6,-1
 338 24 l 1,7,-1
 397 24 l 1,8,-1
 397 0 l 1,9,-1
 191 0 l 1,0,-1
EndSplineSet
Validated: 1
EndChar

StartChar: IJ
Encoding: 306 306 243
Width: 550
GlyphClass: 2
Flags: W
LayerCount: 2
Fore
SplineSet
66 0 m 1,0,-1
 66 696 l 1,1,-1
 92 696 l 1,2,-1
 92 0 l 1,3,-1
 66 0 l 1,0,-1
298 -6 m 0,4,5
 217 -6 217 -6 162 40 c 1,6,-1
 178 60 l 1,7,8
 231 19 231 19 299 19 c 0,9,10
 463 19 463 19 463 209 c 2,11,-1
 463 696 l 1,12,-1
 489 696 l 1,13,-1
 489 190 l 2,14,15
 489 94 489 94 435.5 44 c 128,-1,16
 382 -6 382 -6 298 -6 c 0,4,5
EndSplineSet
Validated: 1
EndChar

StartChar: ij
Encoding: 307 307 244
Width: 550
GlyphClass: 2
Flags: W
LayerCount: 2
Fore
SplineSet
178 665 m 1,0,-1
 178 697 l 1,1,-1
 211 697 l 1,2,-1
 211 665 l 1,3,-1
 178 665 l 1,0,-1
208 0 m 1,4,-1
 183 0 l 1,5,-1
 183 496 l 1,6,-1
 208 496 l 1,7,-1
 208 0 l 1,4,-1
346 666 m 1,8,-1
 346 697 l 1,9,-1
 380 697 l 1,10,-1
 380 666 l 1,11,-1
 346 666 l 1,8,-1
264 -204 m 2,12,-1
 227 -204 l 1,13,-1
 227 -181 l 1,14,-1
 264 -181 l 2,15,16
 350 -181 350 -181 350 -76 c 2,17,-1
 350 495 l 1,18,-1
 376 495 l 1,19,-1
 376 -81 l 2,20,21
 376 -137 376 -137 348 -170.5 c 128,-1,22
 320 -204 320 -204 264 -204 c 2,12,-1
EndSplineSet
Validated: 1
EndChar

StartChar: Jcircumflex
Encoding: 308 308 245
Width: 550
GlyphClass: 2
Flags: W
LayerCount: 2
Fore
SplineSet
105 672 m 1,0,-1
 105 696 l 1,1,-1
 408 696 l 1,2,-1
 408 191 l 2,3,4
 408 94 408 94 354 44.5 c 128,-1,5
 300 -5 300 -5 210 -5 c 0,6,7
 174 -5 174 -5 132.5 9.5 c 128,-1,8
 91 24 91 24 64 46 c 1,9,-1
 80 66 l 1,10,11
 139 20 139 20 211 20 c 0,12,13
 382 20 382 20 382 210 c 2,14,-1
 382 672 l 1,15,-1
 105 672 l 1,0,-1
455 754 m 1,16,-1
 333 836 l 1,17,-1
 210 753 l 1,18,-1
 198 766 l 1,19,-1
 320 866 l 1,20,-1
 349 866 l 1,21,-1
 467 766 l 1,22,-1
 455 754 l 1,16,-1
EndSplineSet
Validated: 1
EndChar

StartChar: jcircumflex
Encoding: 309 309 246
Width: 550
GlyphClass: 2
Flags: W
LayerCount: 2
Fore
SplineSet
337 495 m 1,0,-1
 337 -81 l 2,1,2
 337 -137 337 -137 309 -170.5 c 128,-1,3
 281 -204 281 -204 225 -204 c 2,4,-1
 172 -204 l 1,5,-1
 172 -181 l 1,6,-1
 225 -181 l 2,7,8
 312 -181 312 -181 312 -76 c 2,9,-1
 312 472 l 1,10,-1
 232 472 l 1,11,-1
 232 495 l 1,12,-1
 337 495 l 1,0,-1
435 569 m 1,13,-1
 313 661 l 1,14,-1
 190 568 l 1,15,-1
 178 581 l 1,16,-1
 300 691 l 1,17,-1
 329 691 l 1,18,-1
 447 581 l 1,19,-1
 435 569 l 1,13,-1
EndSplineSet
Validated: 1
EndChar

StartChar: Kcommaaccent
Encoding: 310 310 247
Width: 550
GlyphClass: 2
Flags: W
LayerCount: 2
Fore
SplineSet
508 696 m 1,0,-1
 302 430 l 1,1,-1
 543 0 l 1,2,-1
 514 0 l 1,3,-1
 285 408 l 1,4,-1
 108 180 l 1,5,-1
 108 0 l 1,6,-1
 82 0 l 1,7,-1
 82 696 l 1,8,-1
 108 696 l 1,9,-1
 108 219 l 1,10,-1
 478 696 l 1,11,-1
 508 696 l 1,0,-1
267 -203 m 1,12,-1
 249 -203 l 1,13,-1
 273 -105 l 1,14,-1
 263 -105 l 1,15,-1
 263 -58 l 1,16,-1
 304 -58 l 1,17,-1
 304 -108 l 1,18,-1
 267 -203 l 1,12,-1
EndSplineSet
Validated: 1
EndChar

StartChar: kcommaaccent
Encoding: 311 311 248
Width: 550
GlyphClass: 2
Flags: W
LayerCount: 2
Fore
SplineSet
465 495 m 1,0,-1
 295 309 l 1,1,-1
 499 0 l 1,2,-1
 472 0 l 1,3,-1
 278 291 l 1,4,-1
 148 149 l 1,5,-1
 148 0 l 1,6,-1
 123 0 l 1,7,-1
 123 721 l 1,8,-1
 148 721 l 1,9,-1
 148 183 l 1,10,-1
 435 495 l 1,11,-1
 465 495 l 1,0,-1
267 -203 m 1,12,-1
 249 -203 l 1,13,-1
 273 -105 l 1,14,-1
 263 -105 l 1,15,-1
 263 -58 l 1,16,-1
 304 -58 l 1,17,-1
 304 -108 l 1,18,-1
 267 -203 l 1,12,-1
EndSplineSet
Validated: 1
EndChar

StartChar: kgreenlandic
Encoding: 312 312 249
Width: 550
GlyphClass: 2
Flags: W
LayerCount: 2
Fore
SplineSet
465 495 m 1,0,-1
 295 309 l 1,1,-1
 499 0 l 1,2,-1
 470 0 l 1,3,-1
 278 291 l 1,4,-1
 148 149 l 1,5,-1
 148 0 l 1,6,-1
 123 0 l 1,7,-1
 123 495 l 1,8,-1
 148 495 l 1,9,-1
 148 183 l 1,10,-1
 435 495 l 1,11,-1
 465 495 l 1,0,-1
EndSplineSet
Validated: 1
EndChar

StartChar: Lacute
Encoding: 313 313 250
Width: 550
GlyphClass: 2
Flags: W
LayerCount: 2
Fore
SplineSet
138 0 m 1,0,-1
 138 696 l 1,1,-1
 164 696 l 1,2,-1
 164 24 l 1,3,-1
 521 24 l 1,4,-1
 521 0 l 1,5,-1
 138 0 l 1,0,-1
134 754 m 1,6,-1
 123 767 l 1,7,-1
 252 868 l 1,8,-1
 276 842 l 1,9,-1
 134 754 l 1,6,-1
EndSplineSet
Validated: 1
EndChar

StartChar: lacute
Encoding: 314 314 251
Width: 550
GlyphClass: 2
Flags: W
LayerCount: 2
Fore
SplineSet
273 0 m 5,0,-1
 273 24 l 5,1,-1
 273 24 l 5,2,-1
 273 698 l 5,3,-1
 266 698 l 5,4,-1
 266 722 l 5,5,-1
 298 722 l 5,6,-1
 298 24 l 5,7,-1
 357 24 l 5,8,-1
 357 0 l 5,9,-1
 273 0 l 5,0,-1
249 764 m 1,10,-1
 238 777 l 1,11,-1
 367 878 l 1,12,-1
 391 852 l 1,13,-1
 249 764 l 1,10,-1
EndSplineSet
Validated: 1
EndChar

StartChar: Lcommaaccent
Encoding: 315 315 252
Width: 550
GlyphClass: 2
Flags: W
LayerCount: 2
Fore
SplineSet
138 0 m 1,0,-1
 138 696 l 1,1,-1
 164 696 l 1,2,-1
 164 24 l 1,3,-1
 521 24 l 1,4,-1
 521 0 l 1,5,-1
 138 0 l 1,0,-1
310 -223 m 1,6,-1
 292 -223 l 1,7,-1
 316 -125 l 1,8,-1
 306 -125 l 1,9,-1
 306 -78 l 1,10,-1
 347 -78 l 1,11,-1
 347 -128 l 1,12,-1
 310 -223 l 1,6,-1
EndSplineSet
Validated: 1
EndChar

StartChar: lcommaaccent
Encoding: 316 316 253
Width: 550
GlyphClass: 2
Flags: W
LayerCount: 2
Fore
SplineSet
273 0 m 5,0,-1
 273 24 l 5,1,-1
 273 24 l 5,2,-1
 273 698 l 5,3,-1
 266 698 l 5,4,-1
 266 722 l 5,5,-1
 298 722 l 5,6,-1
 298 24 l 5,7,-1
 357 24 l 5,8,-1
 357 0 l 5,9,-1
 273 0 l 5,0,-1
277 -223 m 1,10,-1
 259 -223 l 1,11,-1
 283 -125 l 1,12,-1
 273 -125 l 1,13,-1
 273 -78 l 1,14,-1
 314 -78 l 1,15,-1
 314 -128 l 1,16,-1
 277 -223 l 1,10,-1
EndSplineSet
Validated: 1
EndChar

StartChar: Lcaron
Encoding: 317 317 254
Width: 550
GlyphClass: 2
Flags: W
LayerCount: 2
Fore
SplineSet
348 551 m 1,0,-1
 330 551 l 1,1,-1
 354 649 l 1,2,-1
 344 649 l 1,3,-1
 344 696 l 1,4,-1
 385 696 l 1,5,-1
 385 646 l 1,6,-1
 348 551 l 1,0,-1
138 0 m 1,7,-1
 138 696 l 1,8,-1
 164 696 l 1,9,-1
 164 24 l 1,10,-1
 521 24 l 1,11,-1
 521 0 l 1,12,-1
 138 0 l 1,7,-1
EndSplineSet
Validated: 1
EndChar

StartChar: lcaron
Encoding: 318 318 255
Width: 550
GlyphClass: 2
Flags: W
LayerCount: 2
Fore
SplineSet
273 0 m 5,0,-1
 273 24 l 5,1,-1
 273 24 l 5,2,-1
 273 698 l 5,3,-1
 266 698 l 5,4,-1
 266 722 l 5,5,-1
 298 722 l 5,6,-1
 298 24 l 5,7,-1
 357 24 l 5,8,-1
 357 0 l 5,9,-1
 273 0 l 5,0,-1
410 571 m 1,10,-1
 392 571 l 1,11,-1
 416 669 l 1,12,-1
 406 669 l 1,13,-1
 406 716 l 1,14,-1
 447 716 l 1,15,-1
 447 666 l 1,16,-1
 410 571 l 1,10,-1
EndSplineSet
Validated: 1
EndChar

StartChar: Ldot
Encoding: 319 319 256
Width: 550
GlyphClass: 2
Flags: W
LayerCount: 2
Fore
SplineSet
138 0 m 1,0,-1
 138 696 l 1,1,-1
 164 696 l 1,2,-1
 164 24 l 1,3,-1
 521 24 l 1,4,-1
 521 0 l 1,5,-1
 138 0 l 1,0,-1
344 341 m 1,6,-1
 344 377 l 1,7,-1
 382 377 l 1,8,-1
 382 341 l 1,9,-1
 344 341 l 1,6,-1
EndSplineSet
Validated: 1
EndChar

StartChar: ldot
Encoding: 320 320 257
Width: 550
GlyphClass: 2
Flags: W
LayerCount: 2
Fore
SplineSet
273 0 m 5,0,-1
 273 24 l 5,1,-1
 273 24 l 5,2,-1
 273 698 l 5,3,-1
 266 698 l 5,4,-1
 266 722 l 5,5,-1
 298 722 l 5,6,-1
 298 24 l 5,7,-1
 357 24 l 5,8,-1
 357 0 l 5,9,-1
 273 0 l 5,0,-1
371 356 m 1,10,-1
 371 392 l 1,11,-1
 409 392 l 1,12,-1
 409 356 l 1,13,-1
 371 356 l 1,10,-1
EndSplineSet
Validated: 1
EndChar

StartChar: Lslash
Encoding: 321 321 258
Width: 550
GlyphClass: 2
Flags: W
LayerCount: 2
Fore
SplineSet
138 0 m 1,0,-1
 138 292 l 1,1,-1
 31 231 l 1,2,-1
 19 251 l 1,3,-1
 138 319 l 1,4,-1
 138 696 l 1,5,-1
 164 696 l 1,6,-1
 164 334 l 1,7,-1
 279 401 l 1,8,-1
 291 381 l 1,9,-1
 164 307 l 1,10,-1
 164 24 l 1,11,-1
 521 24 l 1,12,-1
 521 0 l 1,13,-1
 138 0 l 1,0,-1
EndSplineSet
Validated: 1
EndChar

StartChar: lslash
Encoding: 322 322 259
Width: 550
GlyphClass: 2
Flags: W
LayerCount: 2
Fore
SplineSet
273 326 m 1,0,1
 273 326 273 326 273 326 c 1,2,-1
 183 274 l 1,3,-1
 171 294 l 1,4,-1
 273 353 l 1,5,-1
 273 353 l 1,6,7
 273 353 273 353 273 353 c 1,8,-1
 273 698 l 1,9,-1
 266 698 l 1,10,-1
 266 722 l 1,11,-1
 298 722 l 1,12,-1
 298 367.365671642 l 1,13,-1
 298 367.365234375 l 1,14,15
 298 367.365234375 298 367.365234375 298 367.365234375 c 1,16,-1
 407 430 l 1,17,-1
 419 410 l 1,18,-1
 298 340 l 1,19,-1
 298 340 l 1,20,21
 298 340 298 340 298 340 c 1,22,-1
 298 24 l 1,23,-1
 357 24 l 1,24,-1
 357 0 l 1,25,-1
 273 0 l 1,26,-1
 273 24 l 1,27,-1
 273 326 l 1,28,-1
 273 326 l 1,0,1
EndSplineSet
EndChar

StartChar: Nacute
Encoding: 323 323 260
Width: 550
GlyphClass: 2
Flags: W
LayerCount: 2
Fore
SplineSet
454 0 m 1,0,-1
 94 653 l 1,1,-1
 94 0 l 1,2,-1
 68 0 l 1,3,-1
 68 696 l 1,4,-1
 97 696 l 1,5,-1
 457 42 l 1,6,-1
 457 696 l 1,7,-1
 483 696 l 1,8,-1
 483 0 l 1,9,-1
 454 0 l 1,0,-1
226 754 m 1,10,-1
 215 767 l 1,11,-1
 344 868 l 1,12,-1
 368 842 l 1,13,-1
 226 754 l 1,10,-1
EndSplineSet
Validated: 1
EndChar

StartChar: nacute
Encoding: 324 324 261
Width: 550
GlyphClass: 2
Flags: W
LayerCount: 2
Fore
SplineSet
437 0 m 1,0,-1
 437 327 l 2,1,2
 437 401 437 401 396.5 439.5 c 128,-1,3
 356 478 356 478 283 478 c 0,4,5
 211 478 211 478 161.5 428 c 128,-1,6
 112 378 112 378 112 302 c 2,7,-1
 112 0 l 1,8,-1
 88 0 l 1,9,-1
 88 495 l 1,10,-1
 112 495 l 1,11,-1
 112 398 l 1,12,-1
 114 398 l 1,13,14
 137 449 137 449 185.5 474.5 c 128,-1,15
 234 500 234 500 285 500 c 0,16,17
 372 500 372 500 416.5 456.5 c 128,-1,18
 461 413 461 413 461 334 c 2,19,-1
 461 0 l 1,20,-1
 437 0 l 1,0,-1
254 579 m 1,21,-1
 239 587 l 1,22,-1
 321 729 l 1,23,-1
 353 713 l 1,24,-1
 254 579 l 1,21,-1
EndSplineSet
Validated: 1
EndChar

StartChar: Ncommaaccent
Encoding: 325 325 262
Width: 550
GlyphClass: 2
Flags: W
LayerCount: 2
Fore
SplineSet
454 0 m 1,0,-1
 94 653 l 1,1,-1
 94 0 l 1,2,-1
 68 0 l 1,3,-1
 68 696 l 1,4,-1
 97 696 l 1,5,-1
 457 42 l 1,6,-1
 457 696 l 1,7,-1
 483 696 l 1,8,-1
 483 0 l 1,9,-1
 454 0 l 1,0,-1
255 -199 m 1,10,-1
 237 -199 l 1,11,-1
 261 -101 l 1,12,-1
 251 -101 l 1,13,-1
 251 -54 l 1,14,-1
 292 -54 l 1,15,-1
 292 -104 l 1,16,-1
 255 -199 l 1,10,-1
EndSplineSet
Validated: 1
EndChar

StartChar: ncommaaccent
Encoding: 326 326 263
Width: 550
GlyphClass: 2
Flags: W
LayerCount: 2
Fore
SplineSet
437 0 m 1,0,-1
 437 327 l 2,1,2
 437 401 437 401 396.5 439.5 c 128,-1,3
 356 478 356 478 283 478 c 0,4,5
 211 478 211 478 161.5 428 c 128,-1,6
 112 378 112 378 112 302 c 2,7,-1
 112 0 l 1,8,-1
 88 0 l 1,9,-1
 88 495 l 1,10,-1
 112 495 l 1,11,-1
 112 398 l 1,12,-1
 114 398 l 1,13,14
 137 449 137 449 185.5 474.5 c 128,-1,15
 234 500 234 500 285 500 c 0,16,17
 372 500 372 500 416.5 456.5 c 128,-1,18
 461 413 461 413 461 334 c 2,19,-1
 461 0 l 1,20,-1
 437 0 l 1,0,-1
263 -199 m 1,21,-1
 245 -199 l 1,22,-1
 269 -101 l 1,23,-1
 259 -101 l 1,24,-1
 259 -54 l 1,25,-1
 300 -54 l 1,26,-1
 300 -104 l 1,27,-1
 263 -199 l 1,21,-1
EndSplineSet
Validated: 1
EndChar

StartChar: Ncaron
Encoding: 327 327 264
Width: 550
GlyphClass: 2
Flags: W
LayerCount: 2
Fore
SplineSet
454 0 m 1,0,-1
 94 653 l 1,1,-1
 94 0 l 1,2,-1
 68 0 l 1,3,-1
 68 696 l 1,4,-1
 97 696 l 1,5,-1
 457 42 l 1,6,-1
 457 696 l 1,7,-1
 483 696 l 1,8,-1
 483 0 l 1,9,-1
 454 0 l 1,0,-1
283 778 m 1,10,-1
 405 860 l 1,11,-1
 417 848 l 1,12,-1
 299 748 l 1,13,-1
 270 748 l 1,14,-1
 148 848 l 1,15,-1
 160 861 l 1,16,-1
 283 778 l 1,10,-1
EndSplineSet
Validated: 1
EndChar

StartChar: ncaron
Encoding: 328 328 265
Width: 550
GlyphClass: 2
Flags: W
LayerCount: 2
Fore
SplineSet
437 0 m 1,0,-1
 437 327 l 2,1,2
 437 401 437 401 396.5 439.5 c 128,-1,3
 356 478 356 478 283 478 c 0,4,5
 211 478 211 478 161.5 428 c 128,-1,6
 112 378 112 378 112 302 c 2,7,-1
 112 0 l 1,8,-1
 88 0 l 1,9,-1
 88 495 l 1,10,-1
 112 495 l 1,11,-1
 112 398 l 1,12,-1
 114 398 l 1,13,14
 137 449 137 449 185.5 474.5 c 128,-1,15
 234 500 234 500 285 500 c 0,16,17
 372 500 372 500 416.5 456.5 c 128,-1,18
 461 413 461 413 461 334 c 2,19,-1
 461 0 l 1,20,-1
 437 0 l 1,0,-1
268 599 m 1,21,-1
 390 691 l 1,22,-1
 402 679 l 1,23,-1
 284 569 l 1,24,-1
 255 569 l 1,25,-1
 133 679 l 1,26,-1
 145 692 l 1,27,-1
 268 599 l 1,21,-1
EndSplineSet
Validated: 1
EndChar

StartChar: napostrophe
Encoding: 329 329 266
Width: 550
GlyphClass: 2
Flags: W
LayerCount: 2
Fore
SplineSet
55 499 m 1,0,-1
 37 499 l 1,1,-1
 61 597 l 1,2,-1
 51 597 l 1,3,-1
 51 644 l 1,4,-1
 92 644 l 1,5,-1
 92 594 l 1,6,-1
 55 499 l 1,0,-1
467 0 m 1,7,-1
 467 327 l 2,8,9
 467 401 467 401 426.5 439.5 c 128,-1,10
 386 478 386 478 313 478 c 0,11,12
 241 478 241 478 191.5 428 c 128,-1,13
 142 378 142 378 142 302 c 2,14,-1
 142 0 l 1,15,-1
 118 0 l 1,16,-1
 118 495 l 1,17,-1
 142 495 l 1,18,-1
 142 398 l 1,19,-1
 144 398 l 1,20,21
 167 449 167 449 215.5 474.5 c 128,-1,22
 264 500 264 500 315 500 c 0,23,24
 402 500 402 500 446.5 456.5 c 128,-1,25
 491 413 491 413 491 334 c 2,26,-1
 491 0 l 1,27,-1
 467 0 l 1,7,-1
EndSplineSet
Validated: 1
EndChar

StartChar: Eng
Encoding: 330 330 267
Width: 550
GlyphClass: 2
Flags: W
LayerCount: 2
Fore
SplineSet
329 -159 m 0,0,1
 458 -159 458 -159 458 -34 c 2,2,-1
 458 -6 l 1,3,-1
 94 653 l 1,4,-1
 94 0 l 1,5,-1
 68 0 l 1,6,-1
 68 696 l 1,7,-1
 97 696 l 1,8,-1
 457 42 l 1,9,-1
 457 696 l 1,10,-1
 482 696 l 1,11,-1
 482 -32 l 2,12,13
 482 -183 482 -183 325 -183 c 0,14,15
 296 -183 296 -183 272 -179 c 1,16,-1
 277 -154 l 1,17,18
 305 -159 305 -159 329 -159 c 0,0,1
EndSplineSet
Validated: 1
EndChar

StartChar: eng
Encoding: 331 331 268
Width: 550
GlyphClass: 2
Flags: W
LayerCount: 2
Fore
SplineSet
437 -34 m 2,0,-1
 437 327 l 2,1,2
 437 401 437 401 396.5 439.5 c 128,-1,3
 356 478 356 478 283 478 c 0,4,5
 211 478 211 478 161.5 428 c 128,-1,6
 112 378 112 378 112 302 c 2,7,-1
 112 0 l 1,8,-1
 88 0 l 1,9,-1
 88 495 l 1,10,-1
 112 495 l 1,11,-1
 112 398 l 1,12,-1
 114 398 l 1,13,14
 137 449 137 449 185.5 474.5 c 128,-1,15
 234 500 234 500 285 500 c 0,16,17
 372 500 372 500 416.5 456.5 c 128,-1,18
 461 413 461 413 461 334 c 2,19,-1
 461 -32 l 2,20,21
 461 -183 461 -183 304 -183 c 0,22,23
 275 -183 275 -183 251 -179 c 1,24,-1
 256 -154 l 1,25,26
 284 -159 284 -159 308 -159 c 0,27,28
 437 -159 437 -159 437 -34 c 2,0,-1
EndSplineSet
Validated: 1
EndChar

StartChar: Omacron
Encoding: 332 332 269
Width: 550
GlyphClass: 2
Flags: W
LayerCount: 2
Fore
SplineSet
277 701 m 0,0,1
 385 701 385 701 447.5 634 c 128,-1,2
 510 567 510 567 510 458 c 2,3,-1
 510 243 l 2,4,5
 510 128 510 128 447.5 60.5 c 128,-1,6
 385 -7 385 -7 277 -7 c 0,7,8
 160 -7 160 -7 100 63.5 c 128,-1,9
 40 134 40 134 40 243 c 2,10,-1
 40 458 l 2,11,12
 40 562 40 562 101.5 631.5 c 128,-1,13
 163 701 163 701 277 701 c 0,0,1
278 676 m 0,14,15
 177 676 177 676 122 614 c 128,-1,16
 67 552 67 552 67 456 c 2,17,-1
 67 238 l 2,18,19
 67 144 67 144 122 80.5 c 128,-1,20
 177 17 177 17 278 17 c 0,21,22
 373 17 373 17 428 80 c 128,-1,23
 483 143 483 143 483 244 c 2,24,-1
 483 456 l 2,25,26
 483 552 483 552 428 614 c 128,-1,27
 373 676 373 676 278 676 c 0,14,15
159 808 m 1,28,-1
 159 832 l 1,29,-1
 407 832 l 1,30,-1
 407 808 l 1,31,-1
 159 808 l 1,28,-1
EndSplineSet
Validated: 1
EndChar

StartChar: omacron
Encoding: 333 333 270
Width: 550
GlyphClass: 2
Flags: W
LayerCount: 2
Fore
SplineSet
277 501 m 0,0,1
 385 501 385 501 436 422 c 0,2,3
 472 365 472 365 472 244 c 0,4,5
 472 111 472 111 415 49 c 0,6,7
 365 -6 365 -6 272 -6 c 0,8,9
 189 -6 189 -6 140 41 c 0,10,11
 77 104 77 104 77 251 c 0,12,13
 77 394 77 394 147 455 c 0,14,15
 200 501 200 501 277 501 c 0,0,1
276 479 m 0,16,17
 203 479 203 479 157 431 c 0,18,19
 102 374 102 374 102 248 c 0,20,21
 102 117 102 117 158 59 c 0,22,23
 202 15 202 15 275 15 c 0,24,25
 350 15 350 15 396 63 c 0,26,27
 447 117 447 117 447 245 c 0,28,29
 447 363 447 363 413 411 c 0,30,31
 366 479 366 479 276 479 c 0,16,17
157 600 m 1,32,-1
 157 624 l 1,33,-1
 405 624 l 1,34,-1
 405 600 l 1,35,-1
 157 600 l 1,32,-1
EndSplineSet
Validated: 1
EndChar

StartChar: Obreve
Encoding: 334 334 271
Width: 550
GlyphClass: 2
Flags: W
LayerCount: 2
Fore
SplineSet
277 701 m 0,0,1
 385 701 385 701 447.5 634 c 128,-1,2
 510 567 510 567 510 458 c 2,3,-1
 510 243 l 2,4,5
 510 128 510 128 447.5 60.5 c 128,-1,6
 385 -7 385 -7 277 -7 c 0,7,8
 160 -7 160 -7 100 63.5 c 128,-1,9
 40 134 40 134 40 243 c 2,10,-1
 40 458 l 2,11,12
 40 562 40 562 101.5 631.5 c 128,-1,13
 163 701 163 701 277 701 c 0,0,1
278 676 m 0,14,15
 177 676 177 676 122 614 c 128,-1,16
 67 552 67 552 67 456 c 2,17,-1
 67 238 l 2,18,19
 67 144 67 144 122 80.5 c 128,-1,20
 177 17 177 17 278 17 c 0,21,22
 373 17 373 17 428 80 c 128,-1,23
 483 143 483 143 483 244 c 2,24,-1
 483 456 l 2,25,26
 483 552 483 552 428 614 c 128,-1,27
 373 676 373 676 278 676 c 0,14,15
281 793 m 0,28,29
 318 793 318 793 345 815 c 128,-1,30
 372 837 372 837 378 871 c 1,31,-1
 400 871 l 1,32,33
 393 830 393 830 362.5 800 c 128,-1,34
 332 770 332 770 281 770 c 128,-1,35
 230 770 230 770 199 800 c 128,-1,36
 168 830 168 830 162 871 c 1,37,-1
 183 871 l 1,38,39
 189 837 189 837 217 815 c 128,-1,40
 245 793 245 793 281 793 c 0,28,29
EndSplineSet
Validated: 1
EndChar

StartChar: obreve
Encoding: 335 335 272
Width: 550
GlyphClass: 2
Flags: W
LayerCount: 2
Fore
SplineSet
277 501 m 0,0,1
 385 501 385 501 436 422 c 0,2,3
 472 365 472 365 472 244 c 0,4,5
 472 111 472 111 415 49 c 0,6,7
 365 -6 365 -6 272 -6 c 0,8,9
 189 -6 189 -6 140 41 c 0,10,11
 77 104 77 104 77 251 c 0,12,13
 77 394 77 394 147 455 c 0,14,15
 200 501 200 501 277 501 c 0,0,1
276 479 m 0,16,17
 203 479 203 479 157 431 c 0,18,19
 102 374 102 374 102 248 c 0,20,21
 102 117 102 117 158 59 c 0,22,23
 202 15 202 15 275 15 c 0,24,25
 350 15 350 15 396 63 c 0,26,27
 447 117 447 117 447 245 c 0,28,29
 447 363 447 363 413 411 c 0,30,31
 366 479 366 479 276 479 c 0,16,17
278 595 m 0,32,33
 355 595 355 595 375 673 c 1,34,-1
 397 673 l 1,35,36
 390 632 390 632 359.5 602 c 128,-1,37
 329 572 329 572 278 572 c 128,-1,38
 227 572 227 572 196 602 c 128,-1,39
 165 632 165 632 159 673 c 1,40,-1
 181 673 l 1,41,42
 188 636 188 636 216 615.5 c 128,-1,43
 244 595 244 595 278 595 c 0,32,33
EndSplineSet
Validated: 1
EndChar

StartChar: Ohungarumlaut
Encoding: 336 336 273
Width: 550
GlyphClass: 2
Flags: W
LayerCount: 2
Fore
SplineSet
277 701 m 0,0,1
 385 701 385 701 447.5 634 c 128,-1,2
 510 567 510 567 510 458 c 2,3,-1
 510 243 l 2,4,5
 510 128 510 128 447.5 60.5 c 128,-1,6
 385 -7 385 -7 277 -7 c 0,7,8
 160 -7 160 -7 100 63.5 c 128,-1,9
 40 134 40 134 40 243 c 2,10,-1
 40 458 l 2,11,12
 40 562 40 562 101.5 631.5 c 128,-1,13
 163 701 163 701 277 701 c 0,0,1
278 676 m 0,14,15
 177 676 177 676 122 614 c 128,-1,16
 67 552 67 552 67 456 c 2,17,-1
 67 238 l 2,18,19
 67 144 67 144 122 80.5 c 128,-1,20
 177 17 177 17 278 17 c 0,21,22
 373 17 373 17 428 80 c 128,-1,23
 483 143 483 143 483 244 c 2,24,-1
 483 456 l 2,25,26
 483 552 483 552 428 614 c 128,-1,27
 373 676 373 676 278 676 c 0,14,15
322 755 m 1,28,-1
 311 768 l 1,29,-1
 440 869 l 1,30,-1
 464 843 l 1,31,-1
 322 755 l 1,28,-1
222 755 m 1,32,-1
 211 768 l 1,33,-1
 340 869 l 1,34,-1
 364 843 l 1,35,-1
 222 755 l 1,32,-1
EndSplineSet
Validated: 1
EndChar

StartChar: ohungarumlaut
Encoding: 337 337 274
Width: 550
GlyphClass: 2
Flags: W
LayerCount: 2
Fore
SplineSet
277 501 m 0,0,1
 385 501 385 501 436 422 c 0,2,3
 472 365 472 365 472 244 c 0,4,5
 472 111 472 111 415 49 c 0,6,7
 365 -6 365 -6 272 -6 c 0,8,9
 189 -6 189 -6 140 41 c 0,10,11
 77 104 77 104 77 251 c 0,12,13
 77 394 77 394 147 455 c 0,14,15
 200 501 200 501 277 501 c 0,0,1
276 479 m 0,16,17
 203 479 203 479 157 431 c 0,18,19
 102 374 102 374 102 248 c 0,20,21
 102 117 102 117 158 59 c 0,22,23
 202 15 202 15 275 15 c 0,24,25
 350 15 350 15 396 63 c 0,26,27
 447 117 447 117 447 245 c 0,28,29
 447 363 447 363 413 411 c 0,30,31
 366 479 366 479 276 479 c 0,16,17
240 579 m 1,32,-1
 225 587 l 1,33,-1
 307 729 l 1,34,-1
 339 713 l 1,35,-1
 240 579 l 1,32,-1
327 579 m 1,36,-1
 312 587 l 1,37,-1
 394 729 l 1,38,-1
 426 713 l 1,39,-1
 327 579 l 1,36,-1
EndSplineSet
Validated: 1
EndChar

StartChar: OE
Encoding: 338 338 275
Width: 550
GlyphClass: 2
Flags: W
LayerCount: 2
Fore
SplineSet
277 701 m 0,0,1
 302 701 302 701 330 696 c 1,2,-1
 527 696 l 1,3,-1
 527 672 l 1,4,-1
 287 672 l 1,5,-1
 287 380 l 1,6,-1
 511 380 l 1,7,-1
 511 356 l 1,8,-1
 287 356 l 1,9,-1
 287 24 l 1,10,-1
 545 24 l 1,11,-1
 545 0 l 1,12,-1
 343 0 l 1,13,14
 314 -7 314 -7 277 -7 c 0,15,16
 152 -7 152 -7 96 62 c 128,-1,17
 40 131 40 131 40 243 c 2,18,-1
 40 458 l 2,19,20
 40 565 40 565 97.5 633 c 128,-1,21
 155 701 155 701 277 701 c 0,0,1
67 238 m 2,22,23
 67 145 67 145 112.5 85.5 c 128,-1,24
 158 26 158 26 260 17 c 1,25,-1
 260 675 l 1,26,27
 159 671 159 671 113 611 c 128,-1,28
 67 551 67 551 67 456 c 2,29,-1
 67 238 l 2,22,23
EndSplineSet
Validated: 1
EndChar

StartChar: oe
Encoding: 339 339 276
Width: 550
GlyphClass: 2
Flags: W
LayerCount: 2
Fore
SplineSet
538 249 m 1,0,-1
 289 249 l 1,1,2
 289 15 289 15 415 15 c 0,3,4
 467 15 467 15 503 51 c 1,5,-1
 518 33 l 1,6,7
 479 -7 479 -7 417 -7 c 0,8,9
 304 -7 304 -7 277 120 c 1,10,11
 252 -6 252 -6 151 -6 c 0,12,13
 82 -6 82 -6 48.5 51 c 128,-1,14
 15 108 15 108 15 250 c 0,15,16
 15 501 15 501 155 501 c 0,17,18
 207 501 207 501 236.5 470.5 c 128,-1,19
 266 440 266 440 279 374 c 1,20,21
 308 501 308 501 404 501 c 0,22,23
 444 501 444 501 471 483 c 128,-1,24
 498 465 498 465 512.5 431.5 c 128,-1,25
 527 398 527 398 532.5 359.5 c 128,-1,26
 538 321 538 321 538 270 c 2,27,-1
 538 249 l 1,0,-1
154 479 m 0,28,29
 101 479 101 479 71 427 c 128,-1,30
 41 375 41 375 41 247 c 0,31,32
 41 118 41 118 70 66.5 c 128,-1,33
 99 15 99 15 153 15 c 0,34,35
 184 15 184 15 206 32 c 128,-1,36
 228 49 228 49 239 72 c 128,-1,37
 250 95 250 95 256 131 c 128,-1,38
 262 167 262 167 263 190 c 128,-1,39
 264 213 264 213 264 246 c 0,40,41
 264 276 264 276 263.5 294 c 128,-1,42
 263 312 263 312 260 343.5 c 128,-1,43
 257 375 257 375 250 395.5 c 128,-1,44
 243 416 243 416 231.5 437 c 128,-1,45
 220 458 220 458 200 468.5 c 128,-1,46
 180 479 180 479 154 479 c 0,28,29
404 479 m 0,47,48
 299 479 299 479 291 272 c 1,49,-1
 512 272 l 1,50,51
 510 479 510 479 404 479 c 0,47,48
EndSplineSet
Validated: 1
EndChar

StartChar: Racute
Encoding: 340 340 277
Width: 550
GlyphClass: 2
Flags: W
LayerCount: 2
Fore
SplineSet
465 0 m 1,0,-1
 297 331 l 1,1,-1
 102 331 l 1,2,-1
 102 0 l 1,3,-1
 76 0 l 1,4,-1
 76 696 l 1,5,-1
 306 696 l 2,6,7
 395 696 395 696 449 650 c 128,-1,8
 503 604 503 604 503 521 c 0,9,10
 503 444 503 444 455 392 c 128,-1,11
 407 340 407 340 325 332 c 1,12,-1
 494 0 l 1,13,-1
 465 0 l 1,0,-1
297 672 m 2,14,-1
 102 672 l 1,15,-1
 102 356 l 1,16,-1
 294 356 l 2,17,18
 374 356 374 356 424.5 399 c 128,-1,19
 475 442 475 442 475 521 c 0,20,21
 475 597 475 597 423 634.5 c 128,-1,22
 371 672 371 672 297 672 c 2,14,-1
226 754 m 1,23,-1
 215 767 l 1,24,-1
 344 868 l 1,25,-1
 368 842 l 1,26,-1
 226 754 l 1,23,-1
EndSplineSet
Validated: 1
EndChar

StartChar: racute
Encoding: 341 341 278
Width: 550
GlyphClass: 2
Flags: W
LayerCount: 2
Fore
SplineSet
479 466 m 1,0,-1
 468 444 l 1,1,2
 417 476 417 476 360 476 c 0,3,4
 290 476 290 476 246 430 c 128,-1,5
 202 384 202 384 202 303 c 2,6,-1
 202 0 l 1,7,-1
 178 0 l 1,8,-1
 178 495 l 1,9,-1
 202 495 l 1,10,-1
 202 402 l 1,11,-1
 204 402 l 1,12,13
 248 500 248 500 362 500 c 0,14,15
 423 500 423 500 479 466 c 1,0,-1
243 579 m 1,16,-1
 228 587 l 1,17,-1
 310 729 l 1,18,-1
 342 713 l 1,19,-1
 243 579 l 1,16,-1
EndSplineSet
Validated: 1
EndChar

StartChar: Rcommaaccent
Encoding: 342 342 279
Width: 550
GlyphClass: 2
Flags: W
LayerCount: 2
Fore
SplineSet
465 0 m 1,0,-1
 297 331 l 1,1,-1
 102 331 l 1,2,-1
 102 0 l 1,3,-1
 76 0 l 1,4,-1
 76 696 l 1,5,-1
 306 696 l 2,6,7
 395 696 395 696 449 650 c 128,-1,8
 503 604 503 604 503 521 c 0,9,10
 503 444 503 444 455 392 c 128,-1,11
 407 340 407 340 325 332 c 1,12,-1
 494 0 l 1,13,-1
 465 0 l 1,0,-1
297 672 m 2,14,-1
 102 672 l 1,15,-1
 102 356 l 1,16,-1
 294 356 l 2,17,18
 374 356 374 356 424.5 399 c 128,-1,19
 475 442 475 442 475 521 c 0,20,21
 475 597 475 597 423 634.5 c 128,-1,22
 371 672 371 672 297 672 c 2,14,-1
255 -209 m 1,23,-1
 237 -209 l 1,24,-1
 261 -111 l 1,25,-1
 251 -111 l 1,26,-1
 251 -64 l 1,27,-1
 292 -64 l 1,28,-1
 292 -114 l 1,29,-1
 255 -209 l 1,23,-1
EndSplineSet
Validated: 1
EndChar

StartChar: rcommaaccent
Encoding: 343 343 280
Width: 550
GlyphClass: 2
Flags: W
LayerCount: 2
Fore
SplineSet
479 466 m 1,0,-1
 468 444 l 1,1,2
 417 476 417 476 360 476 c 0,3,4
 290 476 290 476 246 430 c 128,-1,5
 202 384 202 384 202 303 c 2,6,-1
 202 0 l 1,7,-1
 178 0 l 1,8,-1
 178 495 l 1,9,-1
 202 495 l 1,10,-1
 202 402 l 1,11,-1
 204 402 l 1,12,13
 248 500 248 500 362 500 c 0,14,15
 423 500 423 500 479 466 c 1,0,-1
172 -209 m 1,16,-1
 154 -209 l 1,17,-1
 178 -111 l 1,18,-1
 168 -111 l 1,19,-1
 168 -64 l 1,20,-1
 209 -64 l 1,21,-1
 209 -114 l 1,22,-1
 172 -209 l 1,16,-1
EndSplineSet
Validated: 1
EndChar

StartChar: Rcaron
Encoding: 344 344 281
Width: 550
GlyphClass: 2
Flags: W
LayerCount: 2
Fore
SplineSet
465 0 m 1,0,-1
 297 331 l 1,1,-1
 102 331 l 1,2,-1
 102 0 l 1,3,-1
 76 0 l 1,4,-1
 76 696 l 1,5,-1
 306 696 l 2,6,7
 395 696 395 696 449 650 c 128,-1,8
 503 604 503 604 503 521 c 0,9,10
 503 444 503 444 455 392 c 128,-1,11
 407 340 407 340 325 332 c 1,12,-1
 494 0 l 1,13,-1
 465 0 l 1,0,-1
297 672 m 2,14,-1
 102 672 l 1,15,-1
 102 356 l 1,16,-1
 294 356 l 2,17,18
 374 356 374 356 424.5 399 c 128,-1,19
 475 442 475 442 475 521 c 0,20,21
 475 597 475 597 423 634.5 c 128,-1,22
 371 672 371 672 297 672 c 2,14,-1
242 778 m 1,23,-1
 364 860 l 1,24,-1
 376 848 l 1,25,-1
 258 748 l 1,26,-1
 229 748 l 1,27,-1
 107 848 l 1,28,-1
 119 861 l 1,29,-1
 242 778 l 1,23,-1
EndSplineSet
Validated: 1
EndChar

StartChar: rcaron
Encoding: 345 345 282
Width: 550
GlyphClass: 2
Flags: W
LayerCount: 2
Fore
SplineSet
479 466 m 1,0,-1
 468 444 l 1,1,2
 417 476 417 476 360 476 c 0,3,4
 290 476 290 476 246 430 c 128,-1,5
 202 384 202 384 202 303 c 2,6,-1
 202 0 l 1,7,-1
 178 0 l 1,8,-1
 178 495 l 1,9,-1
 202 495 l 1,10,-1
 202 402 l 1,11,-1
 204 402 l 1,12,13
 248 500 248 500 362 500 c 0,14,15
 423 500 423 500 479 466 c 1,0,-1
241 599 m 1,16,-1
 363 691 l 1,17,-1
 375 679 l 1,18,-1
 257 569 l 1,19,-1
 228 569 l 1,20,-1
 106 679 l 1,21,-1
 118 692 l 1,22,-1
 241 599 l 1,16,-1
EndSplineSet
Validated: 1
EndChar

StartChar: Sacute
Encoding: 346 346 283
Width: 550
GlyphClass: 2
Flags: W
LayerCount: 2
Fore
SplineSet
263 -6 m 0,0,1
 134 -6 134 -6 34 59 c 1,2,-1
 49 81 l 1,3,4
 148 18 148 18 265 18 c 0,5,6
 356 18 356 18 414 59 c 128,-1,7
 472 100 472 100 472 176 c 0,8,9
 472 213 472 213 458.5 242 c 128,-1,10
 445 271 445 271 427 288 c 128,-1,11
 409 305 409 305 378 319 c 128,-1,12
 347 333 347 333 326 339 c 128,-1,13
 305 345 305 345 272 352 c 0,14,15
 234 360 234 360 211.5 366.5 c 128,-1,16
 189 373 189 373 158.5 386.5 c 128,-1,17
 128 400 128 400 111 416.5 c 128,-1,18
 94 433 94 433 82 460 c 128,-1,19
 70 487 70 487 70 523 c 0,20,21
 70 604 70 604 125.5 653 c 128,-1,22
 181 702 181 702 280 702 c 0,23,24
 383 702 383 702 467 656 c 1,25,-1
 455 633 l 1,26,27
 370 678 370 678 279 678 c 0,28,29
 204 678 204 678 150.5 640 c 128,-1,30
 97 602 97 602 97 521 c 0,31,32
 97 492 97 492 108.5 469 c 128,-1,33
 120 446 120 446 133.5 433 c 128,-1,34
 147 420 147 420 177.5 407.5 c 128,-1,35
 208 395 208 395 224 390.5 c 128,-1,36
 240 386 240 386 279 377 c 0,37,38
 321 367 321 367 346 359 c 128,-1,39
 371 351 371 351 404 335 c 128,-1,40
 437 319 437 319 455 300 c 128,-1,41
 473 281 473 281 486 249 c 128,-1,42
 499 217 499 217 499 176 c 0,43,44
 499 93 499 93 436.5 43.5 c 128,-1,45
 374 -6 374 -6 263 -6 c 0,0,1
244 763 m 1,46,-1
 233 776 l 1,47,-1
 362 877 l 1,48,-1
 386 851 l 1,49,-1
 244 763 l 1,46,-1
EndSplineSet
Validated: 1
EndChar

StartChar: sacute
Encoding: 347 347 284
Width: 550
GlyphClass: 2
Flags: W
LayerCount: 2
Fore
SplineSet
454 128 m 0,0,1
 454 69 454 69 405.5 31 c 128,-1,2
 357 -7 357 -7 264 -7 c 0,3,4
 152 -7 152 -7 76 48 c 1,5,-1
 90 68 l 1,6,7
 160 15 160 15 273 15 c 0,8,9
 300 15 300 15 325 20.5 c 128,-1,10
 350 26 350 26 374 38 c 128,-1,11
 398 50 398 50 413 74 c 128,-1,12
 428 98 428 98 428 131 c 0,13,14
 428 221 428 221 279 245 c 0,15,16
 237 252 237 252 210 259.5 c 128,-1,17
 183 267 183 267 156.5 280.5 c 128,-1,18
 130 294 130 294 117 316 c 128,-1,19
 104 338 104 338 104 369 c 0,20,21
 104 431 104 431 150 466 c 128,-1,22
 196 501 196 501 281 501 c 0,23,24
 373 501 373 501 437 461 c 1,25,-1
 423 440 l 1,26,27
 360 479 360 479 285 479 c 0,28,29
 213 479 213 479 171.5 452.5 c 128,-1,30
 130 426 130 426 130 372 c 0,31,32
 130 351 130 351 138.5 334.5 c 128,-1,33
 147 318 147 318 158.5 308.5 c 128,-1,34
 170 299 170 299 192 290.5 c 128,-1,35
 214 282 214 282 231 278.5 c 128,-1,36
 248 275 248 275 277 269 c 0,37,38
 317 262 317 262 342 254 c 128,-1,39
 367 246 367 246 396 231 c 128,-1,40
 425 216 425 216 439.5 190 c 128,-1,41
 454 164 454 164 454 128 c 0,0,1
259 579 m 1,42,-1
 244 587 l 1,43,-1
 326 729 l 1,44,-1
 358 713 l 1,45,-1
 259 579 l 1,42,-1
EndSplineSet
Validated: 1
EndChar

StartChar: Scircumflex
Encoding: 348 348 285
Width: 550
GlyphClass: 2
Flags: W
LayerCount: 2
Fore
SplineSet
263 -6 m 0,0,1
 134 -6 134 -6 34 59 c 1,2,-1
 49 81 l 1,3,4
 148 18 148 18 265 18 c 0,5,6
 356 18 356 18 414 59 c 128,-1,7
 472 100 472 100 472 176 c 0,8,9
 472 213 472 213 458.5 242 c 128,-1,10
 445 271 445 271 427 288 c 128,-1,11
 409 305 409 305 378 319 c 128,-1,12
 347 333 347 333 326 339 c 128,-1,13
 305 345 305 345 272 352 c 0,14,15
 234 360 234 360 211.5 366.5 c 128,-1,16
 189 373 189 373 158.5 386.5 c 128,-1,17
 128 400 128 400 111 416.5 c 128,-1,18
 94 433 94 433 82 460 c 128,-1,19
 70 487 70 487 70 523 c 0,20,21
 70 604 70 604 125.5 653 c 128,-1,22
 181 702 181 702 280 702 c 0,23,24
 383 702 383 702 467 656 c 1,25,-1
 455 633 l 1,26,27
 370 678 370 678 279 678 c 0,28,29
 204 678 204 678 150.5 640 c 128,-1,30
 97 602 97 602 97 521 c 0,31,32
 97 492 97 492 108.5 469 c 128,-1,33
 120 446 120 446 133.5 433 c 128,-1,34
 147 420 147 420 177.5 407.5 c 128,-1,35
 208 395 208 395 224 390.5 c 128,-1,36
 240 386 240 386 279 377 c 0,37,38
 321 367 321 367 346 359 c 128,-1,39
 371 351 371 351 404 335 c 128,-1,40
 437 319 437 319 455 300 c 128,-1,41
 473 281 473 281 486 249 c 128,-1,42
 499 217 499 217 499 176 c 0,43,44
 499 93 499 93 436.5 43.5 c 128,-1,45
 374 -6 374 -6 263 -6 c 0,0,1
396 746 m 1,46,-1
 274 828 l 1,47,-1
 151 745 l 1,48,-1
 139 758 l 1,49,-1
 261 858 l 1,50,-1
 290 858 l 1,51,-1
 408 758 l 1,52,-1
 396 746 l 1,46,-1
EndSplineSet
Validated: 1
EndChar

